<svg width="375" height="429" viewBox="0 0 375 429" fill="none" xmlns="http://www.w3.org/2000/svg">
<path d="M249.211 30.0647H175.645V263.226H249.211V30.0647Z" fill="#F5F5F5"/>
<path d="M249.221 30.0647H212.433V262.59H249.221V30.0647Z" fill="#EBEBEB"/>
<path d="M210.021 7.17578H184.046V30.0647H210.021V7.17578Z" fill="#F5F5F5"/>
<path d="M210.031 7.17578H203.839V30.0647H210.031V7.17578Z" fill="#EBEBEB"/>
<path d="M169.51 30.0647V28.7336H251.372V30.0647" fill="#E0E0E0"/>
<path d="M196.402 40.0481H190.171V53.1757H196.402V40.0481Z" fill="#FAFAFA"/>
<path d="M212.433 58.3355C212.433 58.4705 204.195 58.5863 194.039 58.5863C183.882 58.5863 175.645 58.4705 175.645 58.3355C175.645 58.2005 183.882 58.0847 194.039 58.0847C204.195 58.0847 212.433 58.2005 212.433 58.3355Z" fill="#E0E0E0"/>
<path d="M233.508 40.0481H227.277V53.1757H233.508V40.0481Z" fill="#E0E0E0"/>
<path d="M249.539 58.336C249.539 58.471 241.302 58.5868 231.145 58.5868C220.988 58.5868 212.751 58.471 212.751 58.336C212.751 58.201 220.988 58.0852 231.145 58.0852C241.302 58.0852 249.539 58.201 249.539 58.336Z" fill="#E0E0E0"/>
<path d="M233.508 66.1194H227.277V79.247H233.508V66.1194Z" fill="#E0E0E0"/>
<path d="M249.539 84.4075C249.539 84.5426 241.302 84.6583 231.145 84.6583C220.988 84.6583 212.751 84.5426 212.751 84.4075C212.751 84.2725 220.988 84.1567 231.145 84.1567C241.302 84.1567 249.539 84.2725 249.539 84.4075Z" fill="#E0E0E0"/>
<path d="M233.508 92.9734H227.277V106.101H233.508V92.9734Z" fill="#E0E0E0"/>
<path d="M249.539 111.261C249.539 111.396 241.302 111.512 231.145 111.512C220.988 111.512 212.751 111.396 212.751 111.261C212.751 111.126 220.988 111.01 231.145 111.01C241.302 111.01 249.539 111.126 249.539 111.261Z" fill="#E0E0E0"/>
<path d="M233.508 119.836H227.277V132.964H233.508V119.836Z" fill="#E0E0E0"/>
<path d="M249.539 138.124C249.539 138.259 241.302 138.375 231.145 138.375C220.988 138.375 212.751 138.259 212.751 138.124C212.751 137.989 220.988 137.873 231.145 137.873C241.302 137.873 249.539 137.989 249.539 138.124Z" fill="#E0E0E0"/>
<path d="M233.508 145.927H227.277V159.055H233.508V145.927Z" fill="#E0E0E0"/>
<path d="M249.539 164.206C249.539 164.341 241.302 164.456 231.145 164.456C220.988 164.456 212.751 164.341 212.751 164.206C212.751 164.071 220.988 163.955 231.145 163.955C241.302 163.955 249.539 164.071 249.539 164.206Z" fill="#E0E0E0"/>
<path d="M233.508 172.115H227.277V185.243H233.508V172.115Z" fill="#E0E0E0"/>
<path d="M233.508 198.66H227.277V211.787H233.508V198.66Z" fill="#E0E0E0"/>
<path d="M249.539 190.403C249.539 190.538 241.302 190.654 231.145 190.654C220.988 190.654 212.751 190.538 212.751 190.403C212.751 190.268 220.988 190.153 231.145 190.153C241.302 190.153 249.539 190.268 249.539 190.403Z" fill="#E0E0E0"/>
<path d="M196.402 66.5151H190.171V79.6427H196.402V66.5151Z" fill="#FAFAFA"/>
<path d="M212.433 84.8038C212.433 84.9388 204.195 85.0545 194.039 85.0545C183.882 85.0545 175.645 84.9388 175.645 84.8038C175.645 84.6687 183.882 84.553 194.039 84.553C204.195 84.553 212.433 84.6687 212.433 84.8038Z" fill="#E0E0E0"/>
<path d="M196.402 92.9829H190.171V106.11H196.402V92.9829Z" fill="#FAFAFA"/>
<path d="M212.433 111.271C212.433 111.406 204.195 111.522 194.039 111.522C183.882 111.522 175.645 111.406 175.645 111.271C175.645 111.136 183.882 111.02 194.039 111.02C204.195 111.02 212.433 111.136 212.433 111.271Z" fill="#E0E0E0"/>
<path d="M196.402 119.45H190.171V132.578H196.402V119.45Z" fill="#FAFAFA"/>
<path d="M212.433 137.738C212.433 137.873 204.195 137.989 194.039 137.989C183.882 137.989 175.645 137.873 175.645 137.738C175.645 137.603 183.882 137.488 194.039 137.488C204.195 137.488 212.433 137.603 212.433 137.738Z" fill="#E0E0E0"/>
<path d="M196.402 145.927H190.171V159.055H196.402V145.927Z" fill="#FAFAFA"/>
<path d="M212.433 164.206C212.433 164.341 204.195 164.456 194.039 164.456C183.882 164.456 175.645 164.341 175.645 164.206C175.645 164.071 183.882 163.955 194.039 163.955C204.195 163.955 212.433 164.071 212.433 164.206Z" fill="#E0E0E0"/>
<path d="M196.402 172.395H190.171V185.522H196.402V172.395Z" fill="#FAFAFA"/>
<path d="M212.433 190.673C212.433 190.808 204.195 190.923 194.039 190.923C183.882 190.923 175.645 190.808 175.645 190.673C175.645 190.538 183.882 190.422 194.039 190.422C204.195 190.422 212.433 190.538 212.433 190.673Z" fill="#E0E0E0"/>
<path d="M196.402 198.862H190.171V211.989H196.402V198.862Z" fill="#FAFAFA"/>
<path d="M334.767 130.234H247.822V405.778H334.767V130.234Z" fill="#F5F5F5"/>
<path d="M334.767 133.851H291.295V405.788H334.767V133.851Z" fill="#EBEBEB"/>
<path d="M288.459 106.796H257.757V133.852H288.459V106.796Z" fill="#F5F5F5"/>
<path d="M288.459 106.796H281.138V133.852H288.459V106.796Z" fill="#EBEBEB"/>
<path d="M240.578 133.852V132.27H337.314V133.852" fill="#E0E0E0"/>
<path d="M272.351 145.648H264.991V161.167H272.351V145.648Z" fill="#FAFAFA"/>
<path d="M291.295 167.254C291.295 167.418 281.562 167.553 269.563 167.553C257.564 167.553 247.822 167.418 247.822 167.254C247.822 167.09 257.555 166.955 269.563 166.955C281.572 166.955 291.295 167.09 291.295 167.254Z" fill="#E0E0E0"/>
<path d="M316.2 145.647H308.84V161.167H316.2V145.647Z" fill="#E0E0E0"/>
<path d="M335.143 167.253C335.143 167.417 325.411 167.552 313.412 167.552C301.413 167.552 291.671 167.417 291.671 167.253C291.671 167.089 301.403 166.954 313.412 166.954C325.421 166.954 335.143 167.089 335.143 167.253Z" fill="#E0E0E0"/>
<path d="M316.2 176.456H308.84V191.975H316.2V176.456Z" fill="#E0E0E0"/>
<path d="M335.143 198.062C335.143 198.226 325.411 198.361 313.412 198.361C301.413 198.361 291.671 198.226 291.671 198.062C291.671 197.898 301.403 197.763 313.412 197.763C325.421 197.763 335.143 197.898 335.143 198.062Z" fill="#E0E0E0"/>
<path d="M316.2 208.19H308.84V223.71H316.2V208.19Z" fill="#E0E0E0"/>
<path d="M335.143 229.806C335.143 229.97 325.411 230.105 313.412 230.105C301.413 230.105 291.671 229.97 291.671 229.806C291.671 229.642 301.403 229.507 313.412 229.507C325.421 229.507 335.143 229.642 335.143 229.806Z" fill="#E0E0E0"/>
<path d="M316.2 239.933H308.84V255.453H316.2V239.933Z" fill="#E0E0E0"/>
<path d="M335.143 261.539C335.143 261.703 325.411 261.838 313.412 261.838C301.413 261.838 291.671 261.703 291.671 261.539C291.671 261.375 301.403 261.24 313.412 261.24C325.421 261.24 335.143 261.375 335.143 261.539Z" fill="#E0E0E0"/>
<path d="M316.2 270.76H308.84V286.28H316.2V270.76Z" fill="#E0E0E0"/>
<path d="M335.143 292.366C335.143 292.53 325.411 292.665 313.412 292.665C301.413 292.665 291.671 292.53 291.671 292.366C291.671 292.202 301.403 292.067 313.412 292.067C325.421 292.067 335.143 292.202 335.143 292.366Z" fill="#E0E0E0"/>
<path d="M316.2 301.722H308.84V317.242H316.2V301.722Z" fill="#E0E0E0"/>
<path d="M316.2 333.08H308.84V348.6H316.2V333.08Z" fill="#E0E0E0"/>
<path d="M335.143 323.328C335.143 323.492 325.411 323.627 313.412 323.627C301.413 323.627 291.671 323.492 291.671 323.328C291.671 323.164 301.403 323.029 313.412 323.029C325.421 323.029 335.143 323.164 335.143 323.328Z" fill="#E0E0E0"/>
<path d="M272.351 176.928H264.991V192.448H272.351V176.928Z" fill="#FAFAFA"/>
<path d="M291.295 198.534C291.295 198.698 281.562 198.833 269.563 198.833C257.564 198.833 247.822 198.698 247.822 198.534C247.822 198.37 257.555 198.235 269.563 198.235C281.572 198.235 291.295 198.37 291.295 198.534Z" fill="#E0E0E0"/>
<path d="M272.351 208.199H264.991V223.719H272.351V208.199Z" fill="#FAFAFA"/>
<path d="M291.295 229.815C291.295 229.979 281.562 230.114 269.563 230.114C257.564 230.114 247.822 229.979 247.822 229.815C247.822 229.651 257.555 229.516 269.563 229.516C281.572 229.516 291.295 229.651 291.295 229.815Z" fill="#E0E0E0"/>
<path d="M272.351 239.48H264.991V255H272.351V239.48Z" fill="#FAFAFA"/>
<path d="M291.295 261.096C291.295 261.26 281.562 261.395 269.563 261.395C257.564 261.395 247.822 261.26 247.822 261.096C247.822 260.932 257.555 260.797 269.563 260.797C281.572 260.797 291.295 260.932 291.295 261.096Z" fill="#E0E0E0"/>
<path d="M272.351 270.76H264.991V286.279H272.351V270.76Z" fill="#FAFAFA"/>
<path d="M291.295 292.367C291.295 292.531 281.562 292.666 269.563 292.666C257.564 292.666 247.822 292.531 247.822 292.367C247.822 292.203 257.555 292.068 269.563 292.068C281.572 292.068 291.295 292.203 291.295 292.367Z" fill="#E0E0E0"/>
<path d="M272.351 302.041H264.991V317.56H272.351V302.041Z" fill="#FAFAFA"/>
<path d="M291.295 323.647C291.295 323.811 281.562 323.946 269.563 323.946C257.564 323.946 247.822 323.811 247.822 323.647C247.822 323.483 257.555 323.348 269.563 323.348C281.572 323.348 291.295 323.483 291.295 323.647Z" fill="#E0E0E0"/>
<path d="M272.351 333.321H264.991V348.841H272.351V333.321Z" fill="#FAFAFA"/>
<path d="M269.428 405.779H156.267L155.775 226.931H268.936L269.428 405.779Z" fill="#F5F5F5"/>
<path d="M268.936 226.931H212.356V405.779H268.936V226.931Z" fill="#EBEBEB"/>
<path d="M208.661 191.725H168.7V226.931H208.661V191.725Z" fill="#F5F5F5"/>
<path d="M208.652 191.725H199.132V226.931H208.652V191.725Z" fill="#EBEBEB"/>
<path d="M272.245 224.876H146.342V226.931H272.245V224.876Z" fill="#E0E0E0"/>
<path d="M187.692 242.286H178.114V262.484H187.692V242.286Z" fill="white"/>
<path d="M212.356 270.413C212.356 270.625 199.691 270.799 184.065 270.799C168.439 270.799 155.775 270.625 155.775 270.413C155.775 270.201 168.439 270.027 184.065 270.027C199.691 270.027 212.356 270.201 212.356 270.413Z" fill="#E0E0E0"/>
<path d="M244.765 242.287H235.187V262.484H244.765V242.287Z" fill="#F5F5F5"/>
<path d="M269.428 270.413C269.428 270.625 256.764 270.799 241.138 270.799C225.512 270.799 212.848 270.625 212.848 270.413C212.848 270.201 225.512 270.027 241.138 270.027C256.764 270.027 269.428 270.201 269.428 270.413Z" fill="#E0E0E0"/>
<path d="M244.765 282.393H235.187V302.59H244.765V282.393Z" fill="#F5F5F5"/>
<path d="M269.428 310.51C269.428 310.722 256.764 310.895 241.138 310.895C225.512 310.895 212.848 310.722 212.848 310.51C212.848 310.297 225.512 310.124 241.138 310.124C256.764 310.124 269.428 310.297 269.428 310.51Z" fill="#E0E0E0"/>
<path d="M244.765 323.695H235.187V343.893H244.765V323.695Z" fill="#F5F5F5"/>
<path d="M269.428 351.821C269.428 352.034 256.764 352.207 241.138 352.207C225.512 352.207 212.848 352.034 212.848 351.821C212.848 351.609 225.512 351.436 241.138 351.436C256.764 351.436 269.428 351.609 269.428 351.821Z" fill="#E0E0E0"/>
<path d="M244.765 365.007H235.187V385.205H244.765V365.007Z" fill="#F5F5F5"/>
<path d="M269.428 393.133C269.428 393.345 256.764 393.519 241.138 393.519C225.512 393.519 212.848 393.345 212.848 393.133C212.848 392.921 225.512 392.747 241.138 392.747C256.764 392.747 269.428 392.921 269.428 393.133Z" fill="#E0E0E0"/>
<path d="M187.692 283H178.114V303.198H187.692V283Z" fill="white"/>
<path d="M212.356 311.127C212.356 311.339 199.691 311.513 184.065 311.513C168.439 311.513 155.775 311.339 155.775 311.127C155.775 310.915 168.439 310.741 184.065 310.741C199.691 310.741 212.356 310.915 212.356 311.127Z" fill="#E0E0E0"/>
<path d="M187.692 323.714H178.114V343.912H187.692V323.714Z" fill="white"/>
<path d="M212.356 351.84C212.356 352.053 199.691 352.226 184.065 352.226C168.439 352.226 155.775 352.053 155.775 351.84C155.775 351.628 168.439 351.455 184.065 351.455C199.691 351.455 212.356 351.628 212.356 351.84Z" fill="#E0E0E0"/>
<path d="M187.692 364.428H178.114V384.626H187.692V364.428Z" fill="white"/>
<path d="M212.356 392.554C212.356 392.767 199.691 392.94 184.065 392.94C168.439 392.94 155.775 392.767 155.775 392.554C155.775 392.342 168.439 392.168 184.065 392.168C199.691 392.168 212.356 392.342 212.356 392.554Z" fill="#E0E0E0"/>
<path d="M84.9391 82.8557C85.8379 76.3871 76.6015 71.0743 69.6476 70.5139C66.3362 70.2453 62.8947 70.7474 59.7608 69.6732C52.9606 67.3379 50.2406 58.6624 43.606 55.8952C38.6507 53.8285 32.9386 55.6733 28.1252 58.0553C23.3119 60.4489 18.5696 63.4497 13.1886 63.7883C8.51716 64.0802 3.44364 62.3755 -0.648281 64.629C-3.69948 66.3104 -5.29603 69.7783 -8.09888 71.8216C-10.8426 73.8183 -14.426 74.2503 -17.832 74.4254C-21.238 74.6123 -24.774 74.6473 -27.8726 76.0484C-30.9711 77.4496 -33.5492 80.6956 -32.8988 84L84.9391 82.8557Z" fill="#F5F5F5"/>
<path d="M149.688 29.2375C150.17 25.6976 145.184 22.7943 141.431 22.4856C139.647 22.3409 137.785 22.611 136.088 22.0226C132.413 20.7397 130.947 16.0038 127.368 14.4894C124.687 13.3609 121.61 14.364 119.006 15.6758C116.411 16.978 113.845 18.6274 110.942 18.8106C108.415 18.9746 105.675 18.039 103.467 19.2736C101.817 20.19 100.959 22.0901 99.4444 23.209C97.959 24.299 96.0299 24.5304 94.1876 24.6365C92.3453 24.733 90.4451 24.7523 88.7668 25.5239C87.0885 26.2956 85.6995 28.0607 86.0564 29.8741L149.688 29.2471V29.2375Z" fill="#F5F5F5"/>
<path d="M236.016 102.266C236.016 102.266 233.405 99.4522 232.135 100.123C230.865 100.793 229.956 102.619 229.454 103.668C228.898 104.833 230.106 105.741 230.609 105.565C231.112 105.38 232.329 103.986 232.329 103.986L234.728 105.935L234.808 109.216L234.667 110.178L232.567 109.631L232.135 107.152C231.976 106.253 230.865 105.812 230.212 106.447C229.956 106.694 229.771 107.082 229.727 107.673C229.586 109.807 229.771 113.521 232.188 114.667C234.605 115.814 238.936 117.084 238.936 117.084L240.92 119.131L249.158 117.446L247.562 113.882L246.795 102.892C246.795 102.892 249.326 98.332 249.15 96.8061C248.973 95.2801 247.924 90.7465 247.924 90.7465C247.924 90.7465 246.645 90.2525 246.38 91.655C246.115 93.0662 246.521 96.8325 246.521 96.8325L244.36 100.493L242.173 88.4267C242.005 87.5005 240.753 87.2624 240.294 88.0827C240.082 88.4531 239.95 89.0088 239.968 89.8291C240.038 92.8986 241.202 100.202 240.841 100.299C240.479 100.396 239.5 99.9109 239.086 98.4202C238.706 97.0619 236.581 91.1875 235.716 88.8324C235.504 88.2503 234.711 88.118 234.349 88.6207C233.882 89.2646 233.52 90.4025 234.014 92.387C234.614 94.8127 235.901 99.6551 236.016 100.237C236.131 100.811 236.016 102.248 236.016 102.248V102.266Z" fill="#FFBF9D"/>
<path d="M241.511 112.418C241.449 112.454 241.22 112.118 240.761 111.686C240.312 111.245 239.597 110.725 238.697 110.39C237.798 110.054 236.916 109.975 236.281 110.01C235.646 110.046 235.258 110.143 235.231 110.072C235.213 110.028 235.584 109.816 236.245 109.702C236.907 109.587 237.868 109.613 238.847 109.975C239.818 110.337 240.567 110.954 240.991 111.474C241.414 111.995 241.555 112.401 241.511 112.418Z" fill="#FF9A6C"/>
<path d="M219.972 365.899L233.493 386.821L239.421 406.455C239.844 407.866 241.388 408.625 242.764 408.104C243.54 407.813 244.157 407.178 244.325 406.367C245.392 401.392 249.088 378.521 248.382 377.453C247.218 375.689 236.58 357.996 236.58 357.996L219.963 365.89L219.972 365.899Z" fill="#263238"/>
<path d="M242.764 408.104L247.509 376.024L248.065 376.924C248.541 377.7 248.735 378.618 248.594 379.526C248.223 381.934 247.041 393.489 244.404 406.331C244.237 407.169 243.575 407.822 242.772 408.104H242.764Z" fill="#455A64"/>
<g opacity="0.6">
<path d="M239.95 375.416C239.641 376.113 239.967 377.022 240.647 377.357C241.326 377.692 242.261 377.374 242.578 376.686C242.896 375.998 242.543 374.896 241.828 374.64C241.114 374.384 240.047 374.816 239.897 375.566" fill="white"/>
</g>
<path d="M241.917 395.844C241.829 395.976 240.673 395.156 239.041 395.333C237.41 395.465 236.422 396.479 236.307 396.364C236.254 396.32 236.422 395.994 236.88 395.615C237.33 395.235 238.089 394.865 238.988 394.786C239.888 394.706 240.708 394.927 241.22 395.209C241.732 395.491 241.961 395.782 241.917 395.835V395.844Z" fill="white"/>
<path d="M242.155 399.619C242.111 399.769 241.008 399.505 239.712 399.866C238.415 400.202 237.586 400.987 237.471 400.872C237.348 400.801 238.089 399.725 239.571 399.337C241.044 398.931 242.225 399.496 242.155 399.619Z" fill="white"/>
<path d="M242.499 390.472C242.464 390.631 240.761 390.208 238.706 390.596C236.642 390.949 235.196 391.937 235.107 391.796C235.002 391.707 236.395 390.437 238.609 390.058C240.814 389.652 242.561 390.358 242.499 390.472Z" fill="white"/>
<path d="M238.918 383.769C238.935 383.928 237.462 384.157 235.91 385.048C234.34 385.912 233.37 387.041 233.238 386.936C233.114 386.865 233.952 385.498 235.645 384.572C237.321 383.628 238.927 383.637 238.927 383.778L238.918 383.769Z" fill="white"/>
<path d="M236.413 379.315C236.422 379.474 234.808 379.491 233.246 380.559C231.659 381.59 231.015 383.063 230.865 382.993C230.803 382.966 230.865 382.561 231.182 381.979C231.491 381.396 232.091 380.664 232.938 380.1C233.784 379.535 234.693 379.271 235.354 379.209C236.016 379.147 236.422 379.244 236.413 379.306V379.315Z" fill="white"/>
<path d="M167.217 233.267C167.217 234.105 173.418 311.371 175.799 316.417C178.172 321.462 225.043 379.2 225.043 379.2L244.598 365.723L203.063 305.523L201.899 249.134L192.267 227.022L167.208 233.267H167.217Z" fill="#263238"/>
<path d="M225.855 217.804C226.349 218.977 232.797 237.394 233.282 245.209C233.776 253.033 219.328 391.822 219.328 391.822L195.469 389.917L201.669 255.317L191.376 227.022L225.855 217.804Z" fill="#263238"/>
<path d="M199.067 247.723C199.067 247.723 199.067 247.811 199.067 247.996C199.076 248.19 199.094 248.455 199.103 248.79C199.147 249.505 199.208 250.545 199.288 251.886C199.464 254.612 199.72 258.581 200.046 263.626C200.726 273.761 201.696 288.2 202.86 305.541V305.594L202.895 305.638C212.589 319.706 224.047 336.342 236.289 354.097C239.041 358.084 241.749 362.009 244.404 365.855L244.466 365.528C237.657 370.221 231.103 374.746 224.911 379.015L225.211 379.059C210.825 361.162 198.494 345.823 189.753 334.939C185.378 329.523 181.903 325.219 179.504 322.255C178.313 320.791 177.396 319.662 176.761 318.886C176.452 318.515 176.214 318.233 176.046 318.022C175.887 317.828 175.79 317.739 175.79 317.739C175.79 317.739 175.861 317.845 176.011 318.048C176.178 318.26 176.399 318.551 176.699 318.93C177.316 319.715 178.225 320.862 179.389 322.344C181.762 325.325 185.202 329.664 189.532 335.107C198.247 346.018 210.534 361.4 224.858 379.332L224.99 379.5L225.167 379.376C231.359 375.116 237.921 370.6 244.731 365.908L244.925 365.775L244.792 365.581C242.137 361.735 239.43 357.802 236.678 353.815C224.426 336.068 212.942 319.45 203.231 305.391L203.266 305.497C202.031 288.164 200.999 273.725 200.276 263.6C199.905 258.554 199.605 254.585 199.403 251.868C199.297 250.528 199.217 249.496 199.156 248.781C199.129 248.446 199.103 248.182 199.085 247.988C199.067 247.811 199.059 247.723 199.05 247.723H199.067Z" fill="#455A64"/>
<path d="M200.505 378.327L200.999 396.426C200.999 396.426 182.767 403.006 182.529 406.358L217.661 406.658L218.049 378.424L200.505 378.318V378.327Z" fill="#263238"/>
<path d="M211.874 394.997C212.554 395.191 213.012 395.959 212.854 396.647C212.686 397.335 211.91 397.811 211.231 397.626C210.551 397.449 209.96 396.541 210.207 395.879C210.446 395.218 211.389 394.706 212.007 395.041" fill="#E0E0E0"/>
<path d="M217.661 406.667L217.59 403.818L183.931 404.594C183.931 404.594 182.361 405.264 182.529 406.367L217.661 406.667Z" fill="#455A64"/>
<path d="M200.435 396.241C200.435 396.408 201.299 396.496 202.137 397.052C202.992 397.59 203.416 398.34 203.575 398.269C203.733 398.234 203.486 397.211 202.454 396.549C201.431 395.879 200.39 396.073 200.426 396.232L200.435 396.241Z" fill="white"/>
<path d="M196.73 397.731C196.686 397.899 197.427 398.199 198.009 398.922C198.609 399.637 198.75 400.422 198.917 400.413C199.076 400.439 199.208 399.434 198.468 398.543C197.744 397.643 196.73 397.564 196.73 397.723V397.731Z" fill="white"/>
<path d="M194.604 402.125C194.763 402.16 195.01 401.304 194.578 400.36C194.154 399.417 193.343 399.037 193.272 399.178C193.175 399.32 193.687 399.831 194.031 400.607C194.392 401.375 194.437 402.107 194.604 402.125Z" fill="white"/>
<path d="M200.778 392.104C200.849 392.263 201.634 392.034 202.604 392.104C203.575 392.157 204.324 392.492 204.421 392.342C204.518 392.219 203.786 391.575 202.648 391.505C201.511 391.425 200.699 391.963 200.778 392.095V392.104Z" fill="white"/>
<path d="M187.865 93.2598C189.779 93.0217 191.358 91.187 191.314 89.2554C191.27 87.3237 189.603 85.5684 187.68 85.4185C188.553 83.9455 188.368 81.9344 187.248 80.6378C186.128 79.35 184.152 78.8826 182.573 79.5441C182.106 77.9211 180.747 76.5893 179.115 76.1571C177.484 75.7249 175.64 76.2012 174.432 77.3831C172.244 76.2717 169.316 76.9156 167.799 78.8473C166.132 78.9355 164.606 80.2056 164.209 81.8198C163.812 83.4339 164.571 85.2685 166 86.1241" fill="#263238"/>
<path d="M194.736 114.12C193.775 109.895 191.085 101.357 188.553 93.6566C185.837 85.3831 177.219 80.576 168.751 82.6223L167.914 82.8252C158.97 85.5419 156.279 94.6621 159.243 103.527L168.346 135.033L189.885 132.652L188.333 126.336C188.333 126.336 196.73 122.879 194.736 114.129V114.12Z" fill="#FFBF9D"/>
<path d="M188.403 126.301C188.403 126.301 182.917 127.977 176.169 125.71C176.169 125.71 180.368 131.337 188.888 128.453L188.412 126.301H188.403Z" fill="#FF9A6C"/>
<path d="M186.657 102.159C186.842 102.812 186.436 103.5 185.757 103.703C185.078 103.906 184.381 103.544 184.205 102.891C184.02 102.239 184.425 101.551 185.104 101.348C185.784 101.145 186.48 101.507 186.657 102.159Z" fill="#263238"/>
<path d="M187.707 98.3755C187.592 98.5784 186.48 98.1021 185.14 98.4284C183.799 98.7372 182.979 99.6633 182.794 99.531C182.705 99.4781 182.794 99.1429 183.146 98.7283C183.49 98.3138 184.143 97.8375 184.972 97.6434C185.81 97.4494 186.586 97.5817 187.063 97.8022C187.548 98.0227 187.759 98.2785 187.707 98.3667V98.3755Z" fill="#263238"/>
<path d="M174.82 105.141C175.005 105.794 174.599 106.482 173.92 106.684C173.241 106.887 172.544 106.526 172.368 105.873C172.183 105.22 172.588 104.532 173.268 104.329C173.947 104.126 174.644 104.488 174.82 105.141Z" fill="#263238"/>
<path d="M174.749 101.824C174.652 102.036 173.506 101.648 172.191 102.08C170.877 102.486 170.136 103.474 169.942 103.359C169.845 103.315 169.907 102.971 170.233 102.53C170.551 102.089 171.151 101.569 171.971 101.304C172.791 101.039 173.576 101.119 174.07 101.304C174.573 101.48 174.802 101.727 174.749 101.824Z" fill="#263238"/>
<path d="M181.85 110.574C181.823 110.503 182.626 110.151 183.931 109.657C184.267 109.542 184.575 109.392 184.575 109.145C184.593 108.881 184.364 108.545 184.099 108.184C183.579 107.434 183.032 106.649 182.458 105.82C180.156 102.45 178.41 99.6455 178.542 99.5485C178.674 99.4603 180.65 102.115 182.952 105.485C183.508 106.314 184.046 107.116 184.558 107.875C184.778 108.237 185.113 108.625 185.06 109.172C185.034 109.454 184.822 109.692 184.619 109.807C184.416 109.93 184.222 109.974 184.055 110.027C182.714 110.424 181.876 110.636 181.85 110.565V110.574Z" fill="#263238"/>
<path d="M173.179 97.4145C173.197 97.8114 171.98 98.076 170.683 98.7728C169.378 99.4343 168.452 100.29 168.152 100.043C168.011 99.9195 168.081 99.5225 168.399 99.011C168.707 98.5082 169.29 97.9172 170.066 97.5115C170.842 97.1057 171.645 96.9646 172.227 97.0087C172.809 97.044 173.162 97.2292 173.179 97.4145Z" fill="#263238"/>
<path d="M186.701 94.6798C186.489 95.0326 185.413 94.8915 184.178 95.0943C182.935 95.2531 181.938 95.7029 181.647 95.4207C181.515 95.2796 181.62 94.9444 182.026 94.5739C182.423 94.2035 183.138 93.833 183.984 93.7095C184.831 93.586 185.616 93.736 186.101 93.9741C186.595 94.2123 186.789 94.5122 186.701 94.6798Z" fill="#263238"/>
<path d="M186.745 89.8639C186.745 89.8639 183.129 84.9597 180.183 84.3158C176.619 83.5396 176.09 87.3677 172.853 87.253C169.607 87.1384 166.211 86.3886 163.671 89.4846C160.893 92.8716 162.921 94.2917 163.644 98.2168C166.573 114.111 164.782 119.245 162.18 112.047C161.898 111.262 159.49 111.156 158.335 107.813C156.835 103.483 155.362 98.1374 155.6 94.7504C155.794 91.8926 156.87 89.6963 159.093 87.0237C162.604 82.7987 168.469 81.3169 172.562 80.7524C176.655 80.1879 185.466 82.931 186.745 89.855V89.8639Z" fill="#263238"/>
<path d="M162.683 111.677C162.304 110.345 160.884 109.56 159.578 110.01C157.991 110.557 156.403 111.915 157.32 115.249C158.952 121.168 164.553 118.31 164.518 118.142C164.491 118.028 163.389 114.147 162.683 111.677Z" fill="#FFBF9D"/>
<path d="M162.612 116.272C162.612 116.272 162.533 116.369 162.374 116.502C162.224 116.625 161.951 116.757 161.607 116.731C160.919 116.669 160.116 115.822 159.799 114.764C159.64 114.226 159.605 113.688 159.684 113.212C159.746 112.726 159.94 112.347 160.24 112.206C160.531 112.047 160.804 112.171 160.928 112.321C161.051 112.462 161.051 112.594 161.078 112.594C161.095 112.603 161.175 112.462 161.06 112.233C161.007 112.118 160.892 112.003 160.725 111.924C160.548 111.844 160.328 111.844 160.116 111.924C159.666 112.083 159.375 112.612 159.296 113.141C159.19 113.67 159.208 114.288 159.393 114.887C159.755 116.069 160.672 117.013 161.598 117.031C162.048 117.031 162.357 116.801 162.498 116.616C162.639 116.422 162.639 116.281 162.612 116.272Z" fill="#FF9A6C"/>
<path d="M160.01 100.096C160.91 100.44 161.863 100.784 162.815 100.652C163.768 100.519 164.712 99.7254 164.641 98.764C164.615 98.3318 164.394 97.8731 164.588 97.4851C164.818 97.0264 165.453 96.9999 165.964 96.9294C167.746 96.6912 169.219 95.0418 169.254 93.2513C169.854 93.8069 170.877 93.5335 171.442 92.9337C172.006 92.3428 172.271 91.5313 172.65 90.808C173.029 90.0847 173.638 89.3703 174.45 89.2909C174.908 89.2468 175.384 89.4144 175.817 89.2644C176.584 89.0086 176.743 87.9943 176.672 87.1916C176.602 86.389 176.478 85.454 177.043 84.8719C177.563 84.3338 178.41 84.3691 179.16 84.2985C179.909 84.228 180.8 83.8399 180.809 83.0901C180.809 82.6932 180.562 82.3492 180.28 82.0758C179.001 80.8409 176.813 80.6734 175.367 81.7142C174.308 79.8883 172.094 78.7946 170.004 79.068C167.905 79.3415 166.053 80.9732 165.506 83.0108C163.971 82.1728 162.022 82.1287 160.452 82.9137C158.881 83.6899 157.735 85.2688 157.479 86.9976C155.935 86.9623 154.418 87.9237 153.783 89.335C153.148 90.7463 153.439 92.5103 154.489 93.6482C153.563 94.5214 152.901 95.8092 153.175 97.044C153.448 98.2877 154.948 99.2227 156.059 98.6141C155.812 99.6902 156.518 100.899 157.576 101.216C158.635 101.525 159.887 100.899 160.257 99.8577" fill="#263238"/>
<path d="M176.249 83.3635C176.249 83.3635 176.267 83.3988 176.275 83.4694C176.284 83.5399 176.311 83.6546 176.311 83.7957C176.319 84.0868 176.311 84.519 176.152 85.0482C175.993 85.5686 175.702 86.2037 175.173 86.777C174.652 87.3503 173.876 87.8796 172.897 88.0648L172.968 87.906C173.276 88.3735 173.373 88.9998 173.241 89.5819C173.126 90.1729 172.862 90.7374 172.571 91.2931C172.421 91.5665 172.306 91.8664 172.068 92.1398C171.839 92.4044 171.539 92.5897 171.204 92.722C170.551 92.9689 169.739 92.9425 169.122 92.4927L169.334 92.378C169.466 93.604 169.078 94.9447 168.178 95.9326C167.711 96.4795 167.067 96.894 166.379 97.044C165.691 97.2027 164.994 97.1586 164.35 97.0881L164.491 96.9822C164.35 97.8025 164.006 98.5523 163.521 99.1609C163.045 99.7695 162.33 100.228 161.581 100.228C160.099 100.272 158.882 99.3285 158.432 98.27L158.582 98.2965C157.973 98.8433 157.232 99.0639 156.606 99.0903C155.971 99.1256 155.424 98.9757 155.027 98.7992C154.621 98.614 154.357 98.3935 154.189 98.2347C154.03 98.0671 153.96 97.9701 153.96 97.9613C153.986 97.926 154.268 98.367 155.071 98.7022C155.468 98.861 155.997 98.9933 156.606 98.9404C157.206 98.8963 157.902 98.6758 158.467 98.1554L158.564 98.0671L158.617 98.1906C159.058 99.1697 160.213 100.052 161.581 99.9988C162.26 99.9988 162.886 99.5843 163.336 99.0109C163.786 98.4376 164.112 97.7143 164.244 96.947L164.262 96.8235H164.385C165.021 96.9029 165.691 96.947 166.326 96.797C166.97 96.6559 167.543 96.2854 167.993 95.765C168.84 94.8389 169.201 93.5776 169.087 92.4133L169.06 92.1222L169.298 92.2986C169.828 92.6867 170.551 92.722 171.142 92.4927C171.433 92.3868 171.706 92.2104 171.909 91.9899C172.103 91.7694 172.227 91.4695 172.386 91.196C172.677 90.6492 172.932 90.1023 173.047 89.5555C173.171 89.0086 173.091 88.4617 172.818 88.0383L172.738 87.906L172.888 87.8796C173.814 87.7208 174.564 87.2269 175.076 86.6888C175.605 86.142 175.896 85.5422 176.072 85.0394C176.399 84.0074 176.231 83.3812 176.275 83.3812L176.249 83.3635Z" fill="#455A64"/>
<path d="M178.348 113.318C180.051 113.221 181.762 113.335 183.438 113.653L183.464 113.688C183.552 114.844 183.517 116.149 182.705 116.978C182.097 117.596 181.135 117.798 180.306 117.551C179.477 117.304 178.851 116.758 178.516 115.964C178.181 115.17 178.269 114.156 178.339 113.318H178.348Z" fill="#FF9A6C"/>
<path d="M181.77 117.41C181.753 117.331 181.118 117.736 180.156 117.357C179.689 117.172 179.195 116.801 178.886 116.219C178.569 115.637 178.436 114.896 178.48 114.111C178.489 113.935 178.507 113.679 178.542 113.573C178.577 113.529 178.507 113.573 178.569 113.555H178.833C179.213 113.582 179.574 113.6 179.936 113.617C180.589 113.644 181.215 113.661 181.806 113.679C182.873 113.705 183.534 113.688 183.534 113.626C183.534 113.564 182.882 113.467 181.823 113.37C181.232 113.317 180.615 113.264 179.962 113.211C179.601 113.185 179.239 113.159 178.86 113.132C178.754 113.132 178.683 113.114 178.551 113.114C178.41 113.088 178.154 113.264 178.136 113.423C178.066 113.697 178.075 113.855 178.048 114.085C178.004 114.923 178.154 115.761 178.542 116.413C178.913 117.075 179.521 117.489 180.059 117.648C180.597 117.825 181.082 117.763 181.374 117.666C181.673 117.56 181.797 117.436 181.779 117.419L181.77 117.41Z" fill="#263238"/>
<path d="M146.842 144.974L113.448 154.8L102.457 140.387C102.528 142.081 88.8651 139.938 88.8651 139.938C98.6028 163.32 103.922 171.135 105.368 171.806C109.037 173.517 136.822 173.27 139.018 172.749C141.214 172.22 161.263 169.362 161.263 169.362L157.594 141.287L149.258 143.924C148.42 144.189 147.609 144.542 146.842 144.983V144.974Z" fill="#455A64"/>
<path d="M227.504 208.798C225.581 201.521 221.33 184.93 221.33 184.93L212.571 133.401L192.928 133.56L191.297 130.111C190.953 129.379 190.15 128.965 189.356 129.115L168.54 132.828C167.587 132.996 166.935 133.895 167.067 134.848L167.455 137.635L151.596 143.518L149.876 166.593L162.639 219.145L163.424 226.545C163.609 228.291 164.527 229.888 165.955 230.964L168.231 232.675L225.775 219.392L227.196 215.493C227.981 213.35 228.086 211.012 227.504 208.798Z" fill="#455A64"/>
<path d="M167.217 231.44L167.755 239.22L229.268 224.878L227.072 214.893L167.217 231.44Z" fill="#455A64"/>
<path d="M221.409 219.771C221.277 219.789 221.33 221.2 221.515 222.937C221.709 224.675 221.965 226.069 222.097 226.051C222.23 226.033 222.177 224.622 221.991 222.885C221.797 221.147 221.542 219.753 221.409 219.771Z" fill="#263238"/>
<path d="M211.628 222.038C211.495 222.064 211.654 223.493 211.98 225.231C212.307 226.968 212.668 228.353 212.801 228.335C212.933 228.309 212.774 226.88 212.448 225.142C212.122 223.405 211.76 222.02 211.628 222.038Z" fill="#263238"/>
<path d="M201.369 225.063C201.237 225.09 201.369 226.448 201.669 228.098C201.969 229.747 202.313 231.07 202.445 231.052C202.578 231.026 202.445 229.668 202.146 228.018C201.846 226.369 201.502 225.046 201.378 225.063H201.369Z" fill="#263238"/>
<path d="M188.562 228.053C188.43 228.08 188.606 229.615 188.959 231.484C189.303 233.354 189.691 234.854 189.823 234.827C189.956 234.801 189.779 233.266 189.427 231.396C189.083 229.526 188.694 228.027 188.562 228.053Z" fill="#263238"/>
<path d="M176.575 230.797C176.452 230.832 176.734 232.27 177.219 233.998C177.704 235.736 178.198 237.112 178.322 237.077C178.445 237.041 178.163 235.604 177.678 233.875C177.193 232.137 176.699 230.761 176.575 230.797Z" fill="#263238"/>
<path d="M212.563 133.41L214.785 133.454C217.484 133.507 220.13 134.248 222.459 135.615L241.864 146.941L237.154 118.839L252.466 115.708C252.466 115.708 261.463 152.25 261.436 158.045C261.383 169.724 252.404 173.746 243.416 170.985C240.735 170.165 208.664 155.567 208.664 155.567L212.563 133.419V133.41Z" fill="#455A64"/>
<path d="M220.898 188.3C221.03 188.282 219.61 177.336 217.722 163.849C215.844 150.363 214.212 139.443 214.08 139.461C213.947 139.479 215.367 150.425 217.255 163.92C219.134 177.406 220.765 188.326 220.898 188.308V188.3Z" fill="#263238"/>
<path d="M207.103 183.14C207.103 183.14 206.988 183.254 206.812 183.51C206.609 183.81 206.353 184.172 206.053 184.613C205.365 185.636 204.43 187.012 203.301 188.688C200.972 192.119 197.691 196.829 193.925 201.909C190.15 206.99 186.595 211.488 183.975 214.717C182.696 216.287 181.656 217.575 180.871 218.527L180.033 219.568C179.848 219.806 179.751 219.938 179.768 219.956C179.786 219.974 179.9 219.859 180.103 219.63C180.35 219.365 180.641 219.039 181.003 218.642C181.779 217.777 182.882 216.507 184.222 214.92C186.904 211.744 190.511 207.272 194.295 202.183C198.07 197.094 201.308 192.348 203.574 188.864C204.703 187.126 205.603 185.698 206.203 184.71C206.476 184.251 206.706 183.872 206.891 183.563C207.041 183.298 207.111 183.157 207.103 183.148V183.14Z" fill="#263238"/>
<path d="M200.373 170.641C200.373 170.641 200.09 171.021 199.667 171.753C199.2 172.564 198.591 173.596 197.868 174.849C196.351 177.46 194.234 181.058 191.799 184.975C189.365 188.891 187.08 192.384 185.404 194.897C184.611 196.097 183.94 197.103 183.429 197.879C182.961 198.584 182.723 198.99 182.75 199.008C182.776 199.025 183.067 198.664 183.579 197.985C184.09 197.314 184.814 196.318 185.678 195.083C187.424 192.613 189.762 189.138 192.196 185.221C194.631 181.296 196.712 177.671 198.159 175.007C198.882 173.676 199.455 172.591 199.826 171.841C200.205 171.082 200.399 170.659 200.373 170.641Z" fill="#263238"/>
<path d="M192.426 133.595C192.39 133.525 191.12 134.151 188.994 134.962C186.869 135.774 183.861 136.709 180.439 137.265C177.016 137.82 173.859 137.882 171.592 137.785C169.316 137.688 167.922 137.494 167.905 137.573C167.905 137.609 168.249 137.679 168.875 137.794C169.501 137.908 170.427 138.032 171.565 138.12C173.85 138.305 177.043 138.288 180.509 137.732C183.976 137.168 187.01 136.171 189.109 135.271C190.167 134.821 191.005 134.424 191.561 134.107C192.126 133.798 192.426 133.622 192.408 133.586L192.426 133.595Z" fill="#263238"/>
<g opacity="0.3">
<path d="M203.892 188.37C202.313 200.102 194.348 210.765 183.552 215.608L203.892 188.37Z" fill="black"/>
</g>
<path d="M147.944 156.299C147.812 156.334 149.373 163.17 151.428 171.567C153.483 179.973 155.247 186.756 155.38 186.729C155.503 186.694 153.951 179.858 151.896 171.461C149.841 163.064 148.076 156.273 147.944 156.308V156.299Z" fill="#263238"/>
<path d="M98.6205 130.976C98.6205 130.976 100.517 130.579 101.452 132.211C102.387 133.843 103.278 137.574 103.189 139.4C103.189 139.4 105.88 139.867 105.977 140.97C106.074 142.072 105.412 143.148 102.828 143.113C102.828 143.113 101.108 146.376 99.4319 145.221C97.7561 144.066 98.2853 142.716 98.2853 142.716C98.2853 142.716 96.7506 145.256 94.3779 141.993C94.3779 141.993 93.3282 142.813 92.1551 142.522C90.9996 142.24 90.5321 141.437 90.5321 141.437C90.5321 141.437 89.068 142.24 88.2124 141.199C87.3568 140.158 84.5431 135.827 84.0756 134.425C83.6081 133.022 84.0403 131.161 85.2311 130.412C86.4218 129.662 88.4153 130.359 88.4153 130.359C88.4153 130.359 90.2852 128.4 92.5697 129.962C92.5697 129.962 95.9214 126.989 98.6116 130.967L98.6205 130.976Z" fill="#FFBF9D"/>
<path d="M87.9213 134.266C87.7889 134.319 88.3535 135.933 89.1296 137.864C89.5177 138.835 89.8441 139.717 90.0558 140.361C90.2675 141.004 90.3557 141.419 90.4262 141.41C90.488 141.41 90.5144 140.969 90.3821 140.281C90.2498 139.593 89.9676 138.676 89.5795 137.697C88.7945 135.747 88.0359 134.23 87.9213 134.274V134.266Z" fill="#FF9A6C"/>
<path d="M91.6523 133.366C91.5288 133.401 91.9787 135.377 92.7019 137.776C93.4252 140.175 94.2455 142.045 94.369 141.992C94.4925 141.948 93.8662 140.025 93.1518 137.635C92.4285 135.244 91.7758 133.33 91.6435 133.366H91.6523Z" fill="#FF9A6C"/>
<path d="M96.5654 133.419C96.4331 133.472 97.1916 135.51 97.7826 138.103C98.0648 139.399 98.3383 140.599 98.3736 141.437C98.4177 142.293 98.1266 142.769 98.1972 142.804C98.2324 142.848 98.6646 142.381 98.7087 141.446C98.7528 140.52 98.5323 139.32 98.2501 137.997C97.6503 135.351 96.68 133.366 96.5654 133.419Z" fill="#FF9A6C"/>
<path d="M102.166 134.01C102.016 134.054 102.66 136.136 102.907 138.756C103.022 140.061 102.995 141.278 102.934 142.116C102.863 142.963 102.519 143.395 102.572 143.439C102.607 143.492 103.092 143.086 103.26 142.169C103.419 141.278 103.489 140.07 103.375 138.711C103.11 136.004 102.254 133.975 102.157 134.01H102.166Z" fill="#FF9A6C"/>
<path d="M103.967 261.665C103.967 261.665 98.601 256.248 97.0665 289.014C95.6169 319.94 93.489 364.523 100.915 383.657C101.721 385.726 103.145 387.506 105.035 388.667C106.57 389.617 108.706 390.566 111.47 390.999C117.938 392.008 143.498 391.44 143.498 391.44C143.498 391.44 158.003 391.44 158.224 379.495C158.402 369.669 158.224 348.297 158.224 348.297L103.959 261.665H103.967Z" fill="#263238"/>
<g opacity="0.3">
<path d="M103.967 261.665C103.967 261.665 98.601 256.248 97.0665 289.014C95.6169 319.94 93.489 364.523 100.915 383.657C101.721 385.726 103.145 387.506 105.035 388.667C106.57 389.617 108.706 390.566 111.47 390.999C117.938 392.008 143.498 391.44 143.498 391.44C143.498 391.44 158.003 391.44 158.224 379.495C158.402 369.669 158.224 348.297 158.224 348.297L103.959 261.665H103.967Z" fill="black"/>
</g>
<path d="M182.91 204.976C182.91 204.976 181.283 210.511 177.942 211.088C174.594 211.664 148.22 212.47 148.22 212.47L145.643 217.777H140.675L137.064 196.49L140.141 197.125C141.192 197.346 142.074 198.058 142.498 199.05C142.964 200.143 143.99 200.898 145.168 201.017L182.919 204.967L182.91 204.976Z" fill="#263238"/>
<path d="M181.8 205.798C183.758 205.645 185.191 203.874 184.911 201.924C184.046 195.845 180.859 184.028 169.117 182.281C158.724 180.73 151.179 181.205 147.194 181.722C145.372 181.959 144.465 183.612 144.253 185.443C143.252 193.802 144.058 204.17 146.474 205.442C148.992 206.773 173.229 206.485 181.8 205.807V205.798Z" fill="#F1BF37"/>
<path d="M166.065 182.332C166.065 182.332 166.328 182.612 166.735 183.172C167.142 183.723 167.702 184.553 168.363 185.596C169.685 187.682 171.355 190.666 172.847 194.125C174.339 197.583 175.374 200.847 175.984 203.238C176.289 204.433 176.51 205.408 176.637 206.086C176.764 206.765 176.823 207.138 176.79 207.146C176.756 207.146 176.645 206.79 176.467 206.12C176.298 205.459 176.026 204.493 175.687 203.314C175.001 200.957 173.933 197.736 172.449 194.294C170.957 190.861 169.346 187.868 168.1 185.757C167.481 184.698 166.956 183.85 166.591 183.265C166.226 182.68 166.04 182.349 166.065 182.332Z" fill="#263238"/>
<path d="M176.95 283.851C176.95 283.851 182.317 278.433 183.851 311.199C185.301 342.125 187.429 386.709 180.002 405.842C179.197 407.911 177.773 409.691 175.882 410.853C174.348 411.802 172.211 412.752 169.448 413.184C162.979 414.193 137.42 413.625 137.42 413.625C137.42 413.625 122.915 413.625 122.694 401.68C122.516 391.854 122.694 370.483 122.694 370.483L176.959 283.851H176.95Z" fill="#263238"/>
<path d="M176.95 283.85C176.95 283.85 176.874 283.994 176.704 284.274C176.526 284.562 176.281 284.969 175.95 285.512C175.272 286.605 174.288 288.208 173 290.285C170.406 294.456 166.625 300.526 161.852 308.189C152.281 323.508 138.742 345.177 122.855 370.592L122.889 370.482C122.889 379.791 122.889 389.557 122.898 399.67C122.898 400.934 122.847 402.214 123.059 403.443C123.245 404.681 123.635 405.893 124.254 406.987C125.483 409.199 127.611 410.827 129.976 411.819C134.766 413.964 140.226 413.328 145.55 413.523C151.162 413.574 156.714 413.59 162.182 413.438C164.904 413.336 167.642 413.294 170.253 412.811C171.559 412.548 172.83 412.141 174.026 411.598C175.221 411.047 176.374 410.386 177.306 409.487C178.247 408.597 179.01 407.529 179.545 406.359C179.824 405.783 179.994 405.147 180.206 404.536C180.409 403.918 180.613 403.307 180.816 402.688C181.037 402.078 181.189 401.451 181.342 400.823C181.494 400.196 181.647 399.569 181.8 398.95C182.139 397.712 182.342 396.449 182.571 395.194C183.071 392.702 183.342 390.193 183.681 387.734C183.834 386.496 183.927 385.267 184.046 384.038C184.156 382.817 184.292 381.596 184.36 380.384C185.046 370.686 185.14 361.428 185.08 352.781C185.004 344.126 184.758 336.072 184.478 328.713C184.19 321.363 183.893 314.708 183.614 308.867C183.3 303.035 182.834 298.016 182.181 293.955C181.52 289.912 180.723 286.758 179.578 284.918C179.29 284.469 178.985 284.096 178.654 283.859C178.324 283.613 177.985 283.528 177.713 283.545C177.162 283.604 176.959 283.876 176.959 283.85C176.959 283.85 177.001 283.791 177.12 283.715C177.239 283.638 177.434 283.528 177.713 283.503C177.993 283.477 178.358 283.562 178.697 283.799C179.036 284.037 179.358 284.41 179.655 284.868C180.833 286.724 181.664 289.878 182.351 293.922C183.029 297.991 183.52 303.009 183.86 308.85C184.165 314.692 184.487 321.346 184.792 328.696C185.089 336.055 185.36 344.117 185.445 352.773C185.521 361.428 185.445 370.694 184.767 380.409C184.707 381.622 184.572 382.842 184.461 384.072C184.343 385.301 184.25 386.539 184.097 387.776C183.766 390.252 183.487 392.761 182.986 395.271C182.766 396.525 182.554 397.797 182.215 399.043C182.062 399.67 181.91 400.298 181.757 400.934C181.613 401.569 181.452 402.197 181.232 402.816C181.028 403.434 180.825 404.053 180.613 404.681C180.401 405.299 180.231 405.935 179.934 406.546C179.375 407.766 178.578 408.877 177.595 409.81C176.611 410.751 175.416 411.437 174.195 411.997C172.966 412.565 171.66 412.972 170.329 413.243C167.642 413.735 164.912 413.777 162.182 413.879C156.706 414.031 151.153 414.014 145.533 413.964C142.854 413.921 140.192 413.879 137.547 413.845C134.876 413.777 132.231 413.251 129.79 412.226C127.365 411.208 125.144 409.521 123.864 407.198C123.22 406.054 122.821 404.782 122.626 403.502C122.414 402.214 122.474 400.934 122.465 399.67C122.465 389.557 122.465 379.782 122.474 370.474V370.414L122.508 370.364C138.445 344.973 152.035 323.33 161.648 308.028C166.455 300.398 170.27 294.345 172.89 290.191C174.195 288.131 175.204 286.546 175.891 285.461C176.23 284.935 176.493 284.528 176.671 284.249C176.849 283.977 176.942 283.842 176.942 283.842L176.95 283.85Z" fill="#455A64"/>
<path d="M181.927 255.62L170.05 247.821C167.354 235.69 145.329 210.52 145.329 210.52C145.329 210.52 122.406 155.238 102.628 142.199C82.8498 129.161 -13.7433 130.806 -13.7433 130.806L-18.8553 130.882C-18.8553 130.882 -121.213 129.169 -140.991 142.199C-160.769 155.238 -183.693 210.52 -183.693 210.52C-183.693 210.52 -205.717 235.69 -208.413 247.821L-220.29 255.62C-222.689 257.197 -224.097 259.91 -223.995 262.784C-223.274 283.257 -219.332 364.548 -212.465 373.67C-205.887 382.402 -143.738 377.773 -126.842 377.748C-102.605 377.705 -27.1378 376.714 -27.1378 376.714L83.7738 376.442C96.3545 375.094 165.548 383.555 174.085 373.67C181.545 365.032 184.894 283.257 185.615 262.784C185.716 259.91 184.309 257.197 181.91 255.62H181.927Z" fill="#F1BF37"/>
<path d="M97.2701 145.904C96.7699 145.031 95.8543 144.48 94.854 144.429L-17.448 139.614L-18.3297 139.58L-18.3466 139.656L-133.285 144.429C-134.294 144.472 -135.201 145.031 -135.701 145.904L-164.983 196.998C-165.975 198.719 -164.762 200.881 -162.779 200.932C-159.566 201.025 -154.793 201.076 -149.257 200.847C-140.254 200.474 -68.6185 200.644 -30.8087 200.771L-30.8256 200.847C-30.8256 200.847 -26.4427 200.83 -19.2198 200.805C-11.997 200.83 -7.61407 200.847 -7.61407 200.847L-7.63106 200.771C30.1788 200.652 101.814 200.483 110.817 200.847C116.65 201.085 121.618 201.025 124.831 200.924C126.594 200.864 127.662 198.948 126.789 197.414L97.2701 145.904Z" fill="#455A64"/>
<path d="M-154.081 191.225L116.014 190.496L118.201 195.862L-12.3021 196.719L-156.624 195.778L-154.081 191.225Z" fill="#F1BF37"/>
<g opacity="0.5">
<path d="M-154.081 191.225L115.243 190.496L118.201 195.862L-12.3021 196.719L-156.624 195.778L-154.081 191.225Z" fill="black"/>
</g>
<path d="M160.368 366.871C159.911 365.913 158.944 365.227 157.037 365.439C151.738 366.04 96.1934 367.278 88.5466 365.439C80.8914 363.599 55.391 334.657 44.5991 332.69C35.5451 331.037 -8.47881 330.155 -22.4328 330.553C-36.3954 330.147 -80.4192 331.037 -89.4648 332.69C-100.257 334.665 -125.376 366.43 -133.031 368.27C-140.686 370.11 -196.612 366.04 -201.911 365.439C-203.827 365.218 -204.793 365.905 -205.243 366.871C-206.184 368.863 -204.658 371.161 -202.445 371.229C-190.619 371.559 -144.933 372.085 -136.388 371.932C-127.419 371.771 -35.7087 370.093 -20.3389 369.813C2.83023 369.957 81.9935 370.466 90.3778 370.584C100.263 370.72 145.77 371.559 157.605 371.229C159.809 371.169 161.343 368.872 160.402 366.871H160.368Z" fill="#263238"/>
<path d="M-131.751 363.692C-131.751 363.692 -131.573 363.658 -131.284 363.472C-130.988 363.294 -130.572 363.006 -130.038 362.582C-128.978 361.751 -127.478 360.454 -125.579 358.724C-121.798 355.274 -116.44 350.154 -109.997 343.651C-108.387 342.024 -106.716 340.311 -104.987 338.497C-103.241 336.717 -101.596 334.682 -99.4851 332.961C-97.3742 331.266 -94.9072 329.85 -92.1944 328.867C-89.4816 327.875 -86.5399 327.29 -83.5049 327.061C-81.9874 326.951 -80.4445 326.951 -78.9016 326.934C-77.3502 326.917 -75.7819 326.9 -74.1966 326.891C-71.026 326.857 -67.796 326.832 -64.4983 326.798C-57.9112 326.739 -51.0953 326.671 -44.1098 326.603C-16.1678 326.374 9.1207 326.162 27.4491 326.01C36.5964 325.959 43.9973 325.908 49.1347 325.882C51.6864 325.882 53.6702 325.874 55.0266 325.874C55.6878 325.874 56.1965 325.874 56.561 325.874C56.9086 325.874 57.0866 325.891 57.0866 325.891C57.0866 325.891 56.9086 325.908 56.561 325.916C56.1965 325.925 55.6878 325.933 55.0266 325.95C53.6617 325.976 51.678 326.001 49.1347 326.044C43.9973 326.111 36.5964 326.196 27.4491 326.315C9.1207 326.501 -16.1678 326.756 -44.1098 327.035C-51.0953 327.095 -57.9112 327.163 -64.4983 327.222C-67.7876 327.247 -71.026 327.281 -74.1966 327.307C-75.7819 327.324 -77.3502 327.332 -78.9016 327.349C-80.453 327.366 -81.979 327.366 -83.4795 327.468C-86.4805 327.697 -89.3883 328.265 -92.0588 329.231C-94.7377 330.198 -97.1707 331.579 -99.2562 333.249C-101.333 334.928 -102.986 336.954 -104.75 338.734C-106.479 340.54 -108.166 342.244 -109.777 343.872C-116.245 350.357 -121.637 355.444 -125.46 358.86C-127.376 360.564 -128.894 361.844 -129.979 362.658C-130.513 363.065 -130.945 363.353 -131.25 363.514C-131.556 363.684 -131.742 363.692 -131.742 363.692H-131.751Z" fill="#263238"/>
<g opacity="0.3">
<path d="M-101.579 300.831C-51.9177 314.056 0.549835 310.733 51.6016 304.841C59.4857 303.934 68.0565 302.62 73.4313 296.787" fill="black"/>
</g>
<path d="M83.5025 255.043C64.1059 252.305 23.329 250.94 -17.1513 250.966C-57.6316 250.94 -98.417 252.305 -117.805 255.043C-123.884 255.9 -127.843 261.936 -126.105 267.828C-126.088 267.895 -126.062 267.963 -126.045 268.039C-123.926 275.008 -115.559 297.245 -102.24 300.576C-96.0603 302.119 -61.2345 303.603 -24.069 303.908V303.959C-21.7631 303.959 -19.4572 303.959 -17.1513 303.942C-14.8454 303.95 -12.5395 303.959 -10.2336 303.959V303.908C26.9234 303.611 61.7577 302.119 67.9378 300.576C81.2645 297.245 89.6233 275.008 91.7427 268.039C91.7597 267.972 91.7851 267.904 91.802 267.828C93.5315 261.936 89.5809 255.9 83.5025 255.043Z" fill="#263238"/>
<path d="M88.4111 297.627C88.4111 297.627 88.2415 297.728 87.9024 297.906C87.5463 298.093 87.0377 298.347 86.3849 298.695C85.7067 299.042 84.8844 299.458 83.901 299.958C83.4093 300.204 82.8837 300.483 82.3072 300.746C81.7307 301.001 81.1119 301.28 80.4591 301.569C75.2793 303.985 67.5224 306.977 57.6376 309.605C47.7358 312.165 35.7146 314.353 22.2354 315.497C8.76454 316.743 -6.11353 317.015 -21.7037 316.955C-37.3024 316.879 -52.1805 316.175 -65.6004 314.395C-79.0119 312.657 -90.9229 309.851 -100.621 306.596C-110.336 303.383 -117.831 299.78 -122.858 297.058C-124.129 296.397 -125.215 295.744 -126.172 295.193C-127.13 294.651 -127.919 294.159 -128.555 293.761C-129.182 293.362 -129.665 293.066 -130.004 292.854C-130.326 292.65 -130.488 292.531 -130.488 292.531C-130.488 292.531 -130.31 292.625 -129.979 292.82C-129.631 293.023 -129.148 293.311 -128.504 293.693C-127.86 294.083 -127.063 294.558 -126.096 295.092C-125.138 295.626 -124.045 296.27 -122.765 296.914C-117.72 299.585 -110.226 303.137 -100.511 306.307C-90.8211 309.512 -78.9271 312.284 -65.5326 313.997C-52.1381 315.751 -37.277 316.447 -21.6868 316.514C-6.10506 316.582 8.76454 316.319 22.2099 315.099C35.6638 313.971 47.6765 311.826 57.5697 309.309C67.4546 306.723 75.203 303.781 80.3998 301.416C81.0525 301.136 81.6714 300.865 82.2563 300.619C82.8328 300.365 83.3584 300.085 83.8501 299.848C84.8335 299.364 85.6728 298.957 86.351 298.627C87.0207 298.305 87.5294 298.059 87.8939 297.881C88.2415 297.711 88.428 297.643 88.428 297.643L88.4111 297.627Z" fill="#263238"/>
<path d="M90.8017 265.87C90.8017 265.988 42.3779 266.09 -17.3548 266.09C-77.0876 266.09 -125.52 265.988 -125.52 265.87C-125.52 265.751 -77.1045 265.649 -17.3548 265.649C42.3949 265.649 90.8017 265.751 90.8017 265.87Z" fill="#455A64"/>
<path d="M90.8017 259.282C90.8017 259.401 42.3779 259.503 -17.3548 259.503C-77.0876 259.503 -125.52 259.401 -125.52 259.282C-125.52 259.163 -77.1045 259.062 -17.3548 259.062C42.3949 259.062 90.8017 259.163 90.8017 259.282Z" fill="#455A64"/>
<path d="M60.1893 252.696C60.1893 252.815 25.5247 252.916 -17.2275 252.916C-59.9798 252.916 -94.653 252.815 -94.653 252.696C-94.653 252.577 -59.9967 252.476 -17.2275 252.476C25.5416 252.476 60.1893 252.577 60.1893 252.696Z" fill="#455A64"/>
<path d="M90.8017 272.55C90.8017 272.668 42.3779 272.77 -17.3548 272.77C-77.0876 272.77 -125.52 272.668 -125.52 272.55C-125.52 272.431 -77.1045 272.329 -17.3548 272.329C42.3949 272.329 90.8017 272.431 90.8017 272.55Z" fill="#455A64"/>
<path d="M85.995 279.23C85.995 279.349 39.4957 279.451 -17.8549 279.451C-75.2055 279.451 -121.713 279.349 -121.713 279.23C-121.713 279.111 -75.2224 279.01 -17.8549 279.01C39.5126 279.01 85.995 279.111 85.995 279.23Z" fill="#455A64"/>
<path d="M83.8927 285.911C83.8927 286.029 38.648 286.131 -17.1512 286.131C-72.9504 286.131 -118.203 286.029 -118.203 285.911C-118.203 285.792 -72.9673 285.69 -17.1512 285.69C38.665 285.69 83.8927 285.792 83.8927 285.911Z" fill="#455A64"/>
<path d="M78.6703 292.591C78.6703 292.71 35.757 292.811 -17.1598 292.811C-70.0766 292.811 -112.998 292.71 -112.998 292.591C-112.998 292.472 -70.0936 292.371 -17.1598 292.371C35.774 292.371 78.6703 292.472 78.6703 292.591Z" fill="#455A64"/>
<path d="M72.1766 299.263C72.1766 299.382 32.4169 299.484 -16.6172 299.484C-65.6513 299.484 -105.419 299.382 -105.419 299.263C-105.419 299.144 -65.6682 299.043 -16.6172 299.043C32.4339 299.043 72.1766 299.144 72.1766 299.263Z" fill="#455A64"/>
<path d="M80.5015 360.276C80.5015 360.395 35.0619 360.496 -20.9747 360.496C-77.0112 360.496 -122.459 360.395 -122.459 360.276C-122.459 360.157 -77.0282 360.055 -20.9747 360.055C35.0788 360.055 80.5015 360.157 80.5015 360.276Z" fill="#455A64"/>
<path d="M33.6207 367.669H27.6695L27.2456 360.276H34.07L33.6207 367.669Z" fill="#455A64"/>
<path d="M77.3563 357.597C66.5898 348.322 52.0847 334.055 44.6245 332.69C35.5705 331.037 -8.45341 330.155 -22.4074 330.553C-36.37 330.147 -80.3938 331.037 -89.4394 332.69C-96.3825 333.961 -109.26 347.568 -119.594 357.597H77.3732H77.3563Z" fill="#455A64"/>
<path d="M72.4818 354.249C72.4818 354.367 30.3569 354.469 -21.602 354.469C-73.5608 354.469 -115.694 354.367 -115.694 354.249C-115.694 354.13 -73.5778 354.028 -21.602 354.028C30.3738 354.028 72.4818 354.13 72.4818 354.249Z" fill="#263238"/>
<path d="M68.794 349.993C68.794 350.111 28.4748 350.213 -21.2375 350.213C-70.9498 350.213 -111.277 350.111 -111.277 349.993C-111.277 349.874 -70.9667 349.772 -21.2375 349.772C28.4918 349.772 68.794 349.874 68.794 349.993Z" fill="#263238"/>
<path d="M63.1905 345.634C63.1905 345.753 25.0585 345.855 -21.9665 345.855C-68.9914 345.855 -107.132 345.753 -107.132 345.634C-107.132 345.516 -69.0083 345.414 -21.9665 345.414C25.0754 345.414 63.1905 345.516 63.1905 345.634Z" fill="#263238"/>
<path d="M59.4518 341.278C59.4518 341.396 23.134 341.498 -21.6613 341.498C-66.4567 341.498 -102.783 341.396 -102.783 341.278C-102.783 341.159 -66.4736 341.057 -21.6613 341.057C23.1509 341.057 59.4518 341.159 59.4518 341.278Z" fill="#263238"/>
<path d="M53.2291 337.124C53.2291 337.242 19.5564 337.344 -21.9751 337.344C-63.5066 337.344 -97.1879 337.242 -97.1879 337.124C-97.1879 337.005 -63.5235 336.903 -21.9751 336.903C19.5733 336.903 53.2291 337.005 53.2291 337.124Z" fill="#263238"/>
<path d="M46.1759 332.978C46.1759 333.097 15.7501 333.199 -21.7631 333.199C-59.2762 333.199 -89.7106 333.097 -89.7106 332.978C-89.7106 332.86 -59.2931 332.758 -21.7631 332.758C15.767 332.758 46.1759 332.86 46.1759 332.978Z" fill="#263238"/>
<g opacity="0.3">
<path d="M-7.61404 200.847L-165.195 200.601C-165.195 200.601 -158.667 208.4 -146.663 208.333C-135.71 208.273 -29.1216 208.324 -10.4117 208.333C-10.4117 208.333 -9.95386 208.333 -9.10611 208.333C-8.1312 208.333 -7.61404 208.333 -7.61404 208.333C9.65469 208.324 101.382 208.273 110.86 208.333C121.329 208.4 126.467 200.847 126.467 200.847H-7.61404Z" fill="black"/>
</g>
<path d="M127.026 197.491L97.2108 145.803C96.7445 144.998 95.8968 144.48 94.9642 144.438L-7.61404 140.038L-17.4565 139.614C-18.6349 139.563 -19.8132 139.563 -20.9916 139.614L-30.834 140.038L-133.412 144.438C-134.345 144.48 -135.193 144.989 -135.659 145.803L-165.474 197.491C-166.432 199.152 -165.423 201.263 -163.516 201.551C-163.092 201.611 -162.643 201.678 -162.16 201.729C-159.557 202.018 -55.4952 201.831 -19.2283 201.755C17.0471 201.831 121.109 202.018 123.703 201.729C124.178 201.678 124.636 201.619 125.06 201.551C126.958 201.263 127.976 199.161 127.018 197.491H127.026ZM113.301 195.32L-19.2198 196.219L-151.741 195.32C-153.835 195.303 -155.132 193.04 -154.081 191.234C-148.367 181.349 -134.014 156.612 -131.717 153.755C-127.546 148.575 -63.0317 147.888 -28.7146 147.897C-28.5112 147.948 -28.2993 147.973 -28.0788 147.973C-26.0697 147.956 -23.0347 147.939 -19.2198 147.922C-15.4049 147.939 -12.37 147.956 -10.3608 147.973C-10.1404 147.973 -9.92842 147.948 -9.72496 147.897C24.5921 147.897 89.1147 148.575 93.2772 153.755C95.5746 156.612 109.927 181.349 115.641 191.234C116.684 193.04 115.387 195.303 113.301 195.32Z" fill="#263238"/>
<path d="M14.4277 192.454C14.4277 189.504 15.5637 181.171 18.2934 178.95C20.4043 177.237 25.3976 176.72 27.8646 176.576C27.9409 176.576 28.0172 176.576 28.102 176.576C29.4075 176.593 38.1393 176.822 40.7504 178.95C43.4802 181.171 44.6247 189.504 44.6162 192.454V192.539C44.6162 194.37 43.1326 195.854 41.293 195.854H17.7424C15.9112 195.854 14.4192 194.37 14.4192 192.539V192.454H14.4277Z" fill="#263238"/>
<g opacity="0.3">
<path d="M14.4277 192.454C14.4277 189.504 15.5637 181.171 18.2934 178.95C20.4043 177.237 25.3976 176.72 27.8646 176.576C27.9409 176.576 28.0172 176.576 28.102 176.576C29.4075 176.593 38.1393 176.822 40.7504 178.95C43.4802 181.171 44.6247 189.504 44.6162 192.454V192.539C44.6162 194.37 43.1326 195.854 41.293 195.854H17.7424C15.9112 195.854 14.4192 194.37 14.4192 192.539V192.454H14.4277Z" fill="black"/>
</g>
<path d="M26.3215 190.284C26.3215 185.461 28.1781 171.82 32.6543 168.183C36.1131 165.377 44.2854 164.538 48.3207 164.301C48.4479 164.301 48.5751 164.292 48.7022 164.301C50.8386 164.326 65.1317 164.708 69.4129 168.192C73.889 171.829 75.7456 185.478 75.7456 190.293V190.437C75.7456 193.438 73.3125 195.871 70.3115 195.871H31.7556C28.7546 195.871 26.3215 193.438 26.3215 190.437V190.293V190.284Z" fill="#263238"/>
<g opacity="0.3">
<path d="M73.55 331.333C73.55 331.333 72.9142 335.191 81.9427 347.949C84.6979 351.849 93.4552 359.708 96.7276 362.599C97.5245 363.302 98.5587 363.667 99.6269 363.624C108.715 363.226 152.535 361.2 159.809 359.063C163.098 358.097 165.574 356.969 167.422 355.884C170.626 353.994 172.5 350.476 172.364 346.763C172.135 340.464 171.745 329.384 171.745 326.484C171.745 322.364 168.88 318.897 163.539 319.55C160.021 319.973 73.55 331.342 73.55 331.342V331.333ZM101.806 330.452L158.597 325.297L160.241 348.195L118.439 354.969L101.814 330.46L101.806 330.452Z" fill="black"/>
</g>
<g opacity="0.3">
<path d="M170.44 272.551C170.44 272.551 174.721 285.555 147.508 291.608C119.956 297.737 79.1875 308.843 79.1875 308.843L101.085 293.236C101.085 293.236 164.073 282.732 165.641 273.093C167.439 262.072 165.641 249.687 165.641 249.687L170.44 272.551Z" fill="black"/>
</g>
<path d="M64.1399 330.943C64.1399 330.943 64.2332 330.901 64.4282 330.842C64.6401 330.782 64.9199 330.697 65.2759 330.596C66.0559 330.384 67.1579 330.07 68.5567 329.68C71.4221 328.926 75.5677 327.849 80.7305 326.662C91.0477 324.263 105.4 321.389 121.338 318.795C129.315 317.506 136.92 316.32 143.871 315.438C147.339 314.98 150.636 314.539 153.722 314.124C156.799 313.708 159.69 313.302 162.361 313.395C165.014 313.471 167.473 314.124 169.177 315.412C170.906 316.65 172.084 318.091 172.856 319.363C173.636 320.635 174.009 321.745 174.178 322.508C174.356 323.271 174.356 323.687 174.356 323.687C174.272 323.72 174.289 321.966 172.712 319.456C171.932 318.219 170.745 316.811 169.033 315.616C167.346 314.37 164.963 313.759 162.344 313.708C159.716 313.641 156.833 314.056 153.756 314.488C150.67 314.912 147.381 315.362 143.914 315.836C136.979 316.735 129.375 317.93 121.397 319.227C105.459 321.821 91.107 324.644 80.7814 326.967C75.6185 328.112 71.4561 329.146 68.5822 329.841C67.1664 330.197 66.0559 330.477 65.2759 330.672C64.9114 330.757 64.6316 330.825 64.4112 330.876C64.2162 330.918 64.1145 330.935 64.1145 330.935L64.1399 330.943Z" fill="#263238"/>
<path d="M173.899 297.322C173.899 297.322 173.865 297.152 173.856 296.838C173.848 296.474 173.831 296.016 173.814 295.448C173.78 294.185 173.737 292.455 173.678 290.345C173.551 286.038 173.263 280.095 172.686 273.542C172.101 266.989 171.33 261.089 170.702 256.824C170.389 254.739 170.126 253.035 169.931 251.78C169.846 251.221 169.778 250.771 169.728 250.407C169.685 250.093 169.668 249.924 169.685 249.924C169.702 249.924 169.745 250.085 169.812 250.39C169.889 250.746 169.982 251.195 170.101 251.746C170.338 252.925 170.652 254.646 171.008 256.773C171.72 261.029 172.534 266.938 173.119 273.5C173.695 280.061 173.932 286.021 173.983 290.336C174.009 292.489 174 294.236 173.983 295.448C173.966 296.007 173.949 296.474 173.941 296.838C173.924 297.152 173.915 297.322 173.899 297.322Z" fill="#263238"/>
<path d="M154.977 238.742C154.892 238.742 154.875 237.266 154.434 234.918C154.002 232.578 153.162 229.391 152.069 225.915C150.975 222.439 149.848 219.336 149.034 217.098C148.644 216.047 148.322 215.157 148.059 214.445C147.83 213.818 147.72 213.462 147.745 213.453C147.771 213.445 147.94 213.775 148.22 214.377C148.491 214.987 148.881 215.878 149.322 216.988C150.221 219.209 151.391 222.304 152.484 225.788C153.586 229.272 154.383 232.494 154.739 234.867C154.849 235.452 154.875 236.003 154.934 236.478C154.994 236.953 155.011 237.36 155.011 237.699C155.011 238.369 155.011 238.742 154.977 238.742Z" fill="#263238"/>
<path d="M149.839 244.676C149.839 244.676 164.022 239.505 165.837 250.5C167.651 261.496 167.464 272.44 165.082 276.281C162.7 280.129 140.802 285.369 140.802 285.369L102.933 293.693C102.933 293.693 100.212 294.261 101.848 291.176C103.688 287.725 113.717 265.599 119.515 260.224C130.214 250.297 149.839 244.668 149.839 244.668V244.676Z" fill="#F5F5F5"/>
<g opacity="0.3">
<path d="M135.86 286.462C135.86 286.462 135.801 260.546 137.699 257.672C139.598 254.798 161.92 244.464 161.92 244.464C161.92 244.464 159.75 242.616 155.29 243.464C150.831 244.311 143.413 246.329 137.259 249.491C131.095 252.653 121.236 257.18 117.557 262.419C115.955 264.691 112.606 270.134 109.41 276.034C105.256 283.707 101.322 291.913 101.322 292.362C101.322 293.303 101.102 294.159 104.781 293.379C113.31 291.557 135.86 286.479 135.86 286.479V286.462Z" fill="black"/>
</g>
<path d="M123.517 284.122C128.592 284.122 132.706 280.008 132.706 274.933C132.706 269.857 128.592 265.743 123.517 265.743C118.441 265.743 114.327 269.857 114.327 274.933C114.327 280.008 118.441 284.122 123.517 284.122Z" fill="#F5F5F5"/>
<path d="M114.335 274.933C114.335 274.933 114.225 274.11 114.539 272.669C114.853 271.253 115.751 269.151 117.871 267.506C118.922 266.701 120.253 266.014 121.796 265.726C123.33 265.455 125.068 265.489 126.721 266.107C127.552 266.396 128.366 266.828 129.103 267.379C129.849 267.922 130.536 268.591 131.096 269.371C132.257 270.906 132.91 272.889 132.927 274.924C132.91 276.967 132.248 278.942 131.096 280.485C130.536 281.265 129.849 281.935 129.103 282.478C128.366 283.029 127.56 283.461 126.721 283.749C125.06 284.368 123.33 284.41 121.796 284.131C120.253 283.842 118.922 283.156 117.871 282.35C115.751 280.706 114.853 278.603 114.539 277.188C114.225 275.746 114.335 274.924 114.335 274.924C114.395 274.924 114.335 275.746 114.708 277.145C115.064 278.519 115.989 280.545 118.057 282.105C119.083 282.868 120.371 283.512 121.855 283.775C123.33 284.02 124.992 283.97 126.577 283.368C127.374 283.088 128.145 282.673 128.849 282.138C129.561 281.621 130.214 280.977 130.739 280.231C131.842 278.764 132.46 276.874 132.477 274.933C132.46 272.991 131.842 271.101 130.739 269.634C130.205 268.888 129.561 268.244 128.849 267.727C128.145 267.201 127.374 266.777 126.577 266.497C124.992 265.895 123.33 265.845 121.855 266.09C120.371 266.345 119.083 266.998 118.057 267.761C115.989 269.32 115.064 271.338 114.708 272.72C114.344 274.119 114.395 274.949 114.335 274.941V274.933Z" fill="#263238"/>
<path d="M123.517 274.534C120.143 274.534 117.209 276.407 115.692 279.162C114.988 277.882 114.59 276.424 114.59 274.864C114.59 269.93 118.591 265.929 123.525 265.929C128.459 265.929 132.46 269.93 132.46 274.864C132.46 276.424 132.062 277.891 131.358 279.162C129.841 276.399 126.908 274.534 123.534 274.534H123.517Z" fill="#E0E0E0"/>
<path d="M119.558 274.627C119.558 276.814 121.33 278.586 123.517 278.586C125.704 278.586 127.476 276.814 127.476 274.627C127.476 272.44 125.704 270.668 123.517 270.668C121.33 270.668 119.558 272.44 119.558 274.627Z" fill="white"/>
<path d="M119.558 274.627C119.558 274.627 119.532 274.542 119.524 274.373C119.515 274.203 119.524 273.957 119.6 273.644C119.719 273.025 120.1 272.092 121.033 271.363C121.923 270.626 123.449 270.185 124.941 270.727C126.424 271.219 127.722 272.787 127.705 274.636C127.722 276.484 126.424 278.06 124.941 278.544C123.449 279.078 121.923 278.637 121.033 277.908C120.109 277.17 119.727 276.246 119.609 275.627C119.541 275.314 119.524 275.059 119.532 274.898C119.532 274.729 119.549 274.644 119.566 274.644C119.609 274.644 119.6 275 119.77 275.593C119.939 276.178 120.338 277.026 121.219 277.67C122.067 278.323 123.457 278.679 124.797 278.179C126.128 277.713 127.272 276.306 127.255 274.652C127.272 272.999 126.128 271.592 124.797 271.126C123.457 270.626 122.067 270.982 121.219 271.626C120.338 272.27 119.939 273.118 119.77 273.703C119.6 274.296 119.609 274.652 119.566 274.652L119.558 274.627Z" fill="#263238"/>
<path d="M120.058 268.413C119.905 268.175 120.507 267.387 121.965 266.844C123.381 266.302 125.712 266.141 127.908 267.302C130.095 268.472 131.265 270.498 131.604 271.973C131.96 273.482 131.647 274.432 131.367 274.432C131.045 274.449 130.782 273.627 130.146 272.541C129.527 271.456 128.451 270.1 126.865 269.252C125.28 268.413 123.55 268.277 122.304 268.37C121.05 268.447 120.219 268.693 120.058 268.413Z" fill="white"/>
<path d="M117.752 269.871C117.252 269.524 117.006 269.007 117.26 268.761C117.514 268.515 118.023 268.769 118.354 269.286C118.684 269.795 118.879 270.261 118.795 270.346C118.71 270.422 118.252 270.219 117.743 269.871H117.752Z" fill="white"/>
<path d="M-198.808 366.871C-198.35 365.913 -197.384 365.227 -195.476 365.439C-190.178 366.04 -134.633 367.278 -126.986 365.439C-119.331 363.599 -93.8306 334.657 -83.0387 332.69C-73.9847 331.037 -29.9608 330.155 -16.0068 330.553C-2.04428 330.147 41.9796 331.037 51.0251 332.69C61.817 334.665 86.936 366.43 94.5912 368.27C102.246 370.11 158.173 366.04 163.471 365.439C165.387 365.218 166.354 365.905 166.803 366.871C167.744 368.863 166.218 371.161 164.005 371.229C152.179 371.559 106.494 372.085 97.9483 371.932C88.9791 371.771 -2.73094 370.093 -18.1007 369.813C-41.2698 369.957 -120.433 370.466 -128.817 370.584C-138.702 370.72 -184.21 371.559 -196.044 371.229C-198.248 371.169 -199.783 368.872 -198.842 366.871H-198.808Z" fill="#263238"/>
<path d="M-3.27354 154.001C-2.37492 154.001 -1.53566 154.425 -1.01006 155.154C0.52438 157.248 3.59325 161.58 3.67802 162.936C3.78823 164.742 2.77094 166.217 0.905876 166.446C-0.865929 166.658 -34.81 166.471 -38.3282 166.446C-38.5486 166.446 -38.7605 166.42 -38.9725 166.361C-39.8965 166.132 -42.3042 165.369 -42.1261 163.724C-41.9566 162.224 -39.3455 157.672 -37.9721 155.366C-37.4635 154.518 -36.5564 154.001 -35.5645 154.001H-3.27354Z" fill="#263238"/>
<path d="M100.551 141.267C100.551 141.267 100.602 141.326 100.678 141.445C100.763 141.589 100.873 141.767 101 141.988C101.297 142.496 101.704 143.2 102.213 144.09C103.272 145.964 104.773 148.617 106.612 151.872C110.309 158.493 115.378 167.59 120.99 177.644C125.526 185.85 129.705 193.412 133.037 199.448L132.994 199.397C136.996 202.551 140.294 205.154 142.616 206.985C143.736 207.883 144.617 208.587 145.253 209.096C145.533 209.325 145.762 209.511 145.931 209.655C146.084 209.782 146.16 209.859 146.152 209.859C146.152 209.859 146.058 209.808 145.897 209.698L145.185 209.172C144.541 208.68 143.634 208.002 142.489 207.137C140.141 205.332 136.818 202.78 132.766 199.669L132.74 199.643L132.723 199.609C129.366 193.59 125.161 186.037 120.6 177.848C115.039 167.776 110.003 158.654 106.341 152.016C104.544 148.727 103.094 146.048 102.06 144.158C101.577 143.251 101.195 142.53 100.915 142.013C100.797 141.784 100.704 141.598 100.627 141.453C100.568 141.326 100.534 141.258 100.542 141.25L100.551 141.267Z" fill="#263238"/>
<path d="M84.9014 136.494C84.9183 136.443 85.7661 136.604 87.1055 137.019C88.4365 137.452 90.2761 138.164 92.014 139.461C93.7434 140.766 94.9473 142.335 95.7357 143.488C96.5156 144.658 96.9056 145.429 96.8547 145.454C96.7954 145.488 96.3121 144.776 95.4813 143.666C94.6421 142.572 93.4298 141.072 91.7512 139.808C90.0642 138.554 88.2924 137.808 87.0038 137.308C85.7067 136.816 84.8844 136.553 84.9014 136.485V136.494Z" fill="#263238"/>
<path d="M93.3112 363.692C93.3112 363.692 93.1247 363.692 92.8195 363.514C92.5143 363.345 92.082 363.065 91.5479 362.658C90.4628 361.853 88.9453 360.564 87.0293 358.86C83.206 355.444 77.8142 350.357 71.3459 343.872C69.7267 342.253 68.0481 340.54 66.3187 338.734C64.5638 336.954 62.9022 334.928 60.8252 333.249C58.7398 331.579 56.3067 330.198 53.6278 329.231C50.9489 328.256 48.0496 327.688 45.0486 327.468C43.548 327.358 42.0221 327.358 40.4707 327.349C38.9193 327.332 37.3509 327.324 35.7656 327.307C32.595 327.281 29.3651 327.247 26.0673 327.222C19.4803 327.163 12.6643 327.103 5.67884 327.035C-22.2631 326.756 -47.5517 326.501 -65.8801 326.315C-75.0274 326.205 -82.4283 326.111 -87.5657 326.044C-90.1089 326.001 -92.0927 325.967 -93.4575 325.95C-94.1188 325.933 -94.6274 325.925 -94.992 325.916C-95.3396 325.908 -95.5176 325.891 -95.5176 325.891C-95.5176 325.891 -95.3396 325.874 -94.992 325.874C-94.6274 325.874 -94.1188 325.874 -93.4575 325.874C-92.0927 325.874 -90.1089 325.874 -87.5657 325.882C-82.4283 325.916 -75.0274 325.959 -65.8801 326.01C-47.5517 326.162 -22.2631 326.366 5.67884 326.603C12.6643 326.671 19.4803 326.73 26.0673 326.798C29.3566 326.832 32.595 326.857 35.7656 326.891C37.3509 326.908 38.9193 326.925 40.4707 326.934C42.0136 326.951 43.5565 326.951 45.074 327.061C48.1089 327.298 51.0422 327.875 53.7635 328.867C56.4763 329.85 58.9433 331.266 61.0542 332.961C63.1651 334.682 64.8182 336.717 66.5561 338.497C68.277 340.303 69.9556 342.024 71.5663 343.651C78.0092 350.154 83.3586 355.283 87.148 358.724C89.0385 360.445 90.539 361.751 91.6072 362.582C92.1328 362.997 92.5567 363.294 92.8534 363.472C93.1501 363.658 93.3282 363.675 93.3197 363.692H93.3112Z" fill="#263238"/>
<g opacity="0.3">
<path d="M138.98 313.141C141.599 310.547 144.244 307.936 147.355 305.969C150.467 304.002 154.943 301.696 157.766 303.527C159.199 305.087 160.352 306.893 161.174 308.834C161.454 309.496 161.691 310.276 161.377 310.92C160.979 311.725 159.953 311.929 159.063 312.039C152.578 312.853 146.092 313.667 139.599 314.489C139.226 314.54 138.751 314.54 138.573 314.209C138.378 313.853 138.691 313.429 138.98 313.141Z" fill="white"/>
</g>
<path d="M143.947 368.482L143.93 368.542C143.515 369.983 144.6 371.585 146.101 371.551L160.19 371.314C161.292 371.288 162.208 370.195 162.344 369.101L162.437 368.321C162.606 366.931 161.318 365.659 159.928 365.761L145.948 366.787C145.016 366.855 144.193 367.575 143.939 368.482H143.947Z" fill="white"/>
<path d="M-118.941 360.276C-118.941 360.157 -73.5015 360.055 -17.465 360.055C38.5716 360.055 84.0197 360.157 84.0197 360.276C84.0197 360.395 38.5885 360.496 -17.465 360.496C-73.5185 360.496 -118.941 360.395 -118.941 360.276Z" fill="#455A64"/>
<path d="M39.2753 367.669H45.235L45.6504 360.276H38.8345L39.2753 367.669Z" fill="#455A64"/>
<path d="M-115.804 357.597C-105.038 348.322 -90.5328 334.055 -83.0725 332.69C-74.0185 331.037 -29.9946 330.155 -16.0406 330.553C-2.07808 330.147 41.9458 331.037 50.9913 332.69C57.9345 333.961 70.8118 347.568 81.146 357.597H-115.804Z" fill="#455A64"/>
<path d="M170.703 352.74C170.703 352.74 170.516 352.629 170.185 352.375L168.736 351.265C167.447 350.256 165.625 348.831 163.344 347.051L163.454 347.085C156.477 347.975 145.957 349.332 134.198 350.832C128.476 351.544 123.042 352.214 118.201 352.816L118.269 352.791C112.386 355.953 107.409 358.632 103.857 360.539C102.119 361.455 100.729 362.192 99.7456 362.709C99.2878 362.947 98.9233 363.125 98.6435 363.269C98.3892 363.396 98.262 363.455 98.2535 363.447C98.2535 363.438 98.3722 363.362 98.6096 363.218C98.8809 363.065 99.2369 362.853 99.6778 362.599C100.653 362.056 102.026 361.285 103.738 360.327C107.274 358.386 112.225 355.656 118.074 352.443L118.108 352.426H118.15C122.991 351.807 128.417 351.12 134.147 350.391C145.914 348.95 156.435 347.653 163.42 346.797H163.48L163.522 346.831C165.769 348.653 167.566 350.12 168.838 351.146C169.431 351.638 169.897 352.028 170.245 352.316C170.558 352.587 170.72 352.731 170.711 352.74H170.703Z" fill="#263238"/>
<path d="M98.2535 336.555C98.2535 336.555 95.3711 331.689 98.2535 330.46C101.56 329.053 156.765 322.432 159.012 322.228C163.488 321.83 165.116 323.856 166.167 329.112C167.218 334.368 169.533 347.407 165.116 351.196C160.699 354.986 153.756 356.664 140.09 357.503C126.416 358.343 119.227 358.809 112.496 355.02C105.765 351.23 98.2619 336.547 98.2619 336.547L98.2535 336.555Z" fill="#263238"/>
<path d="M101.085 293.236C100.949 293.176 101.458 291.633 102.56 288.912C103.662 286.191 105.349 282.291 107.664 277.569C108.842 275.221 110.13 272.644 111.673 269.948C113.216 267.26 114.92 264.403 117.074 261.589C118.159 260.207 119.422 258.766 120.846 257.57C122.27 256.35 123.856 255.248 125.517 254.273C127.179 253.298 128.874 252.416 130.595 251.492C132.316 250.577 134.071 249.652 135.885 248.762C139.497 246.982 143.151 245.422 146.821 244.286C148.652 243.718 150.492 243.26 152.298 242.896C154.095 242.523 155.96 242.26 157.825 242.345C159.682 242.438 161.589 242.955 163.107 244.091C164.616 245.236 165.557 246.838 166.125 248.364C166.71 249.898 167.015 251.399 167.286 252.823C167.549 254.222 167.803 255.57 168.049 256.85C169.066 261.987 169.829 266.167 170.253 269.075C170.677 271.982 170.77 273.61 170.626 273.635C170.474 273.661 170.092 272.084 169.405 269.236C168.719 266.362 167.735 262.25 166.523 257.181C166.218 255.909 165.921 254.544 165.616 253.162C165.302 251.789 164.972 250.373 164.421 249.042C163.887 247.711 163.09 246.49 161.954 245.66C160.809 244.837 159.317 244.439 157.732 244.379C156.13 244.329 154.451 244.574 152.713 244.964C150.975 245.329 149.22 245.795 147.457 246.346C143.93 247.465 140.395 248.991 136.843 250.738C135.063 251.611 133.325 252.518 131.613 253.425C129.9 254.341 128.188 255.214 126.602 256.138C125.009 257.053 123.542 258.054 122.194 259.181C120.829 260.3 119.736 261.53 118.659 262.852C116.556 265.497 114.819 268.269 113.233 270.88C111.648 273.491 110.283 276.001 109.028 278.29C106.561 282.884 104.662 286.665 103.323 289.268C101.992 291.871 101.212 293.303 101.068 293.236H101.085Z" fill="#263238"/>
<path d="M150.899 265.446C146.601 265.446 142.862 267.828 140.929 271.346C140.031 269.719 139.522 267.854 139.522 265.87C139.522 259.588 144.617 254.493 150.899 254.493C157.181 254.493 162.276 259.588 162.276 265.87C162.276 267.854 161.767 269.719 160.869 271.346C158.936 267.828 155.197 265.446 150.899 265.446Z" fill="#E0E0E0"/>
<path d="M145.99 265.497C145.99 268.201 148.186 270.397 150.89 270.397C153.595 270.397 155.791 268.201 155.791 265.497C155.791 262.792 153.595 260.597 150.89 260.597C148.186 260.597 145.99 262.792 145.99 265.497Z" fill="white"/>
<path d="M145.99 265.497C145.99 265.497 145.965 265.387 145.965 265.183C145.965 264.98 145.982 264.666 146.067 264.284C146.228 263.522 146.694 262.377 147.839 261.478C148.941 260.58 150.806 260.046 152.637 260.707C153.535 261.021 154.4 261.631 155.019 262.479C155.655 263.318 156.011 264.395 156.019 265.505C156.011 266.616 155.655 267.692 155.019 268.532C154.4 269.379 153.535 269.99 152.637 270.304C150.806 270.965 148.941 270.431 147.839 269.532C146.694 268.633 146.228 267.489 146.067 266.726C145.982 266.336 145.957 266.031 145.965 265.827C145.965 265.624 145.982 265.514 145.99 265.514C146.033 265.514 146.024 265.955 146.228 266.692C146.431 267.421 146.931 268.472 148.025 269.286C149.085 270.1 150.823 270.558 152.501 269.931C154.163 269.354 155.604 267.582 155.579 265.514C155.596 263.445 154.163 261.673 152.501 261.097C150.823 260.47 149.085 260.919 148.025 261.741C146.931 262.555 146.431 263.615 146.228 264.335C146.024 265.073 146.033 265.514 145.99 265.514V265.497Z" fill="#263238"/>
<path d="M139.522 265.87C139.522 265.87 139.505 265.624 139.522 265.141C139.522 264.904 139.531 264.607 139.59 264.26C139.633 263.912 139.675 263.514 139.802 263.073C140.192 261.326 141.311 258.732 143.931 256.706C145.228 255.714 146.872 254.866 148.771 254.519C150.662 254.18 152.807 254.231 154.85 254.994C155.875 255.35 156.876 255.884 157.783 256.562C158.707 257.232 159.546 258.054 160.241 259.02C161.674 260.911 162.479 263.361 162.505 265.87C162.488 268.388 161.674 270.83 160.241 272.72C159.546 273.678 158.707 274.509 157.783 275.179C156.867 275.857 155.875 276.391 154.85 276.747C152.807 277.518 150.662 277.561 148.771 277.222C146.864 276.874 145.219 276.026 143.931 275.034C141.311 273.008 140.2 270.414 139.802 268.668C139.675 268.227 139.633 267.829 139.59 267.481C139.531 267.133 139.522 266.837 139.522 266.599C139.514 266.125 139.522 265.87 139.522 265.87C139.59 265.87 139.522 266.888 139.963 268.625C140.404 270.329 141.54 272.847 144.109 274.789C145.38 275.738 146.983 276.544 148.831 276.866C150.662 277.179 152.73 277.12 154.706 276.365C155.697 276.018 156.655 275.501 157.529 274.84C158.419 274.195 159.224 273.39 159.885 272.466C161.259 270.635 162.03 268.286 162.056 265.87C162.03 263.454 161.259 261.106 159.885 259.275C159.224 258.351 158.419 257.545 157.529 256.901C156.647 256.24 155.697 255.723 154.706 255.375C152.739 254.621 150.67 254.561 148.831 254.875C146.983 255.197 145.38 256.002 144.109 256.952C141.54 258.893 140.395 261.403 139.963 263.115C139.522 264.853 139.59 265.879 139.522 265.87Z" fill="#263238"/>
<path d="M146.601 257.799C146.448 257.57 147.228 256.655 149 256.036C150.729 255.417 153.552 255.256 156.189 256.655C158.817 258.07 160.267 260.495 160.716 262.275C161.191 264.098 160.869 265.251 160.597 265.251C160.267 265.268 160.012 264.234 159.266 262.843C158.537 261.453 157.189 259.69 155.163 258.604C153.129 257.528 150.916 257.392 149.356 257.562C147.779 257.714 146.779 258.087 146.609 257.799H146.601Z" fill="white"/>
<path d="M143.753 259.605C143.252 259.258 143.032 258.707 143.329 258.418C143.625 258.13 144.176 258.367 144.507 258.876C144.838 259.385 144.99 259.876 144.872 260.004C144.744 260.122 144.261 259.953 143.761 259.605H143.753Z" fill="white"/>
<path d="M79.1874 308.842C79.0348 308.249 94.0062 303.959 112.623 299.254C131.24 294.549 146.457 291.217 146.601 291.811C146.753 292.404 131.782 296.694 113.157 301.399C94.5403 306.104 79.3316 309.435 79.179 308.842H79.1874Z" fill="#263238"/>
<path d="M168.871 246.583C168.871 246.583 168.846 246.498 168.812 246.329C168.778 246.159 168.727 245.905 168.642 245.583C168.464 244.938 168.168 243.98 167.532 242.87C166.896 241.776 165.87 240.538 164.319 239.623C163.937 239.385 163.497 239.216 163.064 239.012C162.598 238.877 162.14 238.682 161.64 238.589C161.14 238.504 160.623 238.36 160.089 238.351C159.555 238.317 158.995 238.334 158.435 238.385C156.163 238.58 153.713 239.157 151.111 239.869C148.508 240.581 145.77 241.462 142.905 242.454C137.191 244.464 130.951 246.871 124.61 249.821C123.822 250.194 123.042 250.576 122.287 250.983C121.533 251.381 120.855 251.881 120.185 252.407C118.862 253.458 117.667 254.637 116.641 255.908C114.708 258.545 112.936 261.232 111.241 263.733C107.858 268.769 104.942 273.397 102.56 277.322C100.186 281.256 98.3466 284.478 97.092 286.716C96.4731 287.818 95.9899 288.682 95.6423 289.293C95.4812 289.573 95.3541 289.784 95.2608 289.962C95.176 290.115 95.1252 290.183 95.1167 290.183C95.1167 290.183 95.1421 290.098 95.2184 289.946C95.3032 289.767 95.4219 289.539 95.566 289.259C95.8712 288.657 96.329 287.767 96.9394 286.639C98.1517 284.376 99.9489 281.12 102.289 277.161C104.637 273.211 107.528 268.565 110.902 263.513C112.606 260.986 114.335 258.341 116.302 255.645C117.345 254.34 118.566 253.145 119.905 252.068C120.583 251.542 121.287 251.017 122.067 250.601C122.838 250.186 123.618 249.804 124.415 249.423C130.782 246.464 137.03 244.074 142.769 242.073C145.643 241.089 148.398 240.216 151.018 239.513C153.629 238.817 156.104 238.258 158.41 238.071C158.986 238.021 159.554 238.012 160.114 238.054C160.674 238.071 161.191 238.224 161.708 238.317C162.225 238.419 162.691 238.622 163.166 238.767C163.607 238.987 164.056 239.165 164.446 239.411C166.031 240.377 167.066 241.657 167.684 242.785C168.303 243.929 168.583 244.904 168.727 245.566C168.804 245.896 168.837 246.151 168.854 246.329C168.871 246.498 168.871 246.591 168.863 246.591L168.871 246.583Z" fill="#263238"/>
<g opacity="0.3">
<path d="M172.398 251.382C173.237 251.662 177.841 254.527 179.791 255.621C181.74 256.714 183.444 258.435 184.012 260.597C184.572 262.75 183.953 265.022 183.343 267.158C181.333 274.152 179.002 286.725 176.993 293.71C175.425 281.028 173.712 259.427 172.398 251.373" fill="white"/>
</g>
<path d="M109.266 351.993C109.249 351.874 122.33 349.958 138.488 347.729C154.646 345.491 167.752 343.778 167.769 343.897C167.786 344.016 154.706 345.932 138.547 348.161C122.398 350.399 109.283 352.112 109.266 351.993Z" fill="#455A64"/>
<path d="M113.437 355.197C113.437 355.197 113.623 355.138 113.979 355.079C114.378 355.011 114.895 354.926 115.539 354.824C116.896 354.612 118.862 354.324 121.295 353.985C126.162 353.307 132.884 352.468 140.328 351.586C147.737 350.704 154.451 349.899 159.368 349.314C161.767 349.026 163.726 348.788 165.141 348.619C165.786 348.551 166.311 348.492 166.71 348.449C167.066 348.415 167.261 348.407 167.261 348.415C167.261 348.432 167.074 348.475 166.718 348.534C166.32 348.602 165.803 348.687 165.158 348.788C163.802 349 161.835 349.289 159.402 349.628C154.536 350.306 147.813 351.145 140.37 352.027C132.961 352.909 126.255 353.714 121.329 354.299C118.93 354.587 116.972 354.824 115.556 354.994C114.912 355.062 114.386 355.121 113.988 355.164C113.632 355.197 113.437 355.206 113.437 355.197Z" fill="#455A64"/>
<path d="M122.601 357.597C122.558 357.597 123.118 357.512 124.076 357.393C125.11 357.258 126.492 357.088 128.171 356.876C131.697 356.452 136.445 355.884 141.692 355.249C146.94 354.655 151.696 354.121 155.222 353.714C156.901 353.545 158.291 353.401 159.326 353.299C160.292 353.214 160.835 353.172 160.835 353.206C160.835 353.239 160.309 353.333 159.343 353.468C158.308 353.612 156.926 353.799 155.256 354.028C151.798 354.477 147.025 355.071 141.743 355.689C136.462 356.308 131.68 356.834 128.213 357.19C124.754 357.538 122.567 357.716 122.609 357.605L122.601 357.597Z" fill="#455A64"/>
<path d="M106.205 348.348C106.189 348.229 119.956 346.313 136.954 344.084C153.959 341.846 167.752 340.133 167.761 340.252C167.778 340.371 154.01 342.287 137.004 344.516C120.007 346.754 106.214 348.467 106.197 348.348H106.205Z" fill="#455A64"/>
<path d="M103.815 344.957C103.798 344.838 118.057 342.863 135.648 340.549C153.247 338.234 167.532 336.454 167.549 336.573C167.566 336.691 153.315 338.667 135.707 340.981C118.108 343.295 103.832 345.076 103.815 344.949V344.957Z" fill="#455A64"/>
<path d="M101.127 340.956C101.11 340.837 115.768 338.811 133.859 336.429C151.959 334.047 166.642 332.216 166.65 332.343C166.667 332.462 152.01 334.488 133.91 336.87C115.819 339.252 101.136 341.083 101.119 340.956H101.127Z" fill="#455A64"/>
<path d="M99.0674 336.869C99.0504 336.751 113.971 334.691 132.384 332.266C150.806 329.841 165.743 327.976 165.76 328.104C165.777 328.222 150.865 330.282 132.443 332.707C114.03 335.131 99.0844 336.996 99.0674 336.869Z" fill="#455A64"/>
<path d="M96.9818 332.784C96.9649 332.665 112.004 330.588 130.57 328.146C149.136 325.705 164.2 323.823 164.217 323.942C164.234 324.06 149.195 326.137 130.629 328.579C112.063 331.02 96.9988 332.902 96.9818 332.784Z" fill="#455A64"/>
<path d="M145.601 323.458C145.719 323.432 147.372 330.732 149.297 339.76C151.221 348.789 152.679 356.13 152.561 356.156C152.442 356.181 150.789 348.882 148.864 339.853C146.94 330.825 145.482 323.483 145.601 323.458Z" fill="#455A64"/>
<path d="M151.153 322.534C151.272 322.508 152.925 329.807 154.85 338.836C156.774 347.865 158.232 355.206 158.114 355.232C157.995 355.257 156.342 347.958 154.417 338.929C152.493 329.901 151.035 322.559 151.153 322.534Z" fill="#455A64"/>
<path d="M156.698 321.61C156.816 321.584 158.385 328.493 160.207 337.03C162.03 345.576 163.403 352.519 163.285 352.544C163.166 352.57 161.598 345.669 159.775 337.124C157.961 328.587 156.579 321.635 156.698 321.61Z" fill="#455A64"/>
<path d="M162.717 322.873C162.717 322.873 162.844 323.187 162.997 323.772C163.149 324.357 163.353 325.205 163.582 326.264C164.056 328.375 164.633 331.3 165.201 334.547C165.777 337.734 166.294 340.617 166.693 342.846C166.871 343.838 167.023 344.677 167.142 345.364C167.244 345.958 167.278 346.297 167.252 346.297C167.218 346.297 167.125 345.983 166.973 345.398C166.82 344.813 166.617 343.965 166.388 342.906C165.913 340.795 165.336 337.87 164.768 334.615C164.192 331.427 163.675 328.545 163.276 326.315C163.098 325.323 162.946 324.484 162.827 323.797C162.725 323.204 162.691 322.865 162.717 322.865V322.873Z" fill="#455A64"/>
<path d="M139.192 324.611C139.31 324.585 140.913 331.63 142.769 340.345C144.626 349.06 146.033 356.147 145.914 356.173C145.796 356.198 144.193 349.153 142.337 340.438C140.48 331.723 139.073 324.636 139.192 324.611Z" fill="#455A64"/>
<path d="M132.808 325.899C132.927 325.874 134.529 332.936 136.394 341.676C138.251 350.416 139.666 357.52 139.548 357.546C139.429 357.571 137.827 350.51 135.962 341.769C134.105 333.037 132.689 325.933 132.808 325.908V325.899Z" fill="#455A64"/>
<path d="M126.229 326.247C126.348 326.221 127.942 333.224 129.782 341.879C131.63 350.544 133.02 357.58 132.901 357.605C132.783 357.631 131.189 350.637 129.349 341.973C127.51 333.317 126.111 326.272 126.229 326.247Z" fill="#455A64"/>
<path d="M119.753 327.094C119.871 327.069 121.457 334.029 123.288 342.642C125.119 351.255 126.509 358.258 126.39 358.283C126.272 358.309 124.686 351.349 122.855 342.735C121.024 334.122 119.634 327.12 119.753 327.094Z" fill="#455A64"/>
<path d="M113.361 328.358C113.479 328.332 114.963 334.843 116.684 342.897C118.396 350.95 119.693 357.504 119.575 357.529C119.456 357.554 117.972 351.044 116.251 342.99C114.539 334.936 113.242 328.383 113.361 328.358Z" fill="#455A64"/>
<path d="M106.824 328.901C106.943 328.875 108.342 334.962 109.944 342.49C111.546 350.018 112.75 356.148 112.631 356.173C112.513 356.198 111.114 350.12 109.512 342.583C107.909 335.055 106.706 328.935 106.824 328.909V328.901Z" fill="#455A64"/>
<path d="M100.39 329.952C100.509 329.927 101.373 333.513 102.323 337.955C103.272 342.397 103.942 346.025 103.823 346.051C103.705 346.076 102.84 342.49 101.89 338.048C100.941 333.606 100.271 329.977 100.39 329.952Z" fill="#455A64"/>
<path d="M-110.93 354.249C-110.93 354.13 -68.8049 354.028 -16.8461 354.028C35.1128 354.028 77.2462 354.13 77.2462 354.249C77.2462 354.367 35.1298 354.469 -16.8461 354.469C-68.8219 354.469 -110.93 354.367 -110.93 354.249Z" fill="#263238"/>
<path d="M-107.234 349.993C-107.234 349.874 -66.9144 349.772 -17.2021 349.772C32.5102 349.772 72.8378 349.874 72.8378 349.993C72.8378 350.111 32.5271 350.213 -17.2021 350.213C-66.9314 350.213 -107.234 350.111 -107.234 349.993Z" fill="#263238"/>
<path d="M-101.63 345.634C-101.63 345.516 -63.4979 345.414 -16.473 345.414C30.552 345.414 68.6924 345.516 68.6924 345.634C68.6924 345.753 30.5689 345.855 -16.473 345.855C-63.5149 345.855 -101.63 345.753 -101.63 345.634Z" fill="#263238"/>
<path d="M-97.8999 341.278C-97.8999 341.159 -61.5821 341.057 -16.7868 341.057C28.0086 341.057 64.3349 341.159 64.3349 341.278C64.3349 341.396 28.0255 341.498 -16.7868 341.498C-61.5991 341.498 -97.8999 341.396 -97.8999 341.278Z" fill="#263238"/>
<path d="M-91.6688 337.124C-91.6688 337.005 -57.996 336.903 -16.4645 336.903C25.0669 336.903 58.7482 337.005 58.7482 337.124C58.7482 337.242 25.0839 337.344 -16.4645 337.344C-58.013 337.344 -91.6688 337.242 -91.6688 337.124Z" fill="#263238"/>
<path d="M-84.6156 332.978C-84.6156 332.86 -54.1897 332.758 -16.6766 332.758C20.8366 332.758 51.2709 332.86 51.2709 332.978C51.2709 333.097 20.8535 333.199 -16.6766 333.199C-54.2066 333.199 -84.6156 333.097 -84.6156 332.978Z" fill="#263238"/>
</svg>
