<svg width="375" height="428" viewBox="0 0 375 428" fill="none" xmlns="http://www.w3.org/2000/svg">
<path d="M397.248 22.7679C397.969 17.4729 390.512 13.133 384.898 12.6806C382.217 12.4628 379.452 12.8817 376.904 11.9936C371.408 10.0834 369.213 2.97869 363.867 0.733342C359.862 -0.959045 355.253 0.549023 351.365 2.50951C347.478 4.47 343.64 6.91642 339.3 7.20128C335.529 7.43587 331.424 6.04509 328.122 7.88829C325.659 9.2623 324.369 12.0941 322.106 13.7697C319.894 15.4119 316.995 15.747 314.247 15.8978C311.499 16.0486 308.65 16.0821 306.136 17.2215C303.622 18.361 301.561 21.0252 302.081 23.723L397.248 22.7846V22.7679Z" fill="#EBEBEB"/>
<path d="M358.196 100.267C359.453 91.1517 346.583 83.6449 336.913 82.8741C332.305 82.5055 327.512 83.2092 323.138 81.6844C313.67 78.3834 309.9 66.1513 300.649 62.2638C293.745 59.3482 285.802 61.9455 279.099 65.3135C272.412 68.6815 265.793 72.9208 258.302 73.4068C251.8 73.8257 244.729 71.4128 239.048 74.5965C234.808 76.9591 232.579 81.852 228.674 84.734C224.854 87.5491 219.86 88.1523 215.117 88.4037C210.375 88.655 205.465 88.7053 201.141 90.6825C196.818 92.6598 193.248 97.2343 194.137 101.893L358.179 100.267H358.196Z" fill="#F5F5F5"/>
<path d="M187.612 413.983H155.664L159.846 398.483H187.612V413.983Z" fill="#E0E0E0"/>
<path d="M187.612 413.983C187.612 413.983 187.551 413.56 187.531 412.837L187.431 409.7L187.23 398.483L187.612 398.865C180.132 398.905 170.461 398.945 159.845 399.005L160.348 398.623L159.725 400.915C158.458 405.559 157.252 410.022 156.126 414.143L155.643 413.52C164.812 413.56 172.733 413.661 178.403 413.762C181.137 413.822 183.369 413.862 185.098 413.902C186.667 413.942 187.551 413.983 187.591 414.023C187.632 414.063 186.827 414.103 185.319 414.143C183.631 414.184 181.419 414.224 178.745 414.284C173.095 414.385 165.033 414.485 155.643 414.525H155L155.161 413.902L158.699 400.674L159.323 398.382L159.423 398H159.825C170.441 398.06 180.112 398.101 187.591 398.141H187.994V398.523C187.933 403.388 187.853 407.328 187.772 409.982L187.672 413.018C187.652 413.701 187.612 414.043 187.591 414.023L187.612 413.983Z" fill="#263238"/>
<path d="M239.738 212.251H210.735C206.323 212.251 202.72 208.669 202.72 204.237C202.72 197.437 208.226 191.932 215.026 191.932H232.917C236.682 191.932 239.738 194.988 239.738 198.752V212.251Z" fill="#EF8D53"/>
<path d="M248.993 336H218.947C211.215 336 204.947 342.268 204.947 350V399.752C204.947 407.484 211.215 413.752 218.947 413.752H248.993C256.725 413.752 262.993 407.484 262.993 399.752V350C262.993 342.268 256.725 336 248.993 336Z" fill="#263238"/>
<path d="M210.857 230.485L227.736 216.946L254.432 143.646C258.399 134.519 266.09 122.781 283.758 121L467.693 122.619C478.116 122.72 487.406 129.257 490.988 139.052L514.891 204.5L521.449 219.374L537.033 230.262C543.003 234.451 546.566 241.271 546.566 248.577V353.569C546.566 353.569 545.796 372.875 525.719 372.875H225.226C225.226 372.875 205.918 373.644 202.822 351.242C200.373 333.473 201.81 271.931 202.518 247.261C202.7 240.705 205.756 234.573 210.857 230.485Z" fill="#EF8D53"/>
<g opacity="0.3">
<path d="M201.081 305.565C203.388 306.132 546.565 305.565 546.565 305.565V352.354C546.565 363.748 538.409 372.875 527.014 372.875H227.169C212.516 372.875 201.567 361.906 201.728 347.153L201.101 305.565H201.081Z" fill="black"/>
</g>
<path d="M212.982 238.174L279.569 246.229V285.267C279.569 285.267 205.878 283.183 201.466 273.388L202.457 247.16C202.66 241.655 207.517 237.507 212.982 238.174Z" fill="#ECECEC"/>
<path d="M212.982 238.175C212.982 238.175 211.949 238.033 210.087 238.397C208.306 238.782 205.453 239.996 203.753 243.194C202.862 244.772 202.639 246.715 202.639 248.921C202.579 251.127 202.498 253.515 202.417 256.065C202.255 261.185 202.052 267.013 201.85 273.408L201.81 273.226C202.943 275.068 205.473 276.08 207.821 276.909C210.249 277.719 212.86 278.366 215.532 278.933C220.915 280.026 226.684 280.856 232.735 281.544C244.818 282.92 257.974 283.831 271.716 284.458C274.347 284.559 276.958 284.66 279.549 284.761L279.002 285.288C279.002 271.405 279.043 258.23 279.043 246.25L279.468 246.735C259.876 244.287 243.26 242.222 231.46 240.745C225.651 239.996 221.057 239.389 217.799 238.964C216.281 238.741 215.066 238.58 214.176 238.458C213.366 238.337 212.941 238.256 212.941 238.236C212.941 238.215 213.366 238.236 214.196 238.316C215.087 238.397 216.301 238.519 217.839 238.681C221.098 239.045 225.712 239.551 231.521 240.199C243.341 241.575 259.957 243.517 279.589 245.804L280.014 245.845V246.27C280.014 258.25 280.034 271.425 280.055 285.308V285.854H279.508C276.918 285.733 274.307 285.632 271.655 285.53C257.893 284.903 244.717 283.972 232.594 282.556C226.542 281.847 220.754 280.977 215.329 279.864C212.617 279.277 210.006 278.629 207.517 277.78C206.282 277.355 205.068 276.849 203.935 276.241C202.822 275.594 201.708 274.865 201.04 273.611L201 273.53V273.428C201.283 267.033 201.526 261.225 201.749 256.085C201.87 253.535 201.971 251.147 202.073 248.941C202.073 246.776 202.356 244.61 203.328 243.012C205.149 239.693 208.165 238.539 210.006 238.215C211.929 237.932 212.941 238.215 212.941 238.215L212.982 238.175Z" fill="#263238"/>
<path d="M305.131 246.209C294.789 246.209 285.803 253.657 284.264 263.877C283.819 266.791 283.637 270.17 283.839 274.096C285.013 297.43 289.668 326.006 300.759 333.008H377.183V246.209H305.131Z" fill="#263238"/>
<path d="M440.532 246.209C450.874 246.209 459.861 253.657 461.399 263.877C461.844 266.791 462.026 270.17 461.824 274.096C460.65 297.43 455.995 326.006 444.904 333.008H368.48V246.209H440.532Z" fill="#263238"/>
<path d="M459.759 277.011H286.653C284.082 277.011 281.977 274.926 281.977 272.336C281.977 269.766 284.062 267.661 286.653 267.661H459.759C462.33 267.661 464.434 269.745 464.434 272.336C464.434 274.906 462.35 277.011 459.759 277.011Z" fill="#455A64"/>
<path d="M450.692 258.574H292.765C290.194 258.574 288.09 256.49 288.09 253.899C288.09 251.329 290.174 249.224 292.765 249.224H450.692C453.262 249.224 455.367 251.309 455.367 253.899C455.367 256.469 453.283 258.574 450.692 258.574Z" fill="#455A64"/>
<path d="M459.759 288.445H288.454C285.872 288.445 283.779 290.534 283.779 293.11C283.779 295.686 285.872 297.775 288.454 297.775H459.759C462.341 297.775 464.434 295.686 464.434 293.11C464.434 290.534 462.341 288.445 459.759 288.445Z" fill="#455A64"/>
<path d="M453.789 318.558H292.299C289.729 318.558 287.624 316.474 287.624 313.883C287.624 311.313 289.709 309.208 292.299 309.208H453.768C456.339 309.208 458.444 311.293 458.444 313.883C458.444 316.454 456.359 318.558 453.768 318.558H453.789Z" fill="#455A64"/>
<path d="M240.507 205.674C240.507 205.674 259.815 141.237 269.004 133.062H480.221C480.221 133.062 498.355 172.95 504.994 205.674H240.507Z" fill="#455A64"/>
<path d="M294.404 344.341V349.947C294.404 356.767 299.93 362.292 306.75 362.292H441.564C448.385 362.292 453.91 356.767 453.91 349.947V344.341H294.404Z" fill="#263238"/>
<path d="M274.023 328.778V353.326C274.023 353.326 224.68 360.288 217.455 328.778H274.023Z" fill="#263238"/>
<path d="M521.469 219.375C521.469 219.375 521.388 219.253 521.286 218.99C521.165 218.686 521.003 218.302 520.801 217.796C520.355 216.683 519.748 215.145 518.939 213.162C517.32 209.033 515.012 203.083 512.078 195.575C506.228 180.417 497.971 158.946 488.175 133.548L488.62 133.851C468.077 133.851 444.822 133.831 420.272 133.811C375.989 133.689 335.895 133.588 306.831 133.507C292.36 133.426 280.621 133.345 272.445 133.284L263.094 133.163C262.062 133.143 261.252 133.123 260.665 133.102C260.119 133.102 259.835 133.062 259.835 133.042C259.835 133.021 260.119 133.001 260.665 132.981C261.272 132.981 262.062 132.961 263.094 132.94C265.28 132.92 268.417 132.9 272.445 132.859C280.621 132.839 292.34 132.799 306.831 132.738C335.915 132.738 375.989 132.738 420.272 132.738C444.822 132.799 468.077 132.839 488.62 132.88H488.944L489.066 133.183C498.72 158.642 506.856 180.154 512.624 195.353C515.437 202.901 517.684 208.871 519.242 213.02C519.971 215.024 520.558 216.602 520.963 217.715C521.145 218.221 521.266 218.606 521.388 218.929C521.469 219.213 521.509 219.354 521.509 219.354L521.469 219.375Z" fill="#263238"/>
<path d="M504.994 205.674C504.994 205.957 445.774 206.24 372.751 206.281C299.707 206.321 240.487 206.139 240.487 205.836C240.487 205.552 299.687 205.269 372.751 205.228C445.774 205.188 504.994 205.37 504.994 205.674Z" fill="#263238"/>
<path d="M240.507 205.673C240.689 205.896 233.525 212.291 224.518 219.961C215.491 227.631 208.023 233.682 207.841 233.459C207.659 233.236 214.824 226.841 223.85 219.171C232.877 211.501 240.345 205.45 240.527 205.673H240.507Z" fill="#263238"/>
<path d="M242.956 175.155C243.239 175.256 240.041 184.687 235.832 196.222C231.622 207.758 227.999 217.026 227.716 216.945C227.432 216.844 230.63 207.414 234.84 195.878C239.05 184.343 242.673 175.074 242.936 175.175L242.956 175.155Z" fill="#263238"/>
<path d="M475.87 245.319C475.87 245.319 475.708 245.359 475.364 245.399C474.959 245.42 474.473 245.46 473.886 245.501C472.49 245.582 470.587 245.683 468.179 245.824C463.22 246.088 456.035 246.371 447.15 246.634C429.38 247.18 404.83 247.464 377.729 247.362C350.609 247.282 326.079 246.958 308.309 246.735C299.484 246.614 292.34 246.513 287.28 246.432C284.872 246.371 282.949 246.33 281.552 246.31C280.945 246.29 280.459 246.27 280.075 246.249C279.731 246.249 279.569 246.209 279.569 246.189C279.569 246.168 279.731 246.148 280.075 246.128L281.573 246.088C282.969 246.088 284.872 246.047 287.3 246.007C292.36 246.007 299.525 245.986 308.349 245.966C326.2 246.047 350.69 246.148 377.77 246.29C404.87 246.391 429.4 246.229 447.17 245.865C455.974 245.663 463.139 245.501 468.199 245.379C470.607 245.319 472.53 245.278 473.927 245.258C474.534 245.258 475.02 245.258 475.424 245.258C475.768 245.258 475.93 245.258 475.93 245.298L475.87 245.319Z" fill="#263238"/>
<path d="M342.958 133.062H399.628V136.279C399.628 141.258 395.58 145.305 390.602 145.305H351.985C347.006 145.305 342.958 141.258 342.958 136.279V133.062Z" fill="#263238"/>
<path d="M272.141 206.422C270.886 207.758 272.748 186.832 275.602 177.644C276.27 175.519 278.537 174.062 281.148 174.062H332.272C335.085 174.062 337.494 175.782 337.939 178.11C339.113 184.424 342.25 196.566 342.958 206.483L272.141 206.422Z" fill="#263238"/>
<path d="M323.245 151.153H291.449C287.783 151.153 284.811 154.125 284.811 157.791V164.631C284.811 168.297 287.783 171.269 291.449 171.269H323.245C326.912 171.269 329.884 168.297 329.884 164.631V157.791C329.884 154.125 326.912 151.153 323.245 151.153Z" fill="#263238"/>
<path d="M137.386 159.046H118.213V413.819H137.386V159.046Z" fill="#E0E0E0"/>
<path d="M137.386 413.819C137.386 413.819 137.363 413.344 137.34 412.485C137.34 411.581 137.318 410.292 137.295 408.641C137.295 405.227 137.25 400.276 137.205 393.899C137.16 381.102 137.115 362.584 137.025 339.657C136.957 293.804 136.867 230.201 136.777 159.024L137.363 159.612C131.28 159.612 124.769 159.612 118.19 159.612L118.776 159.024C118.776 275.263 118.618 374.568 118.393 413.797L118.19 413.593C124.431 413.638 129.185 413.684 132.429 413.706L136.101 413.751C136.935 413.751 137.363 413.797 137.363 413.797C137.363 413.797 136.98 413.819 136.169 413.842C135.313 413.842 134.119 413.864 132.542 413.887C129.275 413.91 124.454 413.955 118.168 414H117.965V413.797C117.74 374.545 117.582 275.241 117.582 159.024V158.436H118.19C124.746 158.436 131.258 158.436 137.363 158.436H137.949V159.024C137.859 230.359 137.769 294.12 137.701 340.087C137.633 362.969 137.566 381.419 137.521 394.193C137.476 400.502 137.453 405.408 137.431 408.8C137.431 410.428 137.408 411.671 137.386 412.576C137.386 413.412 137.34 413.819 137.34 413.819H137.386Z" fill="#263238"/>
<path d="M183.008 23H78.7861C66.754 23 57 32.7531 57 44.7842V148.997C57 161.028 66.754 170.781 78.7861 170.781H183.008C195.04 170.781 204.794 161.028 204.794 148.997V44.7842C204.794 32.7531 195.04 23 183.008 23Z" fill="#455A64"/>
<path d="M182.828 165.848H78.9438C69.6166 165.848 62.0466 158.256 62.0466 148.952V45.0776C62.0466 35.7512 69.6391 28.1819 78.9438 28.1819H182.828C192.155 28.1819 199.725 35.7737 199.725 45.0776V148.952C199.725 158.279 192.133 165.848 182.828 165.848ZM78.9438 30.4346C70.8782 30.4346 64.2996 37.0127 64.2996 45.0776V148.952C64.2996 157.017 70.8782 163.595 78.9438 163.595H182.828C190.916 163.595 197.472 157.017 197.472 148.952V45.0776C197.472 36.9902 190.893 30.4346 182.828 30.4346H78.9438Z" fill="white"/>
<path d="M152.683 62.4008C157.415 64.5184 161.064 67.5596 163.633 71.5245C166.201 75.4668 167.485 80.13 167.485 85.4691C167.485 90.8081 166.201 95.4488 163.633 99.3461C161.064 103.266 157.415 106.285 152.683 108.425C147.952 110.565 142.387 111.624 135.966 111.624H123.598V130.164H103.524V59.2019H135.966C142.387 59.2019 147.952 60.2607 152.683 62.4008ZM144.077 93.1059C146.172 91.3262 147.231 88.7581 147.231 85.4465C147.231 82.135 146.172 79.5668 144.077 77.7421C141.982 75.9174 138.873 74.9937 134.75 74.9937H123.598V95.7867H134.75C138.873 95.7867 141.982 94.8856 144.077 93.1059Z" fill="white"/>
<path d="M155.192 202.873L146.011 183.309L133.178 188.87L144.629 207.427L155.192 202.873Z" fill="#FFD0B7"/>
<path d="M154.246 201.652L163.56 208.782C164.079 209.199 163.704 212.678 163.704 212.678L162.715 223.174C162.715 223.174 160.503 224.472 159.801 221.811C159.658 221.265 159.618 218.812 159.532 218.277C159.186 216.237 159.211 214.513 159.211 214.513L158.935 217.666C158.935 217.666 158.716 218.514 156.952 220.044C154.776 221.926 152.562 220.45 153.596 219.364C154.623 218.267 156.291 216.389 156.291 216.389C156.291 216.389 153.506 218.093 152.772 216.34C152.772 216.34 150.701 216.872 149.949 215.393C149.197 213.915 149.31 212.527 149.31 212.527C149.31 212.527 144.676 209.941 144.069 208.055C143.469 206.181 142.369 202.911 142.369 202.911L154.265 201.656L154.246 201.652Z" fill="#FFD0B7"/>
<path d="M159.626 211.988L169.649 218.567C169.89 218.725 169.957 219.049 169.798 219.29L167.958 222.084C167.799 222.326 167.475 222.393 167.234 222.235L157.211 215.656C156.97 215.498 156.903 215.174 157.062 214.933L158.902 212.139C159.061 211.897 159.385 211.83 159.626 211.988Z" fill="#455A64"/>
<path d="M166.824 214.81C166.824 214.81 164.694 209.913 164.447 209.385C164.208 208.868 157.543 204.735 157.543 204.735C157.543 204.735 151.511 208.167 151.348 209.226C151.192 210.297 155.485 212.335 160.631 211.878L163.421 214.587C163.421 214.587 164.358 217.783 165.728 218.169C167.099 218.554 167.349 217.93 167.349 217.93L166.82 214.779L166.824 214.81Z" fill="#FFD0B7"/>
<path d="M152.969 206.344C152.866 206.313 152.567 207.215 153.069 208.561C153.306 209.227 153.749 209.955 154.403 210.628C155.112 211.412 156.236 211.647 157.227 211.804C158.603 212.021 159.915 212.067 160.844 212.33L160.696 212.23C162.234 213.753 163.328 214.697 163.451 214.583C163.575 214.47 162.693 213.322 161.274 211.704L161.229 211.635L161.126 211.604C160.001 211.19 158.711 211.13 157.385 210.913C156.406 210.748 155.51 210.561 154.997 210.027C154.388 209.473 153.951 208.855 153.671 208.299C153.09 207.185 153.129 206.338 152.992 206.329L152.969 206.344Z" fill="#FF9A6C"/>
<path d="M153.047 216.358C153.162 216.283 152.934 215.758 152.768 214.898C152.699 214.467 152.64 213.948 152.668 213.387C152.662 212.849 152.937 212.161 152.667 211.27C152.344 210.348 151.429 209.929 150.672 209.98C149.859 210.019 149.287 210.655 149.133 211.149C148.79 212.26 149.437 212.822 149.499 212.716C149.611 212.66 149.341 212.097 149.726 211.402C149.917 211.064 150.263 210.789 150.698 210.8C151.137 210.792 151.669 211.102 151.813 211.549C151.98 212.031 151.816 212.713 151.836 213.373C151.856 214.033 151.984 214.606 152.155 215.069C152.497 215.995 152.954 216.418 153.047 216.358Z" fill="#FF9A6C"/>
<path d="M155.725 216.151C155.839 216.175 156.07 215.597 156.217 214.614C156.291 214.123 156.335 213.536 156.315 212.876C156.291 212.235 156.235 211.369 155.609 210.661C155.303 210.319 154.897 210.076 154.424 210.007C153.952 209.938 153.469 210.106 153.157 210.359C152.53 210.884 152.362 211.584 152.289 212.076C152.198 213.07 152.181 213.623 152.28 213.674C152.417 213.732 152.687 213.113 152.917 212.207C153.047 211.777 153.27 211.287 153.666 211.011C154.031 210.74 154.55 210.828 154.946 211.259C155.328 211.666 155.439 212.315 155.502 212.915C155.56 213.533 155.581 214.094 155.592 214.563C155.62 215.513 155.614 216.108 155.748 216.136L155.725 216.151Z" fill="#FF9A6C"/>
<path d="M171.243 224.536C171.261 224.618 171.622 224.615 172.125 224.368C172.629 224.12 173.258 223.581 173.594 222.756C173.93 221.93 173.852 221.096 173.665 220.578C173.48 220.046 173.215 219.8 173.149 219.842C172.981 219.906 173.567 221.142 173 222.526C172.442 223.905 171.155 224.384 171.227 224.547L171.243 224.536Z" fill="#263238"/>
<path d="M173.487 228.184C173.486 228.255 174.244 228.307 175.349 227.853C176.434 227.424 177.859 226.318 178.532 224.597C178.885 223.761 179.04 222.855 178.948 222.053C178.856 221.251 178.581 220.58 178.316 220.067C177.754 219.047 177.359 218.478 177.297 218.507C177.204 218.544 177.471 219.221 177.91 220.25C178.111 220.771 178.318 221.393 178.36 222.1C178.401 222.807 178.253 223.579 177.936 224.346C177.324 225.91 176.114 226.934 175.147 227.438C174.175 227.968 173.461 228.073 173.482 228.176L173.487 228.184Z" fill="#263238"/>
<path d="M177.72 231.43C177.728 231.495 178.728 231.436 180.098 230.657C181.45 229.902 183.132 228.278 183.779 225.91C184.413 223.539 183.767 221.282 182.973 219.959C182.18 218.602 181.334 218.059 181.296 218.108C181.217 218.183 181.92 218.83 182.562 220.17C183.218 221.477 183.722 223.571 183.144 225.742C182.553 227.911 181.061 229.468 179.84 230.278C178.607 231.107 177.673 231.321 177.699 231.432L177.72 231.43Z" fill="#263238"/>
<path d="M49.2104 404.848L47.3905 412.499C47.3905 412.499 34.8768 428.762 31.0254 427.958C28.5001 427.435 31.6038 423.2 36.3582 410.847L37.3598 405.751L49.2104 404.848Z" fill="#EF8D53"/>
<path d="M30.5033 425.572C30.5033 425.572 30.5033 425.657 30.6021 425.798C30.6867 425.939 30.8419 426.137 31.124 426.292C31.3921 426.447 31.7871 426.56 32.2386 426.532C32.69 426.504 33.1838 426.32 33.6494 426.01C35.4269 424.654 37.6137 422.551 39.9556 420.123C42.2834 417.68 44.2162 415.323 45.5423 413.572C46.2054 412.697 46.7274 411.963 47.0801 411.469C47.2211 411.257 47.3481 411.073 47.4751 410.876C47.5597 410.735 47.6021 410.664 47.6021 410.664C47.6021 410.664 47.5456 410.721 47.4328 410.848L46.9954 411.412C46.5299 412.019 45.9938 412.697 45.4012 413.473C44.0328 415.196 42.0859 417.539 39.7722 419.967C37.4444 422.381 35.2577 424.513 33.5506 425.868C32.6618 426.518 31.6884 426.504 31.1664 426.207C30.6162 425.925 30.5174 425.544 30.5033 425.572Z" fill="#263238"/>
<path d="M32.281 420.348C32.281 420.348 32.6761 420.306 33.2968 420.405C33.9034 420.489 34.7358 420.758 35.5541 421.252C36.3723 421.746 36.9507 422.395 37.247 422.946C37.5433 423.496 37.6279 423.878 37.6702 423.864C37.6985 423.864 37.6702 423.454 37.4022 422.861C37.1483 422.268 36.5416 421.548 35.681 421.04C34.8487 420.518 33.9599 420.264 33.325 420.221C32.6761 420.179 32.281 420.32 32.2951 420.348H32.281Z" fill="#263238"/>
<path d="M44.1174 416.537C44.1174 416.537 43.9904 415.986 43.8917 415.097C43.7788 414.221 43.8917 412.951 44.5265 411.737C45.1332 410.523 46.1348 409.704 46.9108 409.323C47.7008 408.927 48.2792 408.871 48.2651 408.829C48.2651 408.814 48.1241 408.815 47.8701 408.843C47.6162 408.885 47.2494 408.97 46.8402 409.153C46.0079 409.52 44.9498 410.353 44.3008 411.61C43.6519 412.866 43.5531 414.207 43.7224 415.097C43.7929 415.548 43.8917 415.901 43.9763 416.141C44.061 416.381 44.1174 416.508 44.1315 416.508L44.1174 416.537Z" fill="#263238"/>
<path d="M48.4062 406.146C48.4062 406.146 47.9407 407.191 47.7149 408.546C47.4892 409.902 47.2353 410.975 47.2917 411.003C47.3622 411.031 47.729 409.958 47.9548 408.603C48.1946 407.248 48.4626 406.175 48.4062 406.161V406.146Z" fill="#263238"/>
<path d="M36.1326 411.935C36.1326 412.005 36.8521 411.991 37.6844 412.189C38.5168 412.372 39.1516 412.711 39.194 412.641C39.2363 412.584 38.6296 412.146 37.7409 411.949C36.8521 411.737 36.1184 411.878 36.1326 411.949V411.935Z" fill="#263238"/>
<path d="M35.8786 413.247C35.8786 413.318 36.4852 413.247 37.1765 413.431C37.8678 413.586 38.3757 413.911 38.418 413.854C38.4603 413.812 37.9948 413.374 37.2329 413.191C36.4852 413.007 35.8645 413.191 35.8786 413.247Z" fill="#263238"/>
<path d="M34.8769 414.899C34.8769 414.899 35.4977 414.772 36.2313 414.942C36.9649 415.097 37.4164 415.535 37.4728 415.478C37.5292 415.45 37.106 414.885 36.2877 414.702C35.4836 414.518 34.8487 414.843 34.891 414.899H34.8769Z" fill="#263238"/>
<path d="M36.993 411.384C36.993 411.384 37.1482 411.384 37.4162 411.342C37.6843 411.285 38.0652 411.2 38.5308 411.045C38.9963 410.89 39.5324 410.664 40.0826 410.353C40.3648 410.198 40.6469 410.015 40.9432 409.817C41.2113 409.605 41.564 409.337 41.564 408.857C41.5357 408.349 40.9714 408.151 40.6046 408.264C40.2237 408.363 39.9557 408.631 39.7299 408.843C39.2785 409.295 38.8835 409.718 38.5872 410.099C38.2768 410.48 38.0511 410.791 37.8959 411.017C37.7407 411.243 37.6702 411.37 37.6843 411.384C37.7125 411.412 38.0793 410.932 38.7142 410.212C39.0387 409.859 39.4337 409.436 39.8851 409.012C40.1108 408.8 40.3507 408.575 40.647 408.504C40.9291 408.433 41.2959 408.589 41.2959 408.885C41.2959 409.167 41.0279 409.45 40.7739 409.633C40.4918 409.831 40.2096 410.015 39.9416 410.17C39.3913 410.48 38.8835 410.72 38.432 410.904C37.5432 411.257 36.9507 411.37 36.9648 411.412L36.993 411.384Z" fill="#263238"/>
<path d="M37.656 411.229C37.656 411.229 37.6842 411.087 37.6701 410.847C37.6701 410.607 37.6419 410.24 37.5855 409.803C37.529 409.365 37.4303 408.843 37.1905 408.292C37.0635 408.024 36.9224 407.742 36.6967 407.488C36.4992 407.262 36.1041 406.951 35.695 407.177C35.3141 407.417 35.3141 407.869 35.3423 408.179C35.3987 408.504 35.4975 408.8 35.6104 409.083C35.8502 409.633 36.2029 410.043 36.4992 410.367C36.8095 410.692 37.0917 410.904 37.2892 411.045C37.4867 411.186 37.6137 411.243 37.6278 411.243C37.656 411.214 37.2046 410.904 36.6261 410.255C36.344 409.93 36.0336 409.52 35.8079 408.998C35.695 408.744 35.6104 408.447 35.568 408.165C35.5257 407.883 35.5681 407.53 35.7938 407.417C36.0195 407.29 36.3017 407.459 36.4992 407.685C36.6967 407.897 36.8378 408.165 36.9647 408.419C37.2046 408.927 37.3174 409.436 37.388 409.859C37.529 410.72 37.5855 411.257 37.6278 411.257L37.656 411.229Z" fill="#263238"/>
<g opacity="0.4">
<path d="M47.3904 412.513L48.2651 408.829C48.2651 408.829 45.2037 409.393 44.3996 411.694C43.6095 413.996 43.807 415.619 43.807 415.619L37.1481 422.805C37.1481 422.805 35.4693 419.53 32.4502 420.32C32.4502 420.32 30.066 425.558 30.1365 426.87C30.2212 428.31 31.7307 428.028 32.2809 427.774C32.5207 427.661 35.3987 426.009 38.2485 423.059C41.7755 419.388 45.6834 414.744 47.3904 412.499V412.513Z" fill="black"/>
</g>
<path d="M111.398 408.716L111.454 398.509L92.3383 398.283L92.0985 413.219L93.2835 413.304C98.5599 413.657 120.103 414.744 123.644 413.727C127.594 412.584 111.398 408.73 111.398 408.73V408.716Z" fill="#EF8D53"/>
<g opacity="0.4">
<path d="M99.0396 413.149C98.7857 411.553 97.911 410.057 96.6554 409.041C95.3857 408.024 93.8197 407.488 92.2114 407.601L92.1408 412.951L99.0537 413.163L99.0396 413.149Z" fill="black"/>
</g>
<g opacity="0.4">
<path d="M119.313 410.89C119.313 410.89 124.984 412.598 124.265 413.53C123.545 414.462 101.72 414.179 92.1127 413.219L92.155 412.796L117.606 413.332C117.606 413.332 118.212 410.918 119.327 410.89H119.313Z" fill="black"/>
</g>
<path d="M91.8447 412.768C91.8447 412.768 91.9576 412.796 92.1692 412.81C92.4514 412.824 92.7617 412.852 93.1144 412.881C94.0597 412.937 95.2165 412.993 96.585 413.078C99.5194 413.219 103.568 413.361 108.055 413.431C112.541 413.488 116.59 413.459 119.524 413.389C120.893 413.346 122.05 413.318 122.995 413.29C123.348 413.276 123.658 413.262 123.94 413.248C124.152 413.248 124.265 413.219 124.265 413.219C124.265 413.219 124.152 413.219 123.94 413.205C123.658 413.205 123.348 413.205 122.995 413.205C122.05 413.205 120.893 413.219 119.524 413.233C116.59 413.262 112.541 413.262 108.055 413.205C103.582 413.149 99.5335 413.022 96.5991 412.923C95.2306 412.881 94.0738 412.838 93.1285 412.796C92.7759 412.796 92.4655 412.782 92.1833 412.768C91.9717 412.768 91.8588 412.768 91.8588 412.768H91.8447Z" fill="#263238"/>
<path d="M117.577 413.629C117.577 413.629 117.718 412.81 118.24 411.977C118.762 411.13 119.482 410.72 119.44 410.664C119.44 410.608 118.607 410.96 118.043 411.85C117.479 412.739 117.507 413.643 117.563 413.629H117.577Z" fill="#263238"/>
<path d="M111.977 410.692C111.977 410.692 112.301 410.396 112.583 409.972C112.865 409.535 113.049 409.153 113.006 409.125C112.95 409.097 112.682 409.422 112.4 409.845C112.118 410.283 111.934 410.664 111.977 410.692Z" fill="#263238"/>
<path d="M110.439 409.859C110.439 409.859 110.792 409.704 111.116 409.422C111.455 409.125 111.68 408.857 111.638 408.801C111.596 408.758 111.285 408.956 110.961 409.238C110.622 409.535 110.396 409.803 110.439 409.859Z" fill="#263238"/>
<path d="M109.494 408.038C109.494 408.038 109.931 408.165 110.495 408.179C111.045 408.179 111.497 408.151 111.497 408.081C111.497 408.01 111.059 407.954 110.495 407.939C109.945 407.939 109.494 407.968 109.494 408.038Z" fill="#263238"/>
<path d="M109.169 406.768C109.169 406.768 109.635 407.05 110.284 407.107C110.933 407.163 111.44 407.022 111.44 406.965C111.44 406.895 110.918 406.923 110.312 406.867C109.691 406.81 109.197 406.697 109.183 406.754L109.169 406.768Z" fill="#263238"/>
<path d="M112.654 409.041C112.654 409.041 113.119 409.125 113.881 409.041C114.262 408.998 114.713 408.914 115.193 408.772C115.433 408.688 115.687 408.631 115.941 408.476C116.068 408.391 116.195 408.278 116.251 408.095C116.308 407.911 116.209 407.699 116.068 407.601C114.897 406.979 113.712 407.629 113.274 408.222C113.035 408.532 112.922 408.829 112.865 409.041C112.809 409.252 112.809 409.365 112.823 409.365C112.865 409.379 112.908 408.885 113.401 408.321C113.641 408.052 113.994 407.784 114.459 407.657C114.897 407.53 115.518 407.502 115.927 407.77C116.124 407.911 116.04 408.151 115.828 408.278C115.63 408.405 115.362 408.476 115.137 408.561C114.671 408.716 114.234 408.815 113.867 408.871C113.133 408.998 112.668 408.984 112.668 409.026L112.654 409.041Z" fill="#263238"/>
<path d="M112.964 409.097C112.964 409.097 113.162 408.801 113.119 408.25C113.091 407.982 112.992 407.657 112.795 407.347C112.583 407.078 112.301 406.697 111.779 406.711C111.497 406.74 111.356 407.064 111.398 407.276C111.412 407.488 111.511 407.671 111.596 407.827C111.779 408.137 111.977 408.391 112.16 408.575C112.541 408.956 112.837 409.097 112.851 409.083C112.879 409.055 112.611 408.857 112.273 408.462C112.104 408.264 111.934 408.01 111.765 407.714C111.596 407.445 111.497 406.98 111.793 406.937C112.104 406.909 112.414 407.22 112.597 407.474C112.781 407.742 112.894 408.024 112.936 408.278C113.021 408.787 112.908 409.097 112.936 409.111L112.964 409.097Z" fill="#263238"/>
<path d="M92.296 407.544C92.296 407.544 92.8462 407.502 93.7068 407.615C94.5673 407.728 95.7524 408.081 96.7682 408.928C97.7981 409.761 98.3906 410.862 98.6586 411.68C98.9408 412.499 98.9549 413.05 98.9972 413.05C98.9972 413.05 99.0254 412.909 98.9972 412.669C98.9831 412.415 98.9267 412.062 98.7997 411.638C98.5599 410.791 97.9674 409.633 96.8952 408.758C95.823 407.883 94.5815 407.53 93.7068 407.459C93.2694 407.417 92.9026 407.445 92.6487 407.459C92.4088 407.488 92.2678 407.53 92.2678 407.544H92.296Z" fill="#263238"/>
<path d="M94.384 399.61C94.384 399.61 94.2289 401.361 94.1724 403.535C94.116 405.709 94.1301 407.459 94.1865 407.473C94.2571 407.473 94.3417 405.723 94.3982 403.549C94.4546 401.375 94.4405 399.624 94.384 399.624V399.61Z" fill="#263238"/>
<path d="M101.466 411.313C101.466 411.313 102.693 411.596 104.245 411.624C105.797 411.666 107.053 411.497 107.039 411.44C107.039 411.37 105.783 411.44 104.245 411.398C102.708 411.37 101.466 411.257 101.452 411.313H101.466Z" fill="#263238"/>
<path d="M97.7277 411.257C97.7277 411.257 97.8264 411.525 97.9534 411.808C98.0804 412.09 98.1368 412.344 98.2074 412.344C98.2638 412.344 98.3061 412.048 98.165 411.709C98.0239 411.37 97.77 411.201 97.7277 411.243V411.257Z" fill="#263238"/>
<path d="M96.3309 409.492C96.3309 409.492 96.4015 409.732 96.599 409.944C96.7965 410.142 96.994 410.269 97.0363 410.226C97.0786 410.184 96.9658 409.986 96.7683 409.775C96.5708 409.577 96.3733 409.45 96.3309 409.492Z" fill="#263238"/>
<path d="M94.3277 408.659C94.3277 408.659 94.5957 408.73 94.8779 408.829C95.16 408.928 95.3575 409.083 95.414 409.041C95.4704 409.012 95.3152 408.73 94.9625 408.617C94.6098 408.49 94.3277 408.617 94.3418 408.674L94.3277 408.659Z" fill="#263238"/>
<path d="M92.8886 408.264C92.8886 408.264 92.9733 408.419 93.1285 408.49C93.2836 408.561 93.4388 408.561 93.4529 408.49C93.4812 408.434 93.3683 408.335 93.2131 408.264C93.0579 408.194 92.9027 408.194 92.8886 408.264Z" fill="#263238"/>
<path d="M32.6338 406.358L66.6902 205.978L119.214 213.982L113.133 404.848L88.8114 406.923L90.6736 238.899L53.2454 407.107L32.6338 406.358Z" fill="#455A64"/>
<path d="M61.3856 220.914L68.3549 161.819L57.8163 178.294L40.9715 163.711L60.6661 137.071C64.2918 133.316 68.5383 130.535 73.603 128.686C76.0719 127.796 78.6819 127.26 81.715 127.133C88.247 129.152 94.7789 129.152 101.311 127.133C102.411 127.274 104.118 127.415 106.362 127.726C113.994 128.77 120.893 132.836 125.478 139.034L145.751 177.983L128.384 184.562L119.228 168.045L120.935 222.876L104.584 226.434L92.1126 217.413L74.9009 226.434L61.3856 220.9V220.914Z" fill="#263238"/>
<path d="M118.325 147.363C118.142 147.363 118.325 156.497 118.734 167.734C119.157 178.985 119.651 188.091 119.835 188.077C120.018 188.077 119.835 178.957 119.411 167.706C118.988 156.468 118.494 147.363 118.311 147.363H118.325Z" fill="#455A64"/>
<path d="M69.54 150.963C69.3566 150.949 68.6794 156.214 68.0586 162.736C67.4238 169.259 67.0711 174.567 67.2545 174.581C67.4379 174.595 68.1151 169.329 68.7358 162.807C69.3707 156.285 69.7234 150.977 69.54 150.963Z" fill="#455A64"/>
<path d="M96.8953 77.2988C94.1865 76.6777 91.4496 76.0424 88.6845 76.1694C85.9193 76.2965 83.0695 77.2565 81.2355 79.3458C80.1069 80.6305 79.4156 82.3105 78.0753 83.3692C76.4106 84.6963 73.7301 85.1339 73.1658 87.195C72.5874 89.3126 74.8305 91.289 74.6753 93.4631C74.5907 94.7054 73.7442 95.7501 73.0247 96.7807C72.3193 97.8112 71.6986 99.11 72.1359 100.282C72.4886 101.228 73.4338 101.835 73.8994 102.724C74.6189 104.108 74.0405 105.802 74.2662 107.34C74.5907 109.599 76.6646 111.293 78.8795 111.872C81.0803 112.451 83.4222 112.168 85.6795 111.872" fill="#263238"/>
<path d="M98.9832 78.2729C100.845 77.9058 102.764 77.567 104.612 78.0046C106.46 78.4423 108.21 79.8258 108.478 81.7034C108.647 82.861 108.266 84.1598 108.915 85.1339C109.649 86.2209 111.299 86.3056 112.132 87.3079C113.938 89.4679 110.467 93.1948 112.273 95.3548C112.752 95.9336 113.528 96.2159 114.05 96.7524C114.953 97.6841 114.911 99.2794 114.163 100.324C113.416 101.383 112.103 101.919 110.806 101.99C109.508 102.06 108.238 101.708 107.025 101.256C102.933 99.7452 99.1666 96.9641 97.2056 93.0536C95.2587 89.1432 95.4421 84.0468 98.2637 80.7293" fill="#263238"/>
<path d="M81.5317 92.8137L81.0097 129.97L99.5898 130.352C99.9143 128.206 100.606 119.862 100.606 119.862C100.606 119.862 108.393 119.439 109.254 111.773C109.677 108.046 109.917 100.296 110.044 93.2937C110.199 85.5292 104.118 79.0776 96.3732 78.7529C88.3458 78.4141 81.6304 84.781 81.5176 92.8137H81.5317Z" fill="#FFC7AA"/>
<path d="M100.634 119.75C100.634 119.75 95.7525 119.651 90.9135 115.896C90.9135 115.896 92.7193 121.655 100.45 121.726L100.634 119.735V119.75Z" fill="#EB996E"/>
<path d="M106.573 97.7689C106.531 98.3477 106.009 98.7995 105.402 98.7712C104.796 98.743 104.33 98.2489 104.372 97.6701C104.415 97.0913 104.937 96.6395 105.543 96.6678C106.15 96.696 106.616 97.1901 106.573 97.7689Z" fill="#263238"/>
<path d="M108.04 96.9925C107.885 97.1196 107.123 96.4278 105.938 96.3149C104.767 96.1878 103.836 96.6961 103.723 96.5408C103.667 96.4702 103.836 96.2302 104.231 95.9902C104.626 95.7502 105.289 95.5526 106.023 95.6231C106.757 95.7078 107.349 96.0325 107.674 96.3431C108.012 96.6537 108.111 96.9219 108.026 96.9925H108.04Z" fill="#263238"/>
<path d="M94.7366 97.0631C94.6943 97.6419 94.1723 98.0937 93.5656 98.0654C92.959 98.0372 92.4934 97.5431 92.5358 96.9643C92.5781 96.3855 93.1001 95.9337 93.7067 95.9619C94.3133 95.9902 94.7789 96.4843 94.7366 97.0631Z" fill="#263238"/>
<path d="M96.4296 96.0467C96.2744 96.1738 95.5125 95.482 94.3275 95.3691C93.1565 95.242 92.2254 95.7502 92.1125 95.595C92.0561 95.5244 92.2254 95.2844 92.6204 95.0444C93.0154 94.8044 93.6785 94.6067 94.4121 94.6773C95.1457 94.762 95.7383 95.0867 96.0628 95.3973C96.4013 95.7079 96.5001 95.9761 96.4154 96.0467H96.4296Z" fill="#263238"/>
<path d="M99.8297 105.223C99.8297 105.223 100.577 105.096 101.777 105.068C102.087 105.068 102.369 105.039 102.44 104.842C102.538 104.63 102.44 104.291 102.327 103.924C102.115 103.162 101.904 102.371 101.664 101.538C100.761 98.1502 100.126 95.3691 100.267 95.3408C100.408 95.2985 101.255 98.0231 102.157 101.411C102.369 102.244 102.581 103.049 102.778 103.797C102.863 104.15 103.018 104.559 102.821 104.997C102.722 105.209 102.482 105.35 102.284 105.392C102.087 105.435 101.918 105.421 101.762 105.406C100.563 105.35 99.8156 105.279 99.8156 105.209L99.8297 105.223Z" fill="#263238"/>
<path d="M96.2744 105.689C96.4719 105.689 96.3449 106.973 97.3466 107.99C98.3482 109.006 99.7308 109.006 99.7167 109.19C99.7167 109.274 99.3922 109.402 98.8138 109.359C98.2495 109.317 97.4453 109.063 96.8246 108.442C96.2179 107.82 96.0063 107.044 96.0063 106.522C96.0063 105.985 96.1897 105.675 96.2744 105.689Z" fill="#263238"/>
<path d="M97.1915 91.4585C97.0363 91.7691 95.8794 91.5009 94.4827 91.5291C93.0861 91.5291 91.9292 91.8256 91.774 91.5291C91.7035 91.3879 91.9292 91.1056 92.4089 90.8374C92.8886 90.5691 93.6363 90.3433 94.4686 90.3433C95.301 90.3433 96.0487 90.5409 96.5425 90.795C97.0363 91.0491 97.262 91.3315 97.1915 91.4726V91.4585Z" fill="#263238"/>
<path d="M107.942 93.5339C107.702 93.788 106.926 93.4209 105.952 93.308C104.979 93.1668 104.133 93.308 103.963 93.0115C103.893 92.8704 104.048 92.6162 104.443 92.3904C104.824 92.1786 105.445 92.0233 106.108 92.108C106.771 92.1927 107.335 92.5033 107.645 92.7998C107.956 93.1103 108.055 93.3927 107.942 93.5197V93.5339Z" fill="#263238"/>
<path d="M83.5491 98.8276C83.4221 98.757 78.442 96.7383 78.0752 102.004C77.7225 107.27 83.0694 106.536 83.0976 106.394C83.1117 106.239 83.5491 98.8276 83.5491 98.8276Z" fill="#FFC7AA"/>
<path d="M81.6162 104.291C81.6162 104.291 81.5175 104.348 81.3623 104.404C81.2071 104.46 80.939 104.489 80.671 104.376C80.1349 104.136 79.7258 103.218 79.754 102.272C79.7681 101.792 79.9092 101.341 80.1067 100.974C80.2901 100.606 80.5581 100.352 80.8403 100.31C81.1224 100.268 81.3058 100.451 81.3623 100.592C81.4187 100.748 81.3764 100.846 81.4046 100.861C81.4046 100.875 81.5175 100.776 81.4892 100.564C81.4751 100.465 81.4187 100.324 81.3058 100.225C81.193 100.112 81.0096 100.056 80.8121 100.056C80.4029 100.056 80.0079 100.409 79.7963 100.804C79.5565 101.199 79.4013 101.708 79.3731 102.244C79.3307 103.303 79.8104 104.333 80.5581 104.602C80.9249 104.729 81.2353 104.63 81.4046 104.517C81.5739 104.404 81.6162 104.277 81.588 104.277L81.6162 104.291Z" fill="#EB996E"/>
<path d="M101.382 79.0918C101.001 78.3436 99.7168 77.4683 99.1384 77.0448C98.3625 76.4801 96.7683 76.113 95.809 76.0566C93.4529 75.9154 91.0405 75.986 88.7973 76.7059C86.5542 77.4259 84.4662 78.88 83.3799 80.9835C82.5334 82.6211 82.2936 84.6257 80.9816 85.9386C79.9235 86.9974 78.2446 87.4915 77.6521 88.8609C76.5799 91.2891 79.7965 94.0702 78.7525 96.4984C78.5691 96.936 78.2446 97.3313 78.2305 97.8113C78.2164 98.376 78.6538 98.8701 79.1617 99.0959C79.6695 99.3218 80.248 99.3359 80.8123 99.3359C82.7874 99.35 85.1998 99.0959 86.0322 97.303C86.794 95.6513 85.7924 93.4349 86.9069 91.995C87.8803 90.7526 89.531 91.2467 90.8853 90.4562C91.4637 90.1315 91.9857 89.7221 92.4654 89.2703C93.3683 89.1856 94.2571 89.0727 95.1036 88.7903C96.1617 88.4233 97.1633 87.7598 97.6994 86.7716C98.2778 85.6845 98.2778 84.2728 99.1525 83.3975C100.07 82.4799 101.777 82.367 102.214 81.1388C102.482 80.3764 102.059 79.4871 101.353 79.0918H101.382Z" fill="#263238"/>
<path d="M145.751 176.134L147.387 179.338C148.262 181.061 147.571 183.178 145.821 184.025L134.45 189.602C132.786 190.42 130.768 189.771 129.879 188.133L127.368 183.503L145.751 176.134Z" fill="#263238"/>
<path d="M29.643 131.538L40.0123 134.093C40.0123 134.093 40.4496 132.06 40.5907 131.41C41.0845 129.123 40.5625 127.881 40.3509 127.429C40.238 127.189 40.2098 126.738 40.2098 126.738C40.2803 125.919 42.1567 122.121 42.848 120.724C43.6662 119.044 42.8339 117.943 42.3119 118.592C41.3666 119.792 38.5027 125.128 37.8256 125.538C37.1484 125.947 37.9949 123.095 37.9949 123.095C40.0123 117.025 40.5625 116.178 39.5044 115.754C38.277 115.26 35.2438 124.295 35.2438 124.295C35.2438 124.295 35.6671 123.025 34.7077 122.587C33.7625 122.15 33.0712 123.35 33.0712 123.35C33.3111 122.714 32.394 122.432 32.394 122.432C29.9816 122.347 29.643 131.509 29.643 131.509L40.0123 134.065L38.8837 170.049L42.6787 165.998L55.3899 176.445L42.6928 188.063C40.0123 190.322 36.4289 191.211 33.0007 190.477C27.2588 189.249 23.4073 183.842 24.0986 178.012L29.6571 131.495L29.643 131.538Z" fill="#FFD0B7"/>
<path d="M37.8539 133.076C37.8539 133.076 37.4307 132.441 36.8522 131.396C36.556 130.874 36.2456 130.225 35.9634 129.49C35.8224 129.123 35.6954 128.728 35.5825 128.305C35.4838 127.895 35.3145 127.443 35.4273 127.091C35.4838 126.879 35.639 126.723 35.8083 126.709C35.9776 126.681 36.2033 126.78 36.3867 126.907C36.7817 127.175 37.1344 127.5 37.4307 127.81C38.0232 128.46 38.4041 129.123 38.6439 129.674L38.7286 129.872L38.8556 129.702C39.3634 128.996 39.9136 128.841 39.8854 128.785C39.8854 128.756 39.2929 128.813 38.6581 129.547L38.8697 129.575C38.6722 128.996 38.3054 128.262 37.6987 127.556C37.3883 127.203 37.0356 126.865 36.5983 126.568C36.3726 126.427 36.1045 126.258 35.7518 126.286C35.385 126.328 35.1311 126.639 35.0323 126.949C34.8912 127.514 35.1029 127.966 35.2016 128.389C35.3286 128.813 35.4697 129.222 35.6249 129.603C35.9352 130.366 36.2738 131.001 36.6124 131.523C37.2755 132.568 37.8257 133.09 37.8539 133.062V133.076Z" fill="#EB996E"/>
<path d="M35.0182 124.888C35.0182 124.888 34.8348 125.622 34.6796 126.822C34.6091 127.472 34.5244 128.164 34.4257 128.926C34.3692 129.307 34.3551 129.759 34.2423 130.126C34.1576 130.479 33.7767 130.747 33.5369 130.549C33.2829 130.352 33.2265 129.872 33.1842 129.448C33.1418 129.025 33.1136 128.601 33.0995 128.206C33.0713 127.415 33.0713 126.695 33.0572 126.088C33.0572 124.874 33.0008 124.126 32.9443 124.126C32.8879 124.126 32.8456 124.874 32.775 126.074C32.7468 126.681 32.7186 127.401 32.7327 128.206C32.7327 128.601 32.7468 129.025 32.7892 129.476C32.8456 129.886 32.8174 130.436 33.297 130.86C33.551 131.058 33.9319 131.029 34.1576 130.86C34.3975 130.705 34.5385 130.451 34.6091 130.225C34.736 129.759 34.736 129.349 34.7784 128.954C34.8348 128.192 34.8912 127.486 34.9477 126.836C35.0323 125.622 35.0605 124.888 35.0041 124.874L35.0182 124.888Z" fill="#EB996E"/>
<path d="M32.789 127.218C32.789 127.218 32.8031 127.669 32.6338 128.347C32.5492 128.658 32.4081 129.109 32.126 129.349C31.9708 129.448 31.8861 129.448 31.7874 129.279C31.7027 129.109 31.6322 128.813 31.5616 128.573C30.9973 126.483 31.1948 124.705 31.082 124.705C30.9832 124.676 30.6023 126.498 31.1807 128.686C31.2654 128.954 31.3077 129.208 31.4488 129.49C31.5193 129.632 31.6745 129.773 31.872 129.815C32.0695 129.843 32.2529 129.759 32.3517 129.66C32.5774 129.462 32.6762 129.222 32.7467 129.025C32.8314 128.813 32.8737 128.615 32.9019 128.432C33.0148 127.683 32.8172 127.232 32.7749 127.246L32.789 127.218Z" fill="#EB996E"/>
<path d="M40.9717 162.765L59.2273 177.997L58.9451 178.308C56.829 180.623 53.2597 180.821 50.8895 178.76L40.7883 169.936C39.053 168.412 38.7568 165.814 40.1111 163.936L40.9576 162.765H40.9717Z" fill="#263238"/>
<path d="M102.496 127.613L101.24 122.079C101.24 122.079 94.4687 122.516 92.2961 128.784C92.2961 128.784 89.7002 122.079 81.5177 120.963L79.8671 128.008L92.9309 133.471L102.496 127.598" fill="#263238"/>
<path d="M128.398 184.265C128.511 184.449 131.981 182.585 136.327 180.439C140.672 178.294 144.269 176.67 144.185 176.472C144.114 176.289 140.376 177.616 136.002 179.776C131.629 181.936 128.299 184.096 128.398 184.265Z" fill="#455A64"/>
<path d="M42.0579 162.553C41.9874 162.609 42.5799 163.668 43.7368 165.249C44.8936 166.83 46.6712 168.906 48.8861 170.924C51.1011 172.943 53.3301 174.524 54.9949 175.541C56.6737 176.557 57.7882 177.051 57.8305 176.981C57.9434 176.783 53.7393 174.397 49.3799 170.388C44.9924 166.407 42.2413 162.426 42.0579 162.553Z" fill="#455A64"/>
<path d="M92.3102 128.785C92.3102 128.785 92.2538 129.081 92.2397 129.66C92.2256 130.309 92.1974 131.142 92.1691 132.159C92.1409 134.432 92.0845 137.551 92.0281 141.363C91.9716 149.226 91.9152 159.927 91.8305 171.744C91.8305 183.574 91.8447 194.275 91.8588 202.124C91.9011 205.936 91.9293 209.055 91.9434 211.328C91.9716 212.345 91.9857 213.178 91.9998 213.827C92.0281 214.406 92.0422 214.702 92.0704 214.702C92.0986 214.702 92.1268 214.406 92.1409 213.827C92.155 213.178 92.1832 212.345 92.2115 211.328C92.2397 209.055 92.2961 205.936 92.3525 202.124C92.409 194.261 92.4654 183.56 92.55 171.744C92.55 159.927 92.5359 149.226 92.5218 141.363C92.4795 137.551 92.4513 134.417 92.4372 132.159C92.409 131.128 92.3949 130.309 92.3808 129.66C92.3525 129.081 92.3384 128.785 92.3102 128.785Z" fill="#455A64"/>
<path d="M93.6364 126.695C93.6364 126.695 93.8481 126.61 94.1725 126.695C94.497 126.766 94.8074 127.133 95.1178 127.726C95.7667 128.869 96.4439 130.592 96.5286 132.596L96.5568 133.443L97.1493 132.836L97.1775 132.808C100.041 129.843 102.708 127.796 102.581 127.613C102.482 127.458 99.5759 129.265 96.6555 132.286L96.6273 132.314L97.2622 132.554C97.1775 130.394 96.3593 128.559 95.5551 127.443C95.2024 126.893 94.6945 126.385 94.2008 126.399C93.7352 126.399 93.5941 126.667 93.6364 126.681V126.695Z" fill="#455A64"/>
<path d="M81.3624 121.091C81.2214 121.062 80.4877 123.773 79.5848 127.712L79.5284 127.923L79.7259 128.05C80.8828 128.855 82.2089 129.716 83.6479 130.549C85.1434 131.424 86.6106 132.201 87.9226 132.85L88.4164 133.09V132.554C88.3882 130.662 89.1077 129.123 89.7284 128.192C90.3633 127.246 90.8853 126.794 90.8288 126.737C90.8006 126.695 90.1658 127.034 89.4039 127.966C88.6562 128.883 87.7815 130.479 87.7392 132.568L88.2189 132.271C86.935 131.594 85.5101 130.803 84.0147 129.942C82.6039 129.109 81.2778 128.276 80.1068 127.514L80.2479 127.867C81.0521 123.914 81.5176 121.133 81.3765 121.105L81.3624 121.091Z" fill="#455A64"/>
<path d="M90.1659 144.412C90.1094 144.497 90.2364 144.694 90.1517 144.991C90.0671 145.301 89.8132 145.499 89.4887 145.287C89.1642 145.062 89.2488 144.765 89.5028 144.553C89.7426 144.37 89.9824 144.398 90.0248 144.313C90.0953 144.243 89.8273 143.918 89.2771 144.087C89.0372 144.172 88.7268 144.37 88.5999 144.765C88.4729 145.174 88.6986 145.669 89.0654 145.894C89.4181 146.134 89.9542 146.163 90.2928 145.894C90.6173 145.626 90.6878 145.273 90.6596 145.005C90.5891 144.44 90.1941 144.313 90.1517 144.412H90.1659Z" fill="#455A64"/>
<path d="M89.6439 168.496C89.5874 168.581 89.7144 168.779 89.6298 169.075C89.5451 169.386 89.2912 169.583 88.9667 169.371C88.6422 169.146 88.7269 168.849 88.9808 168.637C89.2206 168.454 89.4605 168.482 89.5028 168.397C89.5733 168.341 89.3053 168.002 88.7551 168.172C88.5152 168.256 88.2049 168.454 88.0779 168.849C87.9509 169.259 88.1767 169.753 88.5435 169.979C88.8962 170.219 89.4323 170.247 89.7708 169.979C90.0953 169.71 90.1659 169.357 90.1377 169.089C90.0671 168.524 89.6721 168.397 89.6298 168.496H89.6439Z" fill="#455A64"/>
<path d="M89.5169 195.206C89.4605 195.291 89.5875 195.489 89.5028 195.785C89.4182 196.096 89.1642 196.293 88.8397 196.081C88.5153 195.856 88.5999 195.559 88.8539 195.347C89.0937 195.164 89.3335 195.192 89.3758 195.107C89.4464 195.051 89.1783 194.712 88.6281 194.881C88.3883 194.966 88.0779 195.164 87.951 195.559C87.824 195.968 88.0497 196.463 88.4165 196.688C88.7692 196.928 89.3053 196.957 89.6439 196.688C89.9684 196.42 90.0389 196.067 90.0107 195.799C89.9402 195.234 89.5451 195.107 89.5028 195.206H89.5169Z" fill="#455A64"/>
<path d="M133.703 175.145C133.9 175.188 134.281 174.115 134.563 172.76C134.831 171.404 134.902 170.261 134.704 170.218C134.507 170.176 134.126 171.249 133.844 172.604C133.576 173.96 133.505 175.103 133.703 175.145Z" fill="#F5F5F5"/>
<path d="M128.356 160.026C128.313 160.224 129.428 160.633 130.839 160.944C132.264 161.254 133.435 161.353 133.491 161.155C133.533 160.958 132.419 160.548 131.008 160.238C129.597 159.927 128.412 159.828 128.356 160.026Z" fill="#F5F5F5"/>
<path d="M124.645 168.623C124.49 168.765 124.956 169.485 125.661 170.247C126.367 171.009 127.072 171.517 127.213 171.376C127.354 171.235 126.903 170.515 126.197 169.753C125.492 168.99 124.786 168.496 124.645 168.623Z" fill="#F5F5F5"/>
<path d="M123.813 152.262C124.011 152.262 124.222 150.906 124.279 149.212C124.335 147.518 124.208 146.149 123.996 146.149C123.799 146.149 123.587 147.504 123.531 149.198C123.474 150.892 123.601 152.262 123.813 152.262Z" fill="#F5F5F5"/>
<path d="M113.007 138.582C113.007 138.779 114.333 138.935 115.969 138.935C117.606 138.935 118.918 138.751 118.918 138.539C118.918 138.342 117.592 138.187 115.955 138.187C114.319 138.187 113.007 138.37 113.007 138.582Z" fill="#F5F5F5"/>
<path d="M105.402 138.243C105.6 138.173 105.289 136.803 104.725 135.18C104.161 133.556 103.54 132.286 103.357 132.356C103.159 132.427 103.47 133.796 104.034 135.42C104.598 137.043 105.219 138.314 105.402 138.243Z" fill="#F5F5F5"/>
<path d="M108.252 155.212C108.435 155.311 109.183 154.224 109.931 152.812C110.679 151.386 111.144 150.158 110.961 150.059C110.777 149.96 110.03 151.033 109.282 152.459C108.534 153.885 108.069 155.113 108.252 155.212Z" fill="#F5F5F5"/>
<path d="M98.0098 149.311C98.2073 149.283 98.2355 148.295 98.0804 147.095C97.9111 145.895 97.6289 144.949 97.4173 144.977C97.2198 145.005 97.1916 145.994 97.3467 147.194C97.516 148.394 97.7982 149.339 98.0098 149.311Z" fill="#F5F5F5"/>
<path d="M99.209 159.588C99.1808 159.786 100.14 160.082 101.325 160.223C102.524 160.379 103.512 160.336 103.54 160.139C103.568 159.941 102.609 159.645 101.424 159.503C100.225 159.348 99.2373 159.39 99.209 159.588Z" fill="#F5F5F5"/>
<path d="M113.007 172.774C113.204 172.788 113.458 171.786 113.571 170.543C113.684 169.287 113.613 168.256 113.416 168.242C113.218 168.228 112.964 169.231 112.851 170.473C112.739 171.729 112.809 172.76 113.007 172.774Z" fill="#F5F5F5"/>
<path d="M101.607 176.698C101.452 176.825 102.157 177.955 103.187 179.197C104.217 180.454 105.176 181.357 105.346 181.23C105.501 181.103 104.796 179.974 103.766 178.731C102.736 177.475 101.776 176.571 101.621 176.698H101.607Z" fill="#F5F5F5"/>
<path d="M111.582 191.677C111.765 191.762 112.357 190.802 112.894 189.559C113.43 188.303 113.726 187.23 113.543 187.145C113.359 187.061 112.767 188.021 112.23 189.263C111.694 190.519 111.398 191.592 111.582 191.677Z" fill="#F5F5F5"/>
<path d="M98.6304 193.272C98.4329 193.315 98.4894 194.486 98.7715 195.898C99.0537 197.31 99.4346 198.425 99.6321 198.383C99.8296 198.34 99.7732 197.169 99.491 195.757C99.2089 194.345 98.8279 193.23 98.6304 193.272Z" fill="#F5F5F5"/>
<path d="M110.89 212.09C111.045 212.218 111.948 211.427 112.894 210.312C113.853 209.196 114.502 208.18 114.347 208.053C114.192 207.926 113.289 208.716 112.343 209.832C111.384 210.947 110.735 211.963 110.89 212.09Z" fill="#F5F5F5"/>
<path d="M110.256 219.262C110.227 219.46 111.342 219.798 112.753 220.024C114.163 220.25 115.334 220.264 115.377 220.067C115.405 219.869 114.29 219.53 112.88 219.304C111.469 219.078 110.298 219.064 110.256 219.262Z" fill="#F5F5F5"/>
<path d="M95.682 209.62C95.5409 209.775 96.5708 210.961 97.9816 212.274C99.3923 213.587 100.648 214.533 100.775 214.391C100.916 214.236 99.8861 213.064 98.4753 211.737C97.0645 210.424 95.8089 209.479 95.682 209.634V209.62Z" fill="#F5F5F5"/>
<path d="M107.533 199.187C107.335 199.216 107.265 199.893 107.378 200.712C107.49 201.531 107.744 202.166 107.942 202.138C108.139 202.11 108.21 201.432 108.097 200.613C107.984 199.794 107.73 199.159 107.533 199.187Z" fill="#F5F5F5"/>
<path d="M95.8654 168.44C95.9218 168.638 96.8529 168.525 97.9393 168.2C99.0256 167.875 99.8579 167.452 99.8015 167.254C99.7451 167.056 98.8139 167.169 97.7276 167.494C96.6413 167.819 95.809 168.242 95.8654 168.44Z" fill="#F5F5F5"/>
<path d="M86.0321 160.943C86.2296 160.915 86.1732 159.56 85.9051 157.922C85.6371 156.285 85.2561 154.986 85.0445 155.028C84.847 155.057 84.9034 156.412 85.1715 158.049C85.4395 159.687 85.8204 160.986 86.0321 160.943Z" fill="#F5F5F5"/>
<path d="M74.111 167.79C74.2662 167.917 75.1973 167.056 76.1849 165.87C77.1724 164.685 77.8496 163.612 77.6944 163.485C77.5392 163.358 76.6081 164.219 75.6205 165.405C74.633 166.59 73.9558 167.663 74.111 167.79Z" fill="#F5F5F5"/>
<path d="M81.4753 173.565C81.2919 173.635 81.6163 174.892 82.223 176.36C82.8155 177.828 83.4645 178.957 83.6479 178.887C83.8313 178.816 83.5068 177.56 82.9002 176.092C82.3076 174.623 81.6587 173.494 81.4753 173.565Z" fill="#F5F5F5"/>
<path d="M80.502 189.545C80.6431 189.686 81.6729 188.867 82.8016 187.71C83.9302 186.552 84.7202 185.493 84.5792 185.352C84.4381 185.211 83.4082 186.03 82.2796 187.188C81.1509 188.345 80.3609 189.404 80.502 189.545Z" fill="#F5F5F5"/>
<path d="M71.4586 190.308C71.6561 190.265 71.5574 189.037 71.2188 187.569C70.8943 186.101 70.457 184.943 70.2594 184.986C70.0619 185.028 70.1607 186.256 70.4993 187.724C70.8238 189.192 71.2611 190.35 71.4586 190.308Z" fill="#F5F5F5"/>
<path d="M80.0787 204.495C80.2339 204.622 81.1085 203.832 82.1949 202.886C83.2671 201.926 84.17 201.164 84.0571 200.98C83.9442 200.811 82.8297 201.333 81.7152 202.336C80.5865 203.324 79.9376 204.368 80.0928 204.495H80.0787Z" fill="#F5F5F5"/>
<path d="M79.5003 213.192C79.3733 213.347 80.2339 214.293 81.5742 215.069C82.9144 215.86 84.17 216.142 84.2264 215.944C84.297 215.747 83.2248 215.182 81.941 214.434C80.6572 213.686 79.6273 213.036 79.5003 213.192Z" fill="#F5F5F5"/>
<path d="M67.8752 214.97C67.6777 214.97 67.4661 216.057 67.4097 217.427C67.3532 218.782 67.4802 219.897 67.6777 219.911C67.8752 219.911 68.0868 218.824 68.1433 217.455C68.1997 216.1 68.0727 214.984 67.8752 214.97Z" fill="#F5F5F5"/>
<path d="M72.136 204.523C72.3335 204.523 72.4605 202.745 72.4181 200.571C72.3758 198.396 72.1783 196.632 71.9667 196.632C71.7692 196.632 71.6422 198.411 71.6845 200.585C71.7268 202.759 71.9243 204.523 72.136 204.523Z" fill="#F5F5F5"/>
<path d="M69.6529 174.75C69.5682 174.92 70.3018 175.484 71.4022 175.71C72.5026 175.95 73.4055 175.738 73.3914 175.541C73.3914 175.329 72.545 175.202 71.5574 174.99C70.5558 174.778 69.7375 174.567 69.6529 174.75Z" fill="#F5F5F5"/>
<path d="M73.7019 144.596C73.5044 144.624 73.5326 146.05 73.7583 147.8C73.9981 149.537 74.3367 150.934 74.5483 150.906C74.7458 150.878 74.7176 149.452 74.4919 147.701C74.2521 145.965 73.9135 144.567 73.7019 144.596Z" fill="#F5F5F5"/>
<path d="M82.8297 141.024C82.6321 140.968 82.1666 141.928 81.7716 143.17C81.3765 144.412 81.2214 145.485 81.4048 145.542C81.6023 145.598 82.0678 144.638 82.4628 143.396C82.8579 142.154 83.0131 141.081 82.8297 141.024Z" fill="#F5F5F5"/>
<path d="M78.7384 133.302C78.6537 133.486 79.7682 134.206 81.3201 134.657C82.872 135.123 84.2122 135.123 84.2263 134.926C84.2546 134.714 83.0131 134.403 81.5176 133.951C80.0222 133.514 78.8089 133.104 78.7243 133.302H78.7384Z" fill="#F5F5F5"/>
<path d="M72.0231 136.888C72.2065 136.817 71.9667 135.702 71.487 134.389C70.9932 133.076 70.443 132.074 70.2596 132.158C70.0762 132.229 70.3161 133.344 70.7957 134.657C71.2895 135.97 71.8397 136.972 72.0231 136.888Z" fill="#F5F5F5"/>
<path d="M58.3947 144.751C58.5217 144.907 59.6785 144.201 60.9906 143.17C62.3026 142.14 63.2619 141.18 63.135 141.01C63.008 140.855 61.8511 141.561 60.5391 142.591C59.2271 143.622 58.2677 144.582 58.3947 144.751Z" fill="#F5F5F5"/>
<path d="M63.135 153.25C63.3325 153.25 63.5441 151.852 63.6005 150.102C63.657 148.365 63.53 146.939 63.3325 146.939C63.135 146.939 62.9234 148.337 62.8669 150.088C62.8105 151.824 62.9375 153.25 63.135 153.25Z" fill="#F5F5F5"/>
<path d="M58.4231 163.569C58.4372 163.767 59.5094 163.837 60.8215 163.725C62.1335 163.612 63.1634 163.343 63.1493 163.146C63.1352 162.948 62.063 162.877 60.7509 162.99C59.453 163.103 58.409 163.372 58.4231 163.569Z" fill="#F5F5F5"/>
<path d="M52.1592 162.737C52.3285 162.821 53.1326 161.48 53.443 159.603C53.7675 157.725 53.443 156.2 53.2455 156.214C53.0339 156.229 53.0198 157.711 52.7094 159.476C52.4272 161.24 51.9617 162.652 52.1592 162.737Z" fill="#F5F5F5"/>
<path d="M53.3159 171.743C53.2736 171.941 54.1765 172.28 55.3193 172.506C56.462 172.732 57.4213 172.746 57.4637 172.548C57.506 172.35 56.6031 172.012 55.4603 171.786C54.3176 171.56 53.3583 171.546 53.33 171.743H53.3159Z" fill="#F5F5F5"/>
<path d="M86.5965 128.022C86.7234 128.177 87.3019 127.867 87.6687 127.203C88.0355 126.54 87.979 125.89 87.7815 125.862C87.584 125.82 87.3301 126.3 87.0197 126.85C86.7234 127.401 86.4554 127.881 86.5965 128.022Z" fill="#F5F5F5"/>
<path d="M82.6604 126.836C82.8438 126.921 83.2953 126.385 83.6762 125.622C84.0571 124.86 84.2123 124.168 84.043 124.083C83.8596 123.999 83.4081 124.535 83.0272 125.298C82.6463 126.06 82.4911 126.752 82.6604 126.836Z" fill="#F5F5F5"/>
<path d="M98.0239 126.046C98.038 126.243 98.6729 126.37 99.4347 126.314C100.197 126.258 100.803 126.046 100.789 125.848C100.775 125.65 100.14 125.523 99.3783 125.58C98.6165 125.636 98.0098 125.848 98.0239 126.046Z" fill="#F5F5F5"/>
<path d="M73.0671 101.354C73.0671 101.354 73.2223 101.354 73.4904 101.284C73.7584 101.199 74.1393 101.058 74.5908 100.776C75.4655 100.239 76.6929 99.0533 77.0455 97.1051C77.2148 96.1734 77.2007 95.1287 77.5252 94.1828C77.6804 93.717 77.9626 93.2935 78.3858 92.997C78.7949 92.7005 79.3451 92.5452 79.9236 92.3758C80.502 92.2064 81.1509 92.0653 81.7576 91.6841C82.3783 91.3029 82.8298 90.6535 83.0837 90.0041C83.5916 88.6912 83.6198 87.2371 84.3958 86.2631C86.1028 84.2866 89.658 86.2066 91.6895 83.9055C92.5501 82.7902 92.5783 81.5338 92.931 80.5738C93.2414 79.5997 93.8763 78.8374 94.5816 78.315C96.0207 77.2562 97.6148 77.3551 98.5601 77.6233C99.5335 77.9056 99.985 78.2868 100.013 78.2303C100.013 78.2162 99.9285 78.1033 99.7169 77.9339C99.4912 77.7645 99.1526 77.5386 98.6447 77.3551C97.6854 76.988 95.936 76.7763 94.2854 77.8915C93.4812 78.428 92.7476 79.275 92.3526 80.3762C91.9576 81.4208 91.8588 82.6349 91.1675 83.482C90.4763 84.329 89.1924 84.4702 87.8945 84.4984C87.2314 84.5266 86.5402 84.5266 85.8207 84.6819C85.1012 84.8231 84.3534 85.1901 83.8314 85.8113C82.8439 87.1101 82.8862 88.6206 82.4206 89.7641C82.209 90.3429 81.8704 90.8229 81.4049 91.1194C80.9252 91.43 80.3468 91.5853 79.7543 91.7547C79.1758 91.9241 78.5551 92.1076 78.019 92.5029C77.4829 92.8841 77.1302 93.4629 76.9609 94.0134C76.6223 95.1428 76.6929 96.1593 76.5518 97.0487C76.3119 98.8133 75.2397 99.9709 74.4497 100.564C73.6455 101.171 73.0671 101.312 73.0953 101.383L73.0671 101.354Z" fill="#455A64"/>
<path d="M101.466 404.848C101.466 404.848 101.494 404.692 101.508 404.382C101.523 404.043 101.551 403.591 101.579 403.027C101.621 401.798 101.692 400.048 101.776 397.845C101.932 393.286 102.143 386.792 102.411 378.773C102.976 362.623 103.737 340.388 104.584 315.838C105.388 291.246 105.896 268.983 106.009 252.861C106.079 244.8 106.079 238.278 106.009 233.775C105.981 231.558 105.952 229.822 105.938 228.579C105.924 228.015 105.91 227.577 105.896 227.224C105.896 226.914 105.868 226.758 105.854 226.758C105.854 226.758 105.825 226.914 105.811 227.224L105.783 228.579C105.769 229.808 105.741 231.558 105.713 233.775C105.656 238.334 105.572 244.843 105.473 252.861C105.219 268.969 104.64 291.232 103.836 315.81C103.032 340.388 102.284 362.637 101.875 378.759C101.664 386.82 101.537 393.342 101.466 397.845C101.438 400.062 101.424 401.798 101.41 403.041C101.41 403.605 101.41 404.043 101.41 404.396C101.41 404.706 101.41 404.862 101.438 404.862L101.466 404.848Z" fill="#263238"/>
<path d="M42.1566 406.711C42.3542 406.754 49.8454 366.421 58.8886 316.657C67.9317 266.866 75.0986 226.49 74.901 226.462C74.7035 226.434 67.2122 266.739 58.1691 316.53C49.1259 366.293 41.9591 406.683 42.1566 406.725V406.711Z" fill="#263238"/>
<path d="M89.686 238.109C89.686 238.109 89.9682 238.292 90.5325 238.236C91.0968 238.179 91.9151 237.84 92.5499 237.022C93.213 236.217 93.5657 235.045 93.8196 233.803C94.0877 232.56 94.3416 231.191 94.5532 229.751C94.9906 226.857 95.1881 224.203 95.2304 222.297C95.2869 220.377 95.2022 219.191 95.1035 219.191C94.8918 219.191 94.6943 223.907 93.8196 229.638C93.608 231.078 93.3823 232.433 93.1566 233.676C92.9449 234.904 92.6628 235.977 92.1408 236.711C91.6329 237.445 90.9557 237.812 90.4761 237.953C89.9823 238.094 89.686 238.038 89.686 238.109Z" fill="#263238"/>
<path d="M92.4372 220.278C92.3667 220.349 92.4795 220.589 92.3667 220.914C92.2538 221.253 91.9152 221.507 91.5343 221.238C91.1393 220.984 91.238 220.575 91.5202 220.335C91.7741 220.095 92.0422 220.123 92.0845 220.024C92.141 219.954 91.8165 219.657 91.2663 219.897C91.0123 220.01 90.7161 220.25 90.6173 220.674C90.5185 221.111 90.7584 221.606 91.1393 221.846C91.5202 222.1 92.0704 222.142 92.4231 221.874C92.7758 221.62 92.8887 221.253 92.8887 220.984C92.8887 220.391 92.4936 220.194 92.4513 220.278H92.4372Z" fill="#263238"/>
</svg>
