<svg width="375" height="428" viewBox="0 0 375 428" fill="none" xmlns="http://www.w3.org/2000/svg">
<path d="M242.688 112.237C243.17 108.698 238.184 105.794 234.431 105.486C232.647 105.341 230.785 105.611 229.088 105.023C225.413 103.74 223.947 99.0038 220.368 97.4894C217.687 96.3609 214.61 97.364 212.006 98.6758C209.411 99.978 206.845 101.627 203.942 101.811C201.415 101.975 198.675 101.039 196.467 102.274C194.817 103.19 193.959 105.09 192.444 106.209C190.959 107.299 189.03 107.53 187.188 107.637C185.345 107.733 183.445 107.752 181.767 108.524C180.088 109.296 178.699 111.061 179.056 112.874L242.688 112.247V112.237Z" fill="#F5F5F5"/>
<path d="M258.683 362.656C258.966 359.28 258.503 354.913 254.568 353.612C247.906 351.409 243.958 346.244 244.177 340.408C244.395 334.56 237.387 328.879 232.127 334.354C226.867 339.828 227.574 330.141 220.566 327.784C213.557 325.426 207.616 331.146 209.532 336.363C211.448 341.58 204.529 344.84 196.247 340.408C187.966 335.964 178.848 344.041 180.61 350.366C182.372 356.691 180.931 357.387 175.684 355.287C171.453 353.587 164.522 357.155 163.75 362.668H258.683V362.656Z" fill="#E0E0E0"/>
<path d="M255.514 44.4806C255.514 41.3374 258.06 38.7738 261.211 38.7738C261.777 38.7738 262.33 38.864 262.844 39.0186C262.767 38.4518 262.716 37.8592 262.716 37.2666C262.716 30.5937 268.117 25.1961 274.766 25.1961C275.524 25.1961 276.27 25.2734 276.99 25.4022C278.842 22.362 282.173 20.3267 285.98 20.3267C291.754 20.3267 296.435 24.9771 296.512 30.7354C296.576 30.7354 296.628 30.7354 296.692 30.7354C302.054 30.7354 306.401 35.0895 306.401 40.4614C306.401 45.8332 302.054 50.1874 296.692 50.1874H261.044C257.97 50.0972 255.514 47.5852 255.514 44.4806Z" fill="#F5F5F5"/>
<path d="M-126.987 364.923V381.592H341.85V364.923C341.85 362.025 339.831 359.693 336.937 359.693H-122.087C-124.981 359.693 -127 362.025 -127 364.923H-126.987Z" fill="#E0E0E0"/>
<path d="M315.127 359.693H285.973V381.592H315.127V359.693Z" fill="#F5F5F5"/>
<path d="M259.25 359.693H231.318V381.592H259.25V359.693Z" fill="#F5F5F5"/>
<path d="M204.595 359.693H175.441V381.592H204.595V359.693Z" fill="#F5F5F5"/>
<path d="M148.718 359.693H120.786V381.592H148.718V359.693Z" fill="#F5F5F5"/>
<path d="M94.0633 359.693H66.1313V381.592H94.0633V359.693Z" fill="#F5F5F5"/>
<path d="M39.4083 359.693H10.2546V381.592H39.4083V359.693Z" fill="#F5F5F5"/>
<path d="M183.196 146.267C184.453 137.152 171.583 129.645 161.913 128.874C157.305 128.505 152.512 129.209 148.138 127.684C138.67 124.383 134.9 112.151 125.649 108.264C118.745 105.348 110.802 107.945 104.099 111.313C97.4124 114.681 90.7931 118.921 83.3023 119.407C76.8003 119.826 69.7285 117.413 64.0476 120.596C59.8079 122.959 57.5791 127.852 53.6745 130.734C49.8537 133.549 44.8599 134.152 40.1174 134.404C35.375 134.655 30.4649 134.705 26.1414 136.683C21.8179 138.66 18.2485 143.234 19.1366 147.893L183.179 146.267H183.196Z" fill="#F5F5F5"/>
<path d="M77.9469 78.0461C78.7273 72.6962 70.7365 68.2904 64.7329 67.838C61.8717 67.6216 58.8959 68.0347 56.1803 67.1398C50.3016 65.2024 47.9606 58.0233 42.2172 55.7417C37.9304 54.0306 32.9986 55.5549 28.8367 57.5316C24.6852 59.5083 20.5754 61.9964 15.9245 62.2816C11.8874 62.5275 7.49665 61.1113 3.96945 62.9798C1.33706 64.3665 -0.0467663 67.2381 -2.47106 68.9296C-4.84334 70.5818 -7.94394 70.9358 -10.8885 71.0833C-13.833 71.2309 -16.8816 71.2604 -19.566 72.4208C-22.2504 73.5813 -24.4666 76.266 -23.9152 79L77.9365 78.0461H77.9469Z" fill="#F5F5F5"/>
<path d="M314.878 418.922L174.448 418.278C157.555 418.204 143.926 404.447 144 387.553L145.49 35.4718C145.564 18.5667 159.319 4.92634 176.223 5.0003L316.653 5.64481C333.546 5.71877 347.175 19.4753 347.101 36.3699L345.611 388.461C345.537 405.366 331.782 419.007 314.878 418.922Z" fill="#455A64"/>
<path d="M316.452 17.8059L289.226 17.6791C285.571 17.6579 282.602 20.7431 282.591 24.5573L282.57 29.4915C282.56 33.3057 279.58 36.3909 275.936 36.3698L222.868 36.1268C219.212 36.1056 216.265 32.9993 216.286 29.1851L216.307 24.2509C216.317 20.4367 213.38 17.3198 209.725 17.3093L200.153 17.267L176.319 17.1614C164.486 17.1085 154.851 26.6599 154.798 38.4935L153.34 382.153C153.287 393.987 162.838 403.612 174.66 403.665L314.815 404.31C326.647 404.362 336.283 394.811 336.335 382.977L337.793 39.3176C337.846 27.484 328.295 17.8587 316.473 17.8059H316.452Z" fill="#FAFAFA"/>
<path d="M176.34 58.7902C176.234 58.8959 173.878 56.8461 171.068 54.2047C171.068 53.4017 171.068 53.9828 171.068 53.8032H171.078L171.099 53.7715L171.131 53.7398L171.194 53.6764L171.321 53.5496L171.585 53.3066C171.754 53.1481 171.923 52.9896 172.092 52.8311C172.42 52.5247 172.747 52.2289 173.064 51.9436C173.645 51.4259 174.195 50.9399 174.723 50.4644C175.674 49.6297 176.297 49.1543 176.35 49.2071C176.403 49.2599 175.875 49.8516 174.987 50.7497C174.48 51.2463 173.962 51.764 173.413 52.3134L172.473 53.2221L171.966 53.6975L171.712 53.9405L171.585 54.0673L171.522 54.1307L171.49 54.1624H171.469V54.1836H171.459C171.459 54.0145 171.459 54.585 171.459 53.7926C174.269 56.4446 176.466 58.674 176.361 58.7796L176.34 58.7902Z" fill="#263238"/>
<path d="M322.368 50.7285C322.368 51.3624 321.851 51.8696 321.227 51.8696C320.604 51.8696 320.086 51.3519 320.086 50.7285C320.086 50.1051 320.604 49.5874 321.227 49.5874C321.851 49.5874 322.368 50.1051 322.368 50.7285Z" fill="#263238"/>
<path d="M322.041 53.8563C322.485 54.3 322.485 55.029 322.041 55.4728C321.597 55.9166 320.868 55.9166 320.425 55.4728C319.981 55.029 319.981 54.3 320.425 53.8563C320.868 53.4125 321.597 53.4125 322.041 53.8563Z" fill="#263238"/>
<path d="M322.368 58.6108C322.368 59.2448 321.851 59.7519 321.227 59.7519C320.604 59.7519 320.086 59.2342 320.086 58.6108C320.086 57.9874 320.604 57.4697 321.227 57.4697C321.851 57.4697 322.368 57.9874 322.368 58.6108Z" fill="#263238"/>
<path d="M272.861 55.4092H223.438V59.5298H272.861V55.4092Z" fill="#263238"/>
<path d="M332 207.509V316.48C332 319.53 329.53 322 326.491 322H165.52C162.47 322 160 319.53 160 316.48V207.509C160 204.47 162.47 202 165.52 202H326.491C329.53 202 332 204.47 332 207.509Z" fill="#EBEBEB"/>
<path d="M332 241.774C310.061 248.638 287.412 255.754 265.681 262.618L285.499 299.572L332 301.146V312.087L278.842 310.283L255.067 265.973C244.945 269.176 235.096 272.301 225.674 275.285L247.044 322H235.031L215.18 278.63C192.848 285.745 173.598 291.954 160 296.435V284.937C164.001 283.625 168.472 282.16 173.369 280.575C183.753 277.209 196.204 273.209 210.6 268.618L192.083 228.123L160 238.32V226.855L187.503 218.111L180.135 202H192.148L221.094 265.274C232.484 261.656 244.934 257.71 258.412 253.458C266.25 250.988 274.087 248.507 281.816 246.081L261.506 202H273.552L292.331 242.769C306.454 238.331 319.954 234.101 332 230.32V241.774Z" fill="white"/>
<rect x="159" y="336" width="171" height="40" rx="6" fill="#EBEBEB"/>
<path d="M326.279 83H165.721C163.114 83 161 85.3483 161 88.245V181.755C161 184.652 163.114 187 165.721 187H326.279C328.886 187 331 184.652 331 181.755V88.245C331 85.3483 328.886 83 326.279 83Z" fill="#EBEBEB"/>
<path d="M288.357 90.4626H204.135C201.958 90.4626 200.193 92.2306 200.193 94.4114V175.578C200.193 177.759 201.958 179.527 204.135 179.527H288.357C290.534 179.527 292.299 177.759 292.299 175.578V94.4114C292.299 92.2306 290.534 90.4626 288.357 90.4626Z" fill="white"/>
<path d="M213.416 136.546H277.69L276.401 125.003L257.882 121.033L240.674 124.038L219.946 126.077L214.802 131.979L213.416 136.546Z" fill="#263238"/>
<path opacity="0.2" d="M213.416 136.546H277.69L276.401 125.003L257.882 121.033L240.674 124.038L219.946 126.077L214.802 131.979L213.416 136.546Z" fill="black"/>
<path d="M231.296 136.546C231.296 140.311 228.252 143.359 224.495 143.359C220.737 143.359 217.694 140.311 217.694 136.546C217.694 132.782 220.737 129.734 224.495 129.734C228.252 129.734 231.296 132.782 231.296 136.546Z" fill="#263238"/>
<path opacity="0.2" d="M224.494 141.103C227.006 141.103 229.043 139.063 229.043 136.547C229.043 134.03 227.006 131.99 224.494 131.99C221.982 131.99 219.946 134.03 219.946 136.547C219.946 139.063 221.982 141.103 224.494 141.103Z" fill="black"/>
<path d="M275.697 136.546C275.697 140.311 272.654 143.359 268.896 143.359C265.138 143.359 262.095 140.311 262.095 136.546C262.095 132.782 265.138 129.734 268.896 129.734C272.654 129.734 275.697 132.782 275.697 136.546Z" fill="#263238"/>
<path opacity="0.2" d="M268.896 141.103C271.408 141.103 273.444 139.063 273.444 136.547C273.444 134.03 271.408 131.99 268.896 131.99C266.384 131.99 264.347 134.03 264.347 136.547C264.347 139.063 266.384 141.103 268.896 141.103Z" fill="black"/>
<path d="M282.076 130.482L281.329 135.808L277.148 137.131C277.148 137.131 277.04 128.127 267.943 128.127C258.846 128.127 260.016 138.856 260.016 138.856H258.424L255.424 137.565H235.779L234.068 138.856H232.909C232.909 138.856 233.873 128.127 224.495 128.127C215.116 128.127 216.308 138.856 216.308 138.856L210.947 136.546L210.416 131.132L212.658 129.733L213.199 126.446C213.438 126.262 213.687 126.088 213.936 125.925C220.206 121.716 228.783 121.152 228.783 121.152C236.158 113.634 239.147 112.571 239.147 112.571C256.074 111.389 272.221 113.211 272.221 113.211L277.148 119.536L278.307 120.479L279.509 121.467C280.256 124.906 280.04 128.127 280.04 128.127L282.076 130.482Z" fill="#407BFF"/>
<path opacity="0.6" d="M218.592 126.294L214.834 129.733H212.658L213.199 126.446C213.437 126.262 213.687 126.088 213.936 125.926L216.665 125.513L218.592 126.294Z" fill="white"/>
<path opacity="0.6" d="M280.039 128.128L278.675 127.618C278.675 124.765 276.964 121.901 276.964 121.901L278.307 120.48L279.509 121.467C280.256 124.906 280.039 128.128 280.039 128.128Z" fill="white"/>
<path d="M277.148 119.536C268.235 121.673 228.783 121.152 228.783 121.152C229.01 120.924 229.227 120.697 229.454 120.48C233.515 116.401 236.158 114.383 237.642 113.418C238.67 112.734 239.147 112.571 239.147 112.571C256.074 111.389 272.221 113.211 272.221 113.211L277.148 119.536Z" fill="#263238"/>
<path opacity="0.2" d="M282.076 130.482L281.329 135.809L277.148 137.132C277.148 137.132 277.04 128.128 267.943 128.128C258.846 128.128 260.016 138.857 260.016 138.857H258.424L255.424 137.566H235.779L234.068 138.857H232.909C232.909 138.857 233.873 128.128 224.495 128.128C215.116 128.128 216.308 138.857 216.308 138.857L210.947 136.546L210.416 131.133H214.835C214.835 131.133 218.051 125.872 225.123 125.872C232.195 125.872 234.469 131.133 234.469 131.133H257.146C257.146 131.133 261.001 125.796 266.676 125.514C272.351 125.232 275.697 127.618 275.697 127.618H278.675L280.04 128.128L282.076 130.482Z" fill="black"/>
<path d="M331.448 124.439V138.998H309.269C309.269 138.998 310.742 134.018 311.89 130.634C312.453 128.952 312.941 127.65 313.125 127.553C316.059 125.947 322.947 124.982 331.448 124.439Z" fill="#263238"/>
<path opacity="0.2" d="M331.448 124.439V138.998H309.269C309.269 138.998 310.742 134.018 311.89 130.634C312.453 128.952 312.941 127.65 313.125 127.553C316.059 125.947 322.947 124.982 331.448 124.439Z" fill="black"/>
<path d="M321.593 143.348C325.17 143.348 328.069 140.443 328.069 136.86C328.069 133.277 325.17 130.373 321.593 130.373C318.016 130.373 315.117 133.277 315.117 136.86C315.117 140.443 318.016 143.348 321.593 143.348Z" fill="#263238"/>
<path opacity="0.2" d="M321.593 142.599C324.757 142.599 327.322 140.029 327.322 136.86C327.322 133.69 324.757 131.121 321.593 131.121C318.429 131.121 315.864 133.69 315.864 136.86C315.864 140.029 318.429 142.599 321.593 142.599Z" fill="white"/>
<path d="M323.12 118.245C326.293 116.303 329.033 114.719 331.448 113.439V140.918H329.336L328.979 138.997L328.156 134.56C327.669 131.903 325.362 129.983 322.665 129.983H320.077C317.576 129.983 315.388 131.642 314.706 134.051L313.309 138.997L312.767 140.918L303.984 139.778L305.1 132.304L305.273 131.122L306.984 129.983L310.341 122.259L313.46 121.282L323.12 118.245Z" fill="#407BFF"/>
<path opacity="0.7" d="M315.117 121.825L310.991 128.833L306.995 129.983L310.352 122.259L313.471 121.282C314.446 121.565 315.117 121.825 315.117 121.825Z" fill="white"/>
<path opacity="0.4" d="M331.448 115.359V119.547C329.163 119.579 326.932 119.46 325.015 119.113C325.015 119.113 328.113 117.258 331.448 115.359Z" fill="black"/>
<path opacity="0.2" d="M331.448 132.478V140.918H329.336L328.979 138.998L328.156 134.561C327.669 131.903 325.362 129.983 322.665 129.983H320.077C317.576 129.983 315.388 131.643 314.706 134.051L313.309 138.998L312.767 140.918L303.984 139.779L305.1 132.305L311.695 130.374L311.89 130.634L313.125 132.272C313.125 132.272 315.28 128.117 322.633 128.117C328.503 128.117 330.777 131.231 331.448 132.478Z" fill="black"/>
<path d="M261.976 170.891H230.527C227.701 170.891 225.416 168.602 225.416 165.771C225.416 162.94 227.701 160.651 230.527 160.651H261.976C264.803 160.651 267.088 162.94 267.088 165.771C267.088 168.602 264.803 170.891 261.976 170.891Z" fill="#407BFF"/>
<mask id="mask0_2_1844" style="mask-type:alpha" maskUnits="userSpaceOnUse" x="161" y="101" width="170" height="83">
<path d="M326.279 101H165.721C163.114 101 161 102.874 161 105.186V179.814C161 182.126 163.114 184 165.721 184H326.279C328.886 184 331 182.126 331 179.814V105.186C331 102.874 328.886 101 326.279 101Z" fill="white"/>
</mask>
<g mask="url(#mask0_2_1844)">
<path d="M111.195 137.148L182.962 137.261L182.978 126.64L111.212 126.527L111.195 137.148Z" fill="#455A64"/>
<path d="M186.716 118.815C186.716 118.815 184.92 119.016 184.602 118.812C183.881 118.347 168.173 112.018 154.675 112C143.85 111.985 134.103 114.858 124.621 121.186C124.621 121.186 113.077 122.46 108.568 125.839C107.513 126.451 105.362 128.86 106.183 134.337C106.705 137.831 109.306 137.978 112.858 137.899C112.858 137.899 111.536 127.29 120.992 128.101C129.026 128.791 127.488 138.598 127.488 138.598L167.742 138.66C167.742 138.66 167.919 134.304 168.089 133.248C168.43 131.134 171.057 127.671 175.962 128.185C181.341 128.75 183.131 133.659 182.787 137.802C182.787 137.802 188.462 139.029 189.229 134.463L190.582 134.042C190.582 134.042 191.103 124.572 186.375 120.589L187.391 119.914L186.716 118.813V118.815Z" fill="#407BFF"/>
<path d="M184.039 118.512C184.039 118.512 183.703 119.425 182.55 119.323C181.61 119.24 176.237 117.205 174.28 116.454C173.719 116.238 173.271 115.782 173.11 115.201C173.072 115.057 173.055 114.924 173.084 114.827C173.084 114.827 181.435 116.832 184.039 118.512Z" fill="#263238"/>
<g opacity="0.3">
<path d="M176.078 119.323C176.078 119.323 176.645 119.815 176.077 120.398C175.509 120.979 172.793 122.999 171.532 123.12C170.272 123.242 131.991 125.799 129.722 125.15C127.453 124.501 126.131 123.352 126.699 122.696L127.728 122.356L145.776 122.725L176.08 119.323H176.078Z" fill="white"/>
</g>
<g opacity="0.7">
<path d="M190.005 127.464C190.005 127.464 187.776 128.124 186.825 126.367C185.875 124.609 184.824 122.751 184.824 122.35C184.824 121.845 185.184 120.228 186.376 120.557C186.376 120.557 189.689 123.196 190.005 127.464Z" fill="white"/>
</g>
<path d="M175.7 119.323C175.7 119.323 172.353 122.236 170.903 122.233C169.453 122.232 131.235 124.551 129.534 123.863C127.833 123.175 126.948 122.612 126.948 122.612C126.948 122.612 139.419 113.63 153.952 114.062C164.617 114.378 175.7 119.322 175.7 119.322V119.323Z" fill="#263238"/>
<path d="M179.575 140.471C182.076 137.97 182.076 133.916 179.575 131.415C177.074 128.914 173.019 128.914 170.518 131.415C168.018 133.916 168.018 137.97 170.518 140.471C173.019 142.972 177.074 142.972 179.575 140.471Z" fill="#263238"/>
<path d="M175.054 131.678C172.698 131.675 170.79 133.583 170.785 135.939C170.781 138.289 172.683 140.203 175.039 140.208C177.396 140.211 179.304 138.303 179.309 135.953C179.312 133.597 177.41 131.683 175.054 131.679V131.678ZM171.631 135.941C171.634 134.054 173.165 132.521 175.052 132.524C176.939 132.527 178.465 134.065 178.462 135.952C178.459 137.839 176.928 139.365 175.041 139.362C173.154 139.359 171.628 137.828 171.631 135.941Z" fill="#1E282D"/>
<path d="M175.052 132.522C173.165 132.519 171.634 134.053 171.631 135.938C171.628 137.825 173.156 139.356 175.041 139.36C176.928 139.363 178.459 137.835 178.462 135.95C178.465 134.064 176.938 132.525 175.052 132.522Z" fill="#1E282D"/>
</g>
<path opacity="0.2" d="M192.251 142.074L197.525 149.126V135.034L192.251 142.074Z" fill="black"/>
<path opacity="0.2" d="M300.24 142.074L294.966 135.034V149.126L300.24 142.074Z" fill="black"/>
<path d="M184.562 307.805H174.044V418.01H184.562V307.805Z" fill="#263238"/>
<path opacity="0.2" d="M184.562 307.805H174.044V418.01H184.562V307.805Z" fill="black"/>
<path d="M259.863 307.805H249.344V418.01H259.863V307.805Z" fill="#263238"/>
<path opacity="0.2" d="M259.863 307.805H249.344V418.01H259.863V307.805Z" fill="black"/>
<path d="M84.1556 307.805H73.6375V418.01H84.1556V307.805Z" fill="#263238"/>
<path d="M8.85463 307.805H-1.66357V418.01H8.85463V307.805Z" fill="#263238"/>
<path d="M281.419 303.73V311.881C281.419 313.196 280.365 314.266 279.052 314.266H-11.6193C-12.9323 314.266 -14 313.196 -14 311.881V303.73C-14 302.429 -12.9323 301.359 -11.6193 301.359H279.052C280.365 301.359 281.419 302.429 281.419 303.73Z" fill="#263238"/>
<path opacity="0.1" d="M281.419 303.73V311.881C281.419 313.196 280.365 314.266 279.052 314.266H-11.6193C-12.9323 314.266 -14 313.196 -14 311.881V303.73C-14 302.429 -12.9323 301.359 -11.6193 301.359H279.052C280.365 301.359 281.419 302.429 281.419 303.73Z" fill="white"/>
<path opacity="0.2" d="M68.0535 303.73V311.881C68.0535 313.196 67.0003 314.266 65.6873 314.266H-11.6193C-12.9323 314.266 -14 313.196 -14 311.881V303.73C-14 302.429 -12.9323 301.359 -11.6193 301.359H65.6873C67.0003 301.359 68.0535 302.429 68.0535 303.73Z" fill="white"/>
<path d="M137.883 204.379L150.405 182.193L156.908 181.35C156.908 181.35 155.4 196.825 152.587 203.324C152.587 203.324 150.283 211.043 141.859 211.157C133.436 211.272 137.886 204.387 137.886 204.387L137.883 204.379Z" fill="#FFC7B1"/>
<path d="M131.774 174.917C136.808 178.528 135.947 188.652 137.928 191.546C139.665 204.021 143.718 193.863 143.718 193.863L154.721 195.6C154.721 195.6 155.348 202.226 149.509 210.656C143.671 219.101 132.549 217.856 126.442 204.309C120.336 190.762 131.789 174.917 131.789 174.917H131.774Z" fill="#407BFF"/>
<path d="M131.774 174.917C136.808 178.528 135.947 188.652 137.928 191.546C139.665 204.021 143.718 193.863 143.718 193.863L154.721 195.6C154.721 195.6 155.348 202.226 149.509 210.656C143.671 219.101 132.549 217.856 126.442 204.309C120.336 190.762 131.789 174.917 131.789 174.917H131.774Z" fill="white" fill-opacity="0.2"/>
<path d="M197.963 410.141L208.017 407.38L206.215 382.823L196.191 385.598L197.963 410.141Z" fill="#EBB376"/>
<path d="M208.627 406.037L196.98 406.843C196.578 406.843 196.25 407.186 196.265 407.604L196.34 416.899C196.414 417.899 197.278 418.674 198.276 418.615C202.342 418.272 204.263 417.899 209.387 417.496C212.529 417.272 218.77 417.123 223.03 416.123C227.289 415.138 226.187 410.946 224.311 410.991C219.827 411.065 213.557 408.604 210.474 406.5C209.938 406.142 209.297 405.978 208.642 406.023L208.627 406.037Z" fill="#263238"/>
<path d="M212.425 407.559C211.487 407.604 210.548 407.544 209.625 407.38C209.536 407.38 209.446 407.305 209.431 407.216C209.417 407.126 209.431 407.022 209.506 406.962C209.819 406.709 212.634 404.501 213.929 404.903C214.227 405.008 214.466 405.247 214.54 405.56C214.749 406.022 214.659 406.56 214.332 406.932C213.795 407.38 213.11 407.604 212.41 407.574L212.425 407.559ZM213.795 405.396C213.095 405.172 211.427 406.172 210.28 407.022C212.157 407.261 213.527 407.112 213.974 406.589C214.168 406.336 214.212 406.007 214.093 405.709C214.063 405.56 213.944 405.441 213.795 405.396Z" fill="#263238"/>
<path d="M209.685 407.38C209.685 407.38 209.625 407.409 209.581 407.394C209.506 407.365 209.461 407.29 209.432 407.215C209.432 407.126 208.97 404.112 209.938 403.023C210.206 402.74 210.564 402.59 210.951 402.62C211.383 402.605 211.755 402.889 211.874 403.292C212.187 404.411 210.787 406.693 209.804 407.38C209.759 407.394 209.715 407.394 209.67 407.38H209.685ZM210.832 403.142C210.638 403.142 210.459 403.247 210.325 403.396C209.744 404.038 209.789 405.768 209.878 406.738C210.712 405.917 211.591 404.202 211.427 403.456C211.398 403.321 211.293 403.157 210.951 403.142H210.832Z" fill="#263238"/>
<path opacity="0.2" d="M196.191 385.597L206.215 382.837L207.242 396.876L197.159 399.129L196.191 385.597Z" fill="black"/>
<path d="M184.842 409.781L175.354 414.108L172.941 403.903L169.694 390.177L179.152 385.835L182.399 399.547L184.842 409.781Z" fill="#EBB376"/>
<path opacity="0.2" d="M182.399 399.547L172.941 403.903L169.694 390.177L179.152 385.835L182.399 399.547Z" fill="black"/>
<path d="M185.229 408.365L173.85 411.021C173.447 411.096 173.179 411.484 173.254 411.886L174.803 421.047C175.026 422.032 176.009 422.643 176.992 422.435C180.954 421.435 182.786 420.764 187.776 419.555C190.844 418.824 196.98 417.69 201.031 416.034C205.082 414.378 203.325 410.424 201.478 410.767C197.069 411.558 190.486 410.126 187.105 408.544C186.51 408.276 185.854 408.216 185.229 408.365Z" fill="#263238"/>
<path d="M189.22 409.26C188.297 409.454 187.374 409.543 186.435 409.528C186.346 409.528 186.256 409.484 186.212 409.394C186.182 409.305 186.197 409.2 186.242 409.125C186.51 408.827 188.923 406.186 190.293 406.38C190.606 406.425 190.874 406.634 190.993 406.932C191.261 407.35 191.276 407.887 191.008 408.32C190.546 408.842 189.92 409.185 189.22 409.26ZM190.233 406.902C189.503 406.798 188.029 408.036 187.016 409.066C188.908 409.006 190.233 408.633 190.606 408.051C190.754 407.768 190.74 407.44 190.576 407.171C190.516 407.022 190.382 406.917 190.233 406.902Z" fill="#263238"/>
<path d="M186.48 409.514C186.48 409.514 186.42 409.559 186.391 409.559C186.316 409.529 186.257 409.484 186.212 409.409C186.197 409.32 185.274 406.426 186.048 405.187C186.257 404.874 186.599 404.665 186.986 404.62C187.403 404.531 187.835 404.754 188.014 405.142C188.491 406.187 187.478 408.678 186.614 409.499C186.569 409.529 186.525 409.529 186.48 409.529V409.514ZM186.927 405.142C186.733 405.187 186.569 405.306 186.48 405.471C186.003 406.202 186.316 407.888 186.569 408.842C187.269 407.903 187.865 406.067 187.582 405.366C187.523 405.232 187.403 405.083 187.061 405.127H186.942L186.927 405.142Z" fill="#263238"/>
<path d="M114.527 270.358L111.474 236.431L54.9211 237.759C54.9211 237.759 48.2188 285.024 53.0892 293.708C61.7724 309.209 118.787 300.406 132.117 301.734C137.553 304.644 166.701 401.352 166.701 401.352L183.01 394.758C183.01 394.758 165.464 313.133 161.473 297.751C155.917 276.371 133.264 276.744 114.542 270.343L114.527 270.358Z" fill="#407BFF"/>
<path opacity="0.6" d="M114.527 270.358L111.474 236.431L54.9211 237.759C54.9211 237.759 48.2188 285.024 53.0892 293.708C61.7724 309.209 118.787 300.406 132.117 301.734C137.553 304.644 166.701 401.352 166.701 401.352L183.01 394.758C183.01 394.758 165.464 313.133 161.473 297.751C155.917 276.371 133.264 276.744 114.542 270.343L114.527 270.358Z" fill="white"/>
<path d="M208.24 393.101L193.853 394.429C193.853 394.429 176.203 304.419 174.848 304.046C172.39 303.345 165.241 302.539 161.398 301.54C134.694 294.587 68.9514 281.786 68.9514 281.786L93.1989 258.392C93.1989 258.392 203.131 271.611 205.574 297.452C206.751 309.88 208.255 393.101 208.255 393.101H208.24Z" fill="#407BFF"/>
<path opacity="0.6" d="M208.24 393.101L193.853 394.429C193.853 394.429 176.203 304.419 174.848 304.046C172.39 303.345 165.241 302.539 161.398 301.54C134.694 294.587 68.9514 281.786 68.9514 281.786L93.1989 258.392C93.1989 258.392 203.131 271.611 205.574 297.452C206.751 309.88 208.255 393.101 208.255 393.101H208.24Z" fill="white"/>
<path opacity="0.2" d="M170.945 304.122C168.488 303.421 165.226 302.555 161.383 301.556C162.441 302.123 159.358 288.098 156.275 284.473C150.153 277.252 125.593 273.343 116.791 271.925C109.418 270.747 84.709 268.554 84.709 268.554C84.709 268.554 125.099 267.459 158 276.5C165.766 280.68 174.594 294.185 170.96 304.122H170.945Z" fill="black"/>
<path d="M112.754 243.369C116.061 224.376 121.631 198.923 131.923 175.126C126.501 172.829 120.931 170.934 115.242 169.457C106.931 167.204 98.5007 165.429 89.9962 164.146C84.1131 163.519 78.1853 163.355 72.2723 163.653C72.2723 163.653 59.5231 187.51 53.0591 243.369H112.754Z" fill="#407BFF"/>
<path d="M94.3456 180.245C94.3456 180.245 79.5111 168.384 77.6345 161.371C75.7578 154.359 84.4708 149.63 96.6839 152.33C108.897 155.031 120.202 162.729 116.597 171.8C112.993 180.871 106.678 182.93 106.678 182.93C106.678 182.93 104.056 177.723 94.3456 180.245Z" fill="#407BFF"/>
<path d="M124.609 186.804L127.504 185.646L133.83 182.554L135.725 174.538C136.026 173.285 136.794 172.199 137.871 171.498C139.015 170.755 140.418 170.521 141.746 170.838L147.232 173.085C147.691 173.268 148.042 173.661 148.133 174.145C148.209 174.554 148.108 174.947 147.407 174.888C146.046 174.78 143.207 174.479 143.207 174.479L144.501 179.047C144.844 180.241 144.71 181.527 144.134 182.629L143.307 184.207L141.746 185.646L140.244 186.804C140.244 186.804 131.288 197.762 121.134 198.965C115.03 199.691 110.132 194.332 110.132 194.332L111.869 192.358L124.609 186.804Z" fill="#FFC7B1"/>
<path d="M143.374 174.796C143.374 174.796 143.232 174.604 142.923 174.395C142.614 174.195 142.121 173.936 141.512 173.961C140.885 173.995 140.426 174.404 140.268 174.763C140.101 175.139 140.209 175.389 140.234 175.381C140.284 175.381 140.251 175.139 140.435 174.855C140.61 174.579 141.019 174.262 141.528 174.237C142.046 174.212 142.505 174.412 142.831 174.571C143.157 174.729 143.357 174.838 143.374 174.805V174.796Z" fill="#AA6550"/>
<path d="M141.028 177.644C141.028 177.644 141.145 177.494 141.329 177.268C141.504 177.051 141.796 176.775 142.189 176.625C142.581 176.467 142.982 176.467 143.257 176.508C143.541 176.55 143.708 176.608 143.733 176.575C143.75 176.55 143.6 176.416 143.299 176.316C143.007 176.224 142.548 176.191 142.088 176.366C141.629 176.55 141.32 176.884 141.17 177.16C141.011 177.435 140.995 177.627 141.028 177.644Z" fill="#AA6550"/>
<path opacity="0.2" d="M94.3456 180.245C94.3456 180.245 79.5111 168.384 77.6345 161.371C75.7578 154.359 84.4708 149.63 96.6839 152.33C108.897 155.031 120.202 162.729 116.597 171.8C112.993 180.871 106.678 182.93 106.678 182.93C106.678 182.93 104.056 177.723 94.3456 180.245Z" fill="white"/>
<path d="M102.952 143.699C100.689 151.86 95.7966 165.447 88.1262 167.804C88.1262 167.804 93.316 177.835 101.776 178.611C107.153 179.103 110.131 173.016 110.131 173.016C104.65 171.986 106.736 167.958 111.07 162.915L102.952 143.714V143.699Z" fill="#FFBF9D"/>
<path opacity="0.2" d="M107.363 150.644L112.159 162.012C111.131 163.176 110.208 164.429 109.403 165.757C104.012 166.16 100.139 157.596 101.465 154.12C101.941 152.688 106.41 151.807 107.378 150.644H107.363Z" fill="black"/>
<path d="M112.159 212.903H112.129C111.92 212.903 111.771 212.709 111.786 212.501C113.022 194.224 106.916 182.288 106.856 182.184C106.767 182.005 106.827 181.781 107.02 181.677C107.199 181.587 107.422 181.647 107.527 181.841C107.586 181.96 113.797 194.06 112.546 212.56C112.546 212.754 112.367 212.903 112.173 212.903H112.159Z" fill="white"/>
<path d="M89.5945 206.399C89.5945 206.399 89.4605 206.384 89.4009 206.354C89.2222 206.25 89.1626 206.026 89.2669 205.847C95.9543 194.463 93.9883 179.036 93.9734 178.872C93.9436 178.663 94.0925 178.484 94.2862 178.454C94.4798 178.425 94.6734 178.574 94.7032 178.768C94.7181 178.932 96.7139 194.598 89.9073 206.22C89.8329 206.339 89.7137 206.399 89.5797 206.399H89.5945Z" fill="white"/>
<path d="M111.875 212.277C111.875 212.277 113.067 212.337 112.858 214.276L111.116 214.097C111.116 214.097 110.922 212.471 111.875 212.277Z" fill="white"/>
<path d="M89.7133 205.34C89.7133 205.34 90.7112 206.011 89.5346 207.563L88.1196 206.519C88.1196 206.519 88.775 205.027 89.7133 205.34Z" fill="white"/>
<path d="M73.6878 163.668C79.4219 164.996 93.1691 188.808 100.512 193.194C107.855 197.581 128.17 183.467 128.17 183.467L135.126 192.135C135.126 192.135 118.668 206.667 104.265 207.01C89.8627 207.353 69.443 186.958 66.4046 179.468C63.3662 171.994 66.7174 162.042 73.6878 163.653V163.668Z" fill="#407BFF"/>
<path opacity="0.2" d="M73.6878 163.668C79.4219 164.996 93.1691 188.808 100.512 193.194C107.855 197.581 128.17 183.467 128.17 183.467L135.126 192.135C135.126 192.135 118.668 206.667 104.265 207.01C89.8627 207.353 69.443 186.958 66.4046 179.468C63.3662 171.994 66.7174 162.042 73.6878 163.653V163.668Z" fill="white"/>
<path d="M123.014 136.775C124.884 137.312 127.075 136.235 127.799 134.425C128.523 132.615 127.671 130.326 125.947 129.426C127.34 128.405 127.964 126.466 127.438 124.819C126.909 123.181 125.261 121.965 123.534 121.953C123.743 120.262 123.01 118.489 121.667 117.441C120.324 116.394 118.425 116.106 116.836 116.725C115.246 114.827 112.274 114.265 110.102 115.457C108.52 114.879 106.601 115.453 105.594 116.793C104.586 118.134 104.564 120.137 105.551 121.496" fill="#263238"/>
<path d="M121.13 158.851C121.911 154.55 122.795 145.563 123.495 137.416C124.251 128.663 118.158 120.791 109.491 119.337L108.633 119.193C99.2591 118.173 93.1518 125.57 92.3917 134.968L88.1265 167.804L110.132 173.016L110.351 167.65C110.351 167.65 119.512 167.767 121.126 158.859L121.13 158.851Z" fill="#FFBF9D"/>
<path d="M110.431 167.645C110.431 167.645 104.677 167.028 99.3137 162.253C99.3137 162.253 100.981 169.137 110.029 169.834L110.439 167.649L110.431 167.645Z" fill="#FF9A6C"/>
<path d="M118.369 144.554C118.283 145.233 117.634 145.711 116.923 145.63C116.213 145.549 115.709 144.938 115.804 144.263C115.891 143.584 116.54 143.106 117.25 143.187C117.961 143.267 118.464 143.879 118.369 144.554Z" fill="#263238"/>
<path d="M120.842 141.458C120.655 141.601 119.812 140.719 118.439 140.491C117.073 140.247 115.945 140.781 115.826 140.585C115.765 140.501 115.979 140.225 116.471 139.98C116.954 139.731 117.748 139.548 118.594 139.696C119.449 139.848 120.117 140.278 120.471 140.671C120.834 141.068 120.929 141.389 120.845 141.45L120.842 141.458Z" fill="#263238"/>
<path d="M106.206 142.633C106.119 143.311 105.47 143.789 104.76 143.708C104.049 143.628 103.546 143.016 103.641 142.341C103.727 141.662 104.376 141.184 105.086 141.265C105.797 141.346 106.3 141.957 106.206 142.633Z" fill="#263238"/>
<path d="M107.454 139.528C107.28 139.686 106.369 138.872 104.979 138.753C103.599 138.609 102.52 139.232 102.386 139.049C102.313 138.97 102.507 138.675 102.984 138.395C103.453 138.111 104.216 137.866 105.082 137.945C105.948 138.025 106.644 138.409 107.029 138.777C107.426 139.139 107.541 139.459 107.454 139.528Z" fill="#263238"/>
<path d="M110.577 150.458C110.581 150.382 111.465 150.372 112.872 150.431C113.228 150.457 113.574 150.44 113.672 150.211C113.793 149.972 113.713 149.571 113.61 149.13C113.424 148.229 113.228 147.284 113.024 146.287C112.222 142.25 111.712 138.955 111.874 138.918C112.031 138.888 112.813 142.134 113.615 146.172C113.803 147.161 113.984 148.119 114.158 149.025C114.22 149.448 114.377 149.941 114.111 150.428C113.975 150.679 113.684 150.816 113.451 150.842C113.214 150.876 113.016 150.841 112.84 150.823C111.439 150.661 110.577 150.525 110.581 150.449L110.577 150.458Z" fill="#263238"/>
<path d="M107.743 134.815C107.602 135.19 106.368 134.953 104.889 135.087C103.416 135.184 102.218 135.611 102.037 135.263C101.955 135.092 102.178 134.752 102.675 134.403C103.16 134.059 103.935 133.741 104.815 133.672C105.696 133.603 106.497 133.79 107.02 134.061C107.546 134.324 107.8 134.636 107.743 134.815Z" fill="#263238"/>
<path d="M121.372 137.631C121.036 137.875 120.093 137.318 118.867 137.017C117.65 136.672 116.547 136.695 116.389 136.318C116.322 136.134 116.553 135.865 117.076 135.682C117.591 135.496 118.401 135.435 119.235 135.655C120.07 135.876 120.739 136.326 121.095 136.739C121.459 137.156 121.52 137.511 121.372 137.631Z" fill="#263238"/>
<path d="M123.319 133.181C123.319 133.181 121.905 127.198 119.427 125.434C116.428 123.303 114.421 126.646 111.463 125.258C108.497 123.866 105.643 121.826 102.06 123.693C98.1408 125.735 99.4608 127.856 98.5778 131.784C95.0016 147.691 91.3076 151.746 91.7432 144.037C91.7921 143.197 89.5998 142.145 89.8513 138.586C90.1748 133.974 90.9244 128.431 92.4865 125.383C93.798 122.808 95.6661 121.196 98.7867 119.597C103.717 117.066 109.746 118.014 113.767 119.111C117.788 120.207 124.877 126.242 123.323 133.172L123.319 133.181Z" fill="#263238"/>
<path d="M92.3562 143.893C92.5316 142.507 91.5248 141.216 90.1354 141.117C88.4458 140.995 86.4348 141.627 85.9658 145.084C85.1365 151.222 91.4649 150.788 91.4985 150.618C91.5193 150.501 92.033 146.464 92.3562 143.893Z" fill="#FFBF9D"/>
<path d="M90.4715 148.128C90.4715 148.128 90.3594 148.186 90.1597 148.246C89.9717 148.301 89.6656 148.316 89.3569 148.155C88.743 147.825 88.3335 146.722 88.458 145.614C88.5237 145.052 88.704 144.539 88.9662 144.128C89.2156 143.703 89.5458 143.427 89.88 143.415C90.2129 143.383 90.4177 143.606 90.4729 143.794C90.5316 143.974 90.4792 144.097 90.5038 144.107C90.5167 144.122 90.6462 144.023 90.6306 143.765C90.6269 143.637 90.5659 143.485 90.4418 143.345C90.3096 143.202 90.105 143.115 89.8771 143.104C89.3969 143.074 88.9173 143.449 88.6341 143.909C88.3263 144.358 88.0982 144.938 88.0326 145.568C87.9001 146.808 88.3776 148.047 89.2299 148.43C89.6473 148.608 90.0246 148.517 90.2289 148.401C90.4366 148.277 90.4925 148.146 90.4715 148.128Z" fill="#FF9A6C"/>
<path d="M94.4618 132.089C95.1604 132.764 95.908 133.461 96.8443 133.715C97.7806 133.97 98.9706 133.607 99.2858 132.687C99.4324 132.275 99.4094 131.762 99.7431 131.479C100.137 131.144 100.737 131.371 101.24 131.508C102.987 131.993 105.007 131.046 105.749 129.398C106.085 130.151 107.143 130.303 107.904 129.97C108.662 129.645 109.229 128.997 109.867 128.476C110.505 127.955 111.353 127.533 112.137 127.781C112.58 127.921 112.956 128.265 113.416 128.297C114.23 128.364 114.779 127.486 115.031 126.713C115.283 125.94 115.539 125.024 116.293 124.707C116.989 124.414 117.761 124.782 118.484 125.013C119.208 125.245 120.188 125.237 120.493 124.545C120.65 124.177 120.557 123.76 120.404 123.395C119.706 121.742 117.743 120.721 115.988 121.114C115.729 119.001 114.108 117.109 112.06 116.535C110.004 115.958 107.639 116.738 106.325 118.412C105.233 117.027 103.442 116.214 101.674 116.321C99.9101 116.42 98.2211 117.431 97.2992 118.933C95.881 118.29 94.0926 118.581 92.9446 119.639C91.7966 120.697 91.3682 122.449 91.8916 123.92C90.6865 124.364 89.5628 125.297 89.3275 126.551C89.0888 127.813 90.1099 129.274 91.3821 129.15C90.7269 130.05 90.9031 131.451 91.7595 132.165C92.6193 132.87 94.0294 132.785 94.7853 131.966" fill="#263238"/>
<path d="M116.154 122.993C116.154 122.993 116.156 123.033 116.137 123.102C116.117 123.171 116.096 123.288 116.04 123.419C115.933 123.692 115.754 124.09 115.397 124.518C115.044 124.938 114.522 125.412 113.804 125.734C113.094 126.06 112.164 126.244 111.183 126.028L111.311 125.909C111.412 126.465 111.254 127.084 110.901 127.572C110.561 128.075 110.092 128.494 109.602 128.894C109.354 129.088 109.129 129.321 108.8 129.481C108.482 129.635 108.131 129.689 107.767 129.679C107.064 129.649 106.321 129.304 105.927 128.642L106.168 128.619C105.806 129.809 104.915 130.899 103.689 131.46C103.039 131.782 102.277 131.912 101.579 131.778C100.878 131.653 100.249 131.337 99.6795 131.016L99.8524 130.974C99.3966 131.679 98.7806 132.239 98.0895 132.611C97.4066 132.987 96.5621 133.13 95.8664 132.833C94.4741 132.287 93.7183 130.93 93.72 129.769L93.8487 129.853C93.0675 130.12 92.2927 130.031 91.7011 129.808C91.0979 129.589 90.6499 129.233 90.3514 128.912C90.0483 128.58 89.8901 128.27 89.7975 128.057C89.7165 127.838 89.6895 127.721 89.693 127.712C89.7315 127.69 89.8188 128.211 90.4308 128.84C90.7362 129.144 91.1749 129.477 91.7605 129.668C92.3345 129.865 93.0683 129.936 93.7982 129.677L93.9231 129.634L93.9233 129.769C93.9449 130.852 94.6678 132.128 95.9572 132.62C96.5874 132.889 97.3326 132.753 97.977 132.399C98.6214 132.045 99.2106 131.503 99.6372 130.843L99.7024 130.736L99.817 130.785C100.375 131.11 100.979 131.416 101.628 131.528C102.281 131.652 102.96 131.536 103.583 131.231C104.736 130.707 105.571 129.68 105.925 128.554L106.016 128.273L106.167 128.531C106.505 129.101 107.162 129.42 107.801 129.441C108.113 129.458 108.436 129.403 108.712 129.279C108.979 129.151 109.213 128.922 109.468 128.731C109.955 128.339 110.409 127.933 110.732 127.471C111.063 127.012 111.205 126.473 111.119 125.972L111.098 125.818L111.248 125.853C112.17 126.072 113.061 125.911 113.749 125.614C114.456 125.316 114.964 124.875 115.327 124.478C116.038 123.65 116.131 123.002 116.172 123.02L116.154 122.993Z" fill="#455A64"/>
<path d="M106.242 151.618C107.859 152.202 109.402 152.986 110.831 153.944L110.842 153.987C110.466 155.094 109.916 156.292 108.835 156.74C108.026 157.072 107.054 156.879 106.382 156.322C105.711 155.764 105.346 155.009 105.349 154.14C105.353 153.27 105.836 152.364 106.233 151.614L106.242 151.618Z" fill="#FF9A6C"/>
<path d="M107.796 156.769C107.811 156.688 107.062 156.813 106.32 156.081C105.959 155.724 105.648 155.185 105.592 154.522C105.528 153.856 105.698 153.116 106.05 152.406C106.128 152.245 106.246 152.015 106.32 151.931C106.37 151.904 106.287 151.917 106.352 151.925L106.597 152.03C106.939 152.204 107.267 152.364 107.596 152.523C108.191 152.806 108.765 153.071 109.306 153.321C110.286 153.768 110.907 154.014 110.931 153.957C110.956 153.899 110.389 153.551 109.445 153.042C108.918 152.759 108.366 152.465 107.781 152.157C107.456 151.99 107.131 151.822 106.789 151.647C106.691 151.605 106.633 151.561 106.51 151.509C106.389 151.428 106.082 151.491 106.003 151.631C105.829 151.857 105.775 152.008 105.659 152.21C105.287 152.97 105.094 153.807 105.196 154.566C105.277 155.327 105.678 155.952 106.114 156.312C106.544 156.689 107.018 156.824 107.327 156.849C107.647 156.87 107.81 156.804 107.801 156.781L107.796 156.769Z" fill="#263238"/>
<path d="M147.295 162.733L155.297 160.764C156.506 160.467 157.937 161.603 157.783 162.862L153.586 180.517C153.428 181.201 152.889 181.737 152.208 181.905L142.448 184.28C141.291 184.401 140.58 183.26 140.877 182.473L144.869 165.213C145.135 163.986 146.076 163.024 147.293 162.725L147.295 162.733Z" fill="#455A64"/>
<path d="M148.069 163.541L156.072 161.573C157.077 161.325 157.985 162.22 157.743 163.226L153.657 180.492C153.499 181.176 152.96 181.713 152.279 181.88L142.63 184.253C142.038 184.399 141.505 183.877 141.643 183.284L145.636 166.023C145.902 164.797 146.843 163.834 148.059 163.535L148.069 163.541Z" fill="#263238"/>
<path d="M150 169.337L155.402 169.493L157.803 172.917L156.69 183.647L149.728 183.647L151.253 180.261L150.144 178.203C150.144 178.203 147.556 178.324 147.372 177.991C147.188 177.659 147.097 176.34 147.427 176.149C147.759 175.964 150.528 175.973 150.528 175.973C150.528 175.973 146.807 174.748 146.758 174.348C146.702 173.951 146.673 172.903 147.206 172.583C147.741 172.272 153.199 172.754 153.199 172.754L154.584 174.203L154.234 171.21C154.234 171.21 149.677 171.562 150.01 169.315L150 169.337Z" fill="#FFC7B1"/>
<path d="M152.664 178.455C152.664 178.455 152.721 178.247 152.648 177.927C152.583 177.604 152.399 177.173 152.071 176.787C151.742 176.4 151.342 176.156 151.04 176.035C150.73 175.917 150.531 175.91 150.524 175.939C150.497 176.011 151.27 176.226 151.875 176.956C152.49 177.665 152.588 178.465 152.664 178.455Z" fill="#AA6550"/>
<path d="M154.605 176.809C154.605 176.809 154.294 176.398 153.966 175.647C153.786 175.277 153.595 174.804 153.231 174.368C153.045 174.152 152.825 173.939 152.533 173.797C152.241 173.655 151.912 173.607 151.586 173.592C150.308 173.598 149.176 173.639 148.342 173.669C147.511 173.706 146.999 173.743 147.003 173.777C147.007 173.811 147.515 173.838 148.344 173.846C149.169 173.864 150.321 173.851 151.573 173.846C151.879 173.858 152.171 173.903 152.418 174.017C152.664 174.131 152.876 174.321 153.045 174.516C153.395 174.913 153.604 175.361 153.799 175.725C154.18 176.475 154.579 176.836 154.605 176.809Z" fill="#AA6550"/>
<path d="M155.374 175.56C155.434 175.529 155.274 175.116 155.004 174.646C154.734 174.175 154.47 173.819 154.413 173.857C154.353 173.888 154.513 174.301 154.783 174.771C155.053 175.241 155.317 175.598 155.374 175.56Z" fill="#AA6550"/>
<path d="M152.429 165.607C152.567 166.167 152.227 166.741 151.659 166.88C151.091 167.02 150.526 166.677 150.386 166.11C150.246 165.542 150.589 164.976 151.156 164.837C151.724 164.697 152.29 165.04 152.429 165.607Z" fill="#FAFAFA"/>
<path d="M58.8423 242.62C58.8423 242.62 68.234 249.66 71.6029 265.514C74.9718 281.356 87.6112 316.401 58.8423 302.563L59.5815 299.285C59.5815 299.285 68.7551 307.127 72.1118 301.847C75.4565 296.566 73.7236 268.233 60.2116 253.181L58.8423 242.62Z" fill="#263238"/>
<path d="M39.4653 236.052C39.4653 236.052 42.8827 229.169 47.9118 229.012C52.9409 228.854 54.6981 230.286 54.383 235.251L52.1169 235.409C52.1169 235.409 54.4072 231.257 48.9418 231.087C43.4765 230.917 41.9132 236.052 41.9132 236.052H39.4653Z" fill="#263238"/>
<path d="M12.0414 305.258C12.0414 305.258 7.61826 277.835 19.1307 269.52C19.1307 269.52 17.3008 263.766 26.5713 244.853C30.4128 237.011 33.6726 234.85 36.9204 234.717L59.3635 233.782C61.7266 233.685 63.7745 235.397 64.0896 237.752C65.665 249.478 69.4702 283.468 64.1987 305.258H12.0536H12.0414Z" fill="#263238"/>
<path opacity="0.1" d="M12.0414 305.258C12.0414 305.258 7.61826 277.835 19.1307 269.52C19.1307 269.52 17.3008 263.766 26.5713 244.853C30.4128 237.011 33.6726 234.85 36.9204 234.717L59.3635 233.782C61.7266 233.685 63.7745 235.397 64.0896 237.752C65.665 249.478 69.4702 283.468 64.1987 305.258H12.0536H12.0414Z" fill="white"/>
<path d="M48.0934 263.766C50.3111 263.851 52.044 261.799 51.535 259.639C50.4928 255.171 47.5845 248.641 39.4652 247.427C30.7642 246.128 25.2504 254.006 22.6934 258.959C21.7846 260.731 23.0206 262.843 25.0202 262.916L48.0934 263.766Z" fill="#263238"/>
<path d="M15.7012 276.391C16.2708 274.424 45.2699 275.59 47.1846 276.391C49.0993 277.192 46.7847 297.355 45.0639 299.285C43.3431 301.203 15.0589 299.929 12.9019 299.285C10.7448 298.642 11.0599 292.56 15.7012 276.391Z" fill="#263238"/>
<path opacity="0.2" d="M48.0934 263.766C50.3111 263.851 52.044 261.799 51.535 259.639C50.4928 255.171 47.5845 248.641 39.4652 247.427C30.7642 246.128 25.2504 254.006 22.6934 258.959C21.7846 260.731 23.0206 262.843 25.0202 262.916L48.0934 263.766Z" fill="white"/>
<path opacity="0.2" d="M15.7012 276.391C16.2708 274.424 45.2699 275.59 47.1846 276.391C49.0993 277.192 46.7847 297.355 45.0639 299.285C43.3431 301.203 15.0589 299.929 12.9019 299.285C10.7448 298.642 11.0599 292.56 15.7012 276.391Z" fill="white"/>
<path d="M62.199 283.723C62.199 283.723 62.1505 283.723 62.1142 283.723C61.787 283.674 61.5446 283.371 61.5931 283.043C63.1442 271.353 60.6842 242.899 60.1631 240.847C59.6663 238.832 58.3938 237.752 56.4064 237.618C53.91 237.46 33.9512 237.618 33.7573 237.618C33.4301 237.618 33.1514 237.351 33.1514 237.011C33.1514 236.671 33.418 236.404 33.7573 236.404C34.5813 236.404 53.9585 236.247 56.5034 236.404C59.0119 236.562 60.7327 238.031 61.3628 240.544C61.8475 242.474 64.453 270.892 62.817 283.189C62.7807 283.492 62.5141 283.711 62.2111 283.711L62.199 283.723Z" fill="#263238"/>
<path d="M43.8885 280.845C43.8885 280.845 43.8037 280.845 43.7673 280.845C36.7872 279.437 16.6829 280.202 16.489 280.214C16.1739 280.214 15.8709 279.971 15.8588 279.631C15.8467 279.292 16.1012 279.012 16.4405 279C17.2767 278.964 36.8962 278.211 44.0097 279.656C44.3369 279.716 44.555 280.044 44.4823 280.372C44.4217 280.663 44.1672 280.857 43.8885 280.857V280.845Z" fill="#263238"/>
<path d="M49.5838 259.396C49.3293 259.396 49.087 259.238 49.0021 258.971C47.6691 254.868 44.3487 248.094 37.0535 248.665C29.5765 249.272 26.3651 257.417 26.3409 257.49C26.2197 257.806 25.8683 257.964 25.5532 257.842C25.2381 257.721 25.0806 257.369 25.2017 257.053C25.3472 256.689 28.7161 248.107 36.9565 247.451C45.0879 246.771 48.7234 254.152 50.1534 258.595C50.2624 258.91 50.0807 259.25 49.7656 259.36C49.705 259.384 49.6444 259.384 49.5838 259.384V259.396Z" fill="#263238"/>
</svg>
