<svg width="375" height="428" viewBox="0 0 375 428" fill="none" xmlns="http://www.w3.org/2000/svg">
<g clip-path="url(#clip0_2_1418)">
<path d="M316.777 413.725L176.347 413.081C159.454 413.007 145.825 399.25 145.899 382.356L147.389 30.275C147.463 13.3699 161.218 -0.270438 178.122 -0.196478L318.552 0.44803C335.445 0.521989 349.074 14.2785 349 31.1731L347.51 383.264C347.436 400.169 333.681 413.81 316.777 413.725Z" fill="#455A64"/>
<path d="M318.351 12.6091L291.125 12.4823C287.469 12.4612 284.501 15.5463 284.49 19.3606L284.469 24.2947C284.458 28.109 281.479 31.1941 277.834 31.173L224.766 30.93C221.111 30.9089 218.163 27.8026 218.184 23.9883L218.206 19.0542C218.216 15.2399 215.279 12.1231 211.624 12.1125L202.052 12.0702L178.217 11.9646C166.385 11.9117 156.749 21.4631 156.696 33.2967L155.238 376.957C155.186 388.79 164.736 398.415 176.559 398.468L316.713 399.113C328.546 399.166 338.181 389.614 338.234 377.781L339.692 34.1208C339.745 22.2873 330.194 12.6619 318.372 12.6091H318.351Z" fill="#FAFAFA"/>
<path d="M156.506 74.5344H179.474L199.981 95.0319L178.661 116.343L156.749 94.4296L156.506 74.5344Z" fill="#EBEBEB"/>
<path d="M204.651 86.0405L193.146 74.5344H219.04L204.651 86.0405Z" fill="#EBEBEB"/>
<path d="M214.719 95.4336L234.888 75.2637H305.356C305.356 75.2637 316.143 123.443 273.703 154.369L214.719 95.423V95.4336Z" fill="#EBEBEB"/>
<path d="M206.088 101.868L184.514 123.454L244.217 183.161L265.79 160.856L206.088 101.868Z" fill="#EBEBEB"/>
<path d="M156.242 135.678L169.765 121.647L156.506 108.387L156.242 135.678Z" fill="#EBEBEB"/>
<path d="M177.858 129.92L157.087 150.692V179.558L199.981 223.448L236.303 189.627L177.858 129.92Z" fill="#EBEBEB"/>
<path d="M281.722 160.433C281.722 160.433 326.211 127.807 311.832 75.2739H339.502L339.164 223.574L281.722 160.444V160.433Z" fill="#EBEBEB"/>
<path d="M273.386 168.992L251.866 191.465L317.844 257.437L338.023 236.052L273.386 168.992Z" fill="#EBEBEB"/>
<path d="M242.875 197.614L209.067 231.192L276.693 298.358L310.448 265.721L242.875 197.614Z" fill="#EBEBEB"/>
<path d="M225.157 365.852L276.852 312.252L326.032 362.386L225.157 365.852Z" fill="#EBEBEB"/>
<path d="M284.913 305.342L338.752 252.007C338.752 254.374 338.287 362.651 338.287 362.651L284.913 305.353V305.342Z" fill="#EBEBEB"/>
<path d="M238.818 275.367L269.361 305.913L209.067 368.155L181.197 334.726L238.818 275.367Z" fill="#EBEBEB"/>
<path d="M156.295 339.068C159.179 338.783 233.039 269.609 233.039 269.609L156.295 190.081V339.068Z" fill="#EBEBEB"/>
<path d="M155.228 354.832L173.009 339.068L197.636 368.155H155.228V357.03" fill="#EBEBEB"/>
<path d="M178.238 53.5934C178.133 53.6991 175.777 51.6493 172.966 49.0079C172.966 48.2049 172.966 48.786 172.966 48.6064H172.977L172.998 48.5747L173.03 48.543L173.093 48.4796L173.22 48.3528L173.484 48.1098C173.653 47.9513 173.822 47.7929 173.991 47.6344C174.319 47.328 174.646 47.0321 174.963 46.7468C175.544 46.2291 176.094 45.7431 176.622 45.2676C177.573 44.433 178.196 43.9575 178.249 44.0103C178.302 44.0632 177.773 44.6548 176.886 45.5529C176.379 46.0495 175.861 46.5672 175.312 47.1166L174.372 48.0253L173.864 48.5008L173.611 48.7438L173.484 48.8706L173.421 48.9339L173.389 48.9656H173.368V48.9868H173.357C173.357 48.8177 173.357 49.3883 173.357 48.5958C176.168 51.2478 178.365 53.4772 178.259 53.5829L178.238 53.5934Z" fill="#263238"/>
<path d="M324.267 45.5317C324.267 46.1657 323.749 46.6728 323.126 46.6728C322.503 46.6728 321.985 46.1551 321.985 45.5317C321.985 44.9083 322.503 44.3906 323.126 44.3906C323.749 44.3906 324.267 44.9083 324.267 45.5317Z" fill="#263238"/>
<path d="M323.94 48.6595C324.383 49.1032 324.383 49.8323 323.94 50.276C323.496 50.7198 322.767 50.7198 322.323 50.276C321.879 49.8323 321.879 49.1032 322.323 48.6595C322.767 48.2157 323.496 48.2157 323.94 48.6595Z" fill="#263238"/>
<path d="M324.267 53.414C324.267 54.048 323.749 54.5551 323.126 54.5551C322.503 54.5551 321.985 54.0374 321.985 53.414C321.985 52.7907 322.503 52.2729 323.126 52.2729C323.749 52.2729 324.267 52.7907 324.267 53.414Z" fill="#263238"/>
<path d="M274.76 50.2124H225.337V54.333H274.76V50.2124Z" fill="#263238"/>
<path d="M269.393 124.183C269.393 104.932 249.161 92.7289 228.538 102.386C223.879 104.563 220.023 108.25 217.688 112.793C212.501 122.841 214.793 134.326 219.495 143.856L235.543 184.545C237.856 190.409 246.171 190.377 248.432 184.492L264.174 143.592C269.625 131.135 269.393 124.194 269.393 124.194V124.183ZM250.017 140.94C236.155 149.002 222.104 134.104 229.7 119.397C230.715 117.442 232.257 115.794 234.106 114.727C247.967 106.665 262.029 121.563 254.422 136.27C253.408 138.225 251.866 139.873 250.017 140.94Z" fill="#8672E7"/>
<path d="M724.458 261.967H99.5833V353.663H724.458V261.967Z" fill="#8672E7"/>
<g opacity="0.5">
<path d="M724.458 261.967H99.5833V353.663H724.458V261.967Z" fill="black"/>
</g>
<path d="M187.594 413.174C220.797 410.939 245.902 382.209 243.668 349.004C241.433 315.799 212.706 290.692 179.503 292.927C146.3 295.161 121.195 323.891 123.429 357.096C125.664 390.302 154.391 415.408 187.594 413.174Z" fill="#343F44"/>
<path d="M123.314 352.03C123.314 352.03 123.314 352.131 123.314 352.188C122.829 385.46 149.42 412.83 182.69 413.303C215.96 413.788 243.328 387.195 243.813 353.922C243.813 353.866 243.813 353.821 243.813 353.765L123.336 352.03H123.314Z" fill="#343F44"/>
<path d="M141.255 352.447C140.917 375.808 159.579 395.023 182.938 395.361C206.297 395.699 225.511 377.035 225.849 353.675C226.187 330.315 207.524 311.099 184.166 310.761C160.807 310.423 141.593 329.087 141.255 352.447Z" fill="#FAFAFA"/>
<path d="M184.166 310.75C160.807 310.412 141.593 329.076 141.255 352.436L225.849 353.653C226.187 330.292 207.525 311.077 184.166 310.739V310.75Z" fill="#E0E0E0"/>
<path d="M157.789 352.683C157.586 366.909 168.95 378.612 183.186 378.826C197.411 379.029 209.124 367.664 209.327 353.427C209.529 339.201 198.165 327.487 183.929 327.284C169.705 327.082 158.003 338.446 157.789 352.683Z" fill="#343F44"/>
<path d="M262.531 210.381C262.531 210.381 173.804 216.925 140.917 224.303C117.739 229.506 73.0485 238.472 73.5891 266.597L77.1369 286.747C77.1369 286.747 60.5582 294.316 60.5582 313.644C60.5582 332.972 56.5149 362.944 95.2022 364.138C101.577 364.341 113.695 364.138 113.695 364.138C113.695 364.138 106.262 281.724 181.981 279.302C259.006 276.847 253.893 363.384 253.893 363.384H575.352C575.352 363.384 562.163 279.077 645.079 278.964C727.994 278.84 715.38 363.936 715.38 363.936C715.38 363.936 745.879 366.571 760.07 340.936C774.261 315.3 770.567 297.053 770.567 297.053L770.094 280.845C769.936 275.326 765.521 270.877 760.014 270.663C760.014 270.663 765.555 229.855 757.052 222.793C748.549 215.731 701.955 173.133 701.955 173.133L704.174 171.736C707.89 169.404 707.248 163.795 703.093 162.365C685.399 156.283 650.417 144.242 642.195 141.37C640.956 140.942 639.684 140.671 638.377 140.57C633.467 140.198 619.58 139.309 594.07 139.038C562.996 138.712 439.625 139.038 439.625 139.038C439.625 139.038 397.165 142.53 373.514 152.949C348.646 163.897 262.543 210.381 262.543 210.381H262.531Z" fill="#8672E7"/>
<g opacity="0.4">
<path d="M83.0496 311.414C79.8285 310.761 74.8955 310.693 72.4402 312.879C70.6157 314.501 70.1314 317.114 69.8611 319.547C69.4782 322.869 69.2867 326.282 70.0863 329.537C70.8747 332.792 72.7781 335.901 75.7177 337.501C78.6572 339.1 82.7005 338.841 84.9868 336.397C87.0817 334.167 87.3182 330.81 87.2619 327.746C87.183 323.399 87.5322 319.716 86.7325 315.447C86.5749 314.636 86.1469 313.599 85.6288 312.969C84.7728 311.932 84.1196 311.493 83.0609 311.426" fill="black"/>
</g>
<path d="M77.1367 286.747C86.5523 286.77 95.6976 286.229 105.091 285.599C106.104 285.531 107.208 285.418 107.951 284.731C108.852 283.898 108.92 282.524 108.931 281.296C108.976 276.25 108.728 270.506 104.899 267.217C102.557 265.212 99.3467 264.581 96.2832 264.288C88.726 263.578 80.7971 264.164 73.589 266.575L77.1367 286.725V286.747Z" fill="#FAFAFA"/>
<path d="M272.724 360.804C272.724 360.804 272.69 360.534 272.645 360.005C272.611 359.453 272.555 358.664 272.488 357.639C272.375 355.544 272.206 352.481 271.992 348.55C271.767 344.608 271.508 339.776 270.945 334.189C270.359 328.613 269.503 322.261 267.622 315.458C265.73 308.666 262.835 301.435 258.556 294.328C254.253 287.277 248.599 280.226 241.031 274.774C225.826 263.961 205.295 257.845 183.828 257.586C162.294 257.327 141.841 264.13 127.03 275.473C119.552 281.025 113.358 287.513 108.593 294.294C103.784 301.052 100.27 308.001 97.8038 314.602C95.3035 321.202 93.9858 327.498 93.2424 333.04C92.4315 338.593 92.5554 343.447 92.6906 347.39C92.9947 351.321 93.3438 354.373 93.7943 356.4C93.9745 357.414 94.1209 358.191 94.211 358.732C94.3011 359.261 94.3349 359.532 94.3349 359.532C94.3349 359.532 94.2673 359.273 94.1547 358.743C94.0421 358.203 93.8844 357.425 93.6704 356.423C93.1861 354.395 92.8032 351.343 92.4541 347.401C92.2851 343.459 92.1274 338.582 92.9046 333.006C93.6254 327.431 94.9093 321.112 97.3984 314.467C99.8649 307.832 103.368 300.827 108.188 294.023C112.963 287.198 119.18 280.654 126.704 275.056C141.593 263.623 162.181 256.753 183.839 257.012C205.43 257.282 226.052 263.432 241.358 274.346C248.994 279.865 254.67 286.984 258.984 294.08C263.275 301.232 266.169 308.519 268.039 315.345C269.908 322.193 270.731 328.568 271.282 334.155C271.823 339.753 272.048 344.585 272.229 348.538C272.397 352.481 272.521 355.533 272.611 357.639C272.657 358.664 272.69 359.453 272.713 360.005C272.735 360.534 272.724 360.816 272.724 360.816V360.804Z" fill="white"/>
<path d="M275.773 362.225C275.773 362.225 275.75 362 275.739 361.549L275.671 359.556C275.615 357.787 275.536 355.174 275.435 351.773C275.243 344.947 274.951 334.945 274.59 322.24C274.241 309.523 273.824 294.081 273.34 276.398C273.216 271.971 273.092 267.409 272.968 262.713C272.811 260.37 273.058 257.971 273.272 255.56C273.441 254.355 273.61 253.15 273.791 251.933C274.038 250.728 274.286 249.523 274.534 248.295C275.671 243.452 277.327 238.598 279.546 233.867C281.776 229.147 284.422 224.484 287.801 220.159L287.824 220.125L287.858 220.103C305.056 209.267 323.752 197.486 343.529 185.029C348.473 181.909 353.485 178.755 358.564 175.556C363.543 172.177 368.926 169.294 374.479 166.669C380.042 164.056 385.82 161.77 391.756 159.765C394.718 158.728 397.747 157.872 400.777 156.971C403.84 156.194 406.893 155.327 410.024 154.696C422.007 152.038 434.081 150.72 445.906 150.168C457.743 149.616 469.355 149.65 480.64 150.281L480.967 150.303L480.899 150.63C475.572 174.463 470.549 196.945 465.943 217.546V217.591L465.909 217.636C463.104 222.254 460.863 227.109 459.196 232.008C457.597 236.919 456.561 241.965 456.921 246.887C457.304 251.832 457.439 256.675 457.563 261.361C457.653 266.058 457.743 270.619 457.834 275.035C458.093 292.718 458.16 308.138 458.205 320.854C458.216 333.56 458.228 343.539 458.239 350.365C458.228 353.766 458.216 356.368 458.205 358.148C458.205 359.026 458.194 359.68 458.183 360.141C458.183 360.592 458.16 360.817 458.16 360.817C458.16 360.817 458.149 360.592 458.138 360.141C458.138 359.68 458.126 359.015 458.115 358.148C458.115 356.379 458.093 353.766 458.07 350.365C458.025 343.539 457.969 333.548 457.901 320.854C457.811 308.149 457.698 292.718 457.406 275.046C457.315 270.631 457.214 266.069 457.113 261.372C456.978 256.675 456.831 251.855 456.448 246.921C456.077 241.909 457.113 236.807 458.723 231.851C460.401 226.906 462.631 222.029 465.47 217.355L465.436 217.433C470.02 196.821 475.032 174.34 480.336 150.506L480.595 150.855C469.344 150.225 457.732 150.202 445.929 150.754C434.126 151.306 422.097 152.624 410.147 155.271C407.028 155.89 403.987 156.769 400.935 157.534C397.916 158.436 394.898 159.28 391.947 160.317C386.034 162.31 380.268 164.585 374.726 167.187C369.196 169.8 363.835 172.673 358.891 176.018C353.812 179.217 348.8 182.37 343.855 185.479C324.056 197.925 305.348 209.696 288.139 220.508L288.195 220.452C284.862 224.71 282.215 229.361 279.996 234.047C277.777 238.744 276.133 243.565 274.996 248.374C272.461 258.027 273.734 267.556 273.757 276.375C274.196 294.059 274.579 309.501 274.894 322.217C275.198 334.923 275.435 344.924 275.593 351.75C275.66 355.152 275.716 357.765 275.761 359.533C275.773 360.412 275.784 361.076 275.795 361.527C275.795 361.977 275.795 362.203 275.795 362.203L275.773 362.225Z" fill="#263238"/>
<path d="M292.569 220.214L464.583 217.049L576.534 214.999L613.453 193.689C616.438 191.965 617.237 188.001 615.154 185.252L592.178 155.055C589.779 151.901 586.062 150.043 582.109 150.009L456.891 148.995C456.891 148.995 409.734 146.258 372.59 167.062C333.486 188.958 292.569 220.225 292.569 220.225V220.214Z" fill="#263238"/>
<path d="M371.407 152.104C371.407 152.104 380.035 156.035 374.414 159.685C368.806 163.323 281.655 218.277 281.655 218.277L261.619 209.21C297.108 189.432 332.957 170.239 371.407 152.116V152.104Z" fill="#455A64"/>
<path d="M284.471 219.651C284.471 219.651 284.291 219.707 283.93 219.786L282.342 220.135C280.923 220.428 278.862 220.856 276.227 221.396C270.911 222.455 263.207 223.942 253.656 225.575C234.555 228.864 208.02 232.694 178.546 235.251C171.18 235.893 163.972 236.422 157.012 236.872C150.051 237.334 143.339 237.751 136.964 238.337C124.215 239.452 112.783 241.31 103.503 244.07C94.1997 246.739 87.0817 250.163 82.4077 252.867C80.0088 254.128 78.3081 255.367 77.0917 256.11C76.5061 256.482 76.0556 256.775 75.7177 256.978C75.4023 257.169 75.2334 257.259 75.2334 257.259C75.2334 257.259 75.3798 257.135 75.6726 256.933C75.9993 256.707 76.4385 256.403 77.0129 256.009C78.2067 255.232 79.8961 253.959 82.2838 252.664C86.9353 249.893 94.0533 246.39 103.379 243.664C112.682 240.837 124.136 238.934 136.908 237.796C143.294 237.199 150.006 236.76 156.966 236.298C163.927 235.836 171.124 235.307 178.489 234.665C207.952 232.119 234.476 228.357 253.589 225.17C263.151 223.582 270.854 222.162 276.193 221.171C278.84 220.676 280.901 220.281 282.331 220.011C283.018 219.887 283.547 219.797 283.93 219.718C284.291 219.662 284.482 219.639 284.482 219.639L284.471 219.651Z" fill="#263238"/>
<path d="M559.145 325.943C559.145 326.101 494.429 326.236 414.611 326.236C334.793 326.236 270.066 326.101 270.066 325.943C270.066 325.786 334.77 325.651 414.611 325.651C494.452 325.651 559.145 325.786 559.145 325.943Z" fill="#263238"/>
<path d="M106.003 297.65C106.003 297.808 96.8465 297.943 85.5613 297.943C74.2762 297.943 65.1196 297.808 65.1196 297.65C65.1196 297.492 74.2649 297.357 85.5613 297.357C96.8578 297.357 106.003 297.492 106.003 297.65Z" fill="#263238"/>
<path d="M314.148 214.391C314.148 214.391 369.132 174.676 390.824 166.791C411.761 159.177 422.675 157.263 442.34 156.711C461.137 156.181 472.591 156.699 472.591 156.699L458.062 212.622L314.148 214.413V214.391Z" fill="#455A64"/>
<path d="M306.106 214.571C306.106 211.09 307.987 207.88 311.017 206.168L323.642 199.072C327.246 197.045 331.301 195.986 335.434 195.986C338.002 195.986 340.536 196.391 342.935 197.18C348.33 198.948 351.923 204.073 352.148 209.75C352.452 217.634 346.134 224.201 338.239 224.201H315.736C310.42 224.201 306.106 219.887 306.106 214.571Z" fill="#8672E7"/>
<path d="M306.106 214.571C306.106 214.571 306.14 214.999 306.253 215.787C306.354 216.576 306.647 217.747 307.357 219.087C308.1 220.405 309.339 221.87 311.231 222.895C312.177 223.39 313.281 223.762 314.475 223.919C315.668 224.066 316.986 223.976 318.36 223.987C323.856 223.965 330.389 223.953 337.631 223.919C339.433 223.919 341.246 223.705 342.992 223.041C344.737 222.388 346.37 221.363 347.756 220.011C349.13 218.659 350.267 217.004 350.966 215.134C351.675 213.264 351.957 211.214 351.81 209.176C351.495 205.076 349.31 201.291 346.123 199.095C344.546 197.969 342.733 197.326 340.908 196.898C339.084 196.459 337.248 196.256 335.457 196.256C331.864 196.256 328.474 197.056 325.568 198.374C324.115 199.027 322.786 199.85 321.469 200.559C320.162 201.291 318.901 201.99 317.707 202.654C315.308 203.983 313.146 205.177 311.231 206.247C309.328 207.272 308.089 208.748 307.368 210.065C306.636 211.395 306.366 212.577 306.253 213.366C306.14 214.165 306.152 214.582 306.118 214.582C306.118 214.582 306.061 214.154 306.14 213.343C306.219 212.543 306.456 211.338 307.176 209.953C307.886 208.59 309.147 207.036 311.085 205.954C312.988 204.873 315.139 203.645 317.516 202.294C318.709 201.618 319.96 200.908 321.255 200.165C322.561 199.444 323.89 198.611 325.377 197.935C328.328 196.572 331.797 195.727 335.468 195.716C337.304 195.716 339.185 195.919 341.054 196.358C342.913 196.786 344.827 197.45 346.472 198.633C349.794 200.92 352.092 204.873 352.407 209.142C352.565 211.271 352.272 213.411 351.529 215.359C350.797 217.308 349.614 219.042 348.173 220.439C346.731 221.847 345.019 222.917 343.206 223.582C341.392 224.269 339.466 224.494 337.642 224.471C330.4 224.449 323.879 224.426 318.372 224.404C316.997 224.381 315.702 224.449 314.441 224.291C313.191 224.122 312.053 223.717 311.085 223.187C309.136 222.095 307.897 220.552 307.165 219.2C306.467 217.815 306.208 216.61 306.14 215.81C306.073 214.999 306.118 214.571 306.118 214.571H306.106Z" fill="#263238"/>
<path d="M455.652 220.213C455.652 220.213 455.562 220.236 455.393 220.247C455.19 220.247 454.931 220.27 454.627 220.281C453.906 220.292 452.926 220.315 451.687 220.349C449.086 220.394 445.403 220.461 440.887 220.54C431.764 220.709 419.172 221.047 405.251 221.43C391.331 221.813 378.728 222.083 369.605 222.139C365.044 222.173 361.35 222.173 358.793 222.139C357.554 222.117 356.574 222.106 355.854 222.094L355.088 222.072C354.919 222.072 354.829 222.049 354.829 222.038C354.829 222.027 354.919 222.016 355.088 222.004C355.29 222.004 355.549 221.982 355.854 221.97C356.574 221.959 357.554 221.937 358.793 221.903C361.395 221.858 365.078 221.79 369.594 221.711C378.717 221.542 391.32 221.205 405.24 220.822C419.161 220.439 431.764 220.168 440.887 220.112C445.448 220.078 449.142 220.078 451.699 220.112C452.938 220.135 453.917 220.146 454.638 220.157C454.942 220.157 455.19 220.18 455.404 220.18C455.573 220.18 455.663 220.202 455.663 220.213H455.652Z" fill="white"/>
<path d="M419.521 180.725C419.589 180.871 407.921 186.007 393.471 192.202C379.021 198.397 367.251 203.285 367.195 203.139C367.128 202.992 378.796 197.856 393.246 191.661C407.696 185.478 419.465 180.578 419.521 180.725Z" fill="white"/>
<path d="M139.858 227.884C139.858 227.884 139.633 227.951 139.194 228.008C138.698 228.075 138.068 228.154 137.279 228.256C136.446 228.346 135.432 228.481 134.261 228.672C133.09 228.864 131.749 229.033 130.285 229.326C127.346 229.832 123.877 230.61 120.059 231.623C116.263 232.682 112.119 234 107.884 235.644C103.649 237.323 99.7183 239.159 96.2156 240.972C92.7242 242.819 89.6608 244.61 87.1492 246.243C85.8765 247.02 84.7728 247.809 83.7929 248.473C82.8018 249.127 81.9684 249.724 81.3039 250.219C80.6619 250.67 80.1438 251.042 79.7384 251.334C79.378 251.582 79.1752 251.706 79.164 251.695C79.1527 251.684 79.3217 251.526 79.6595 251.244C80.0537 250.929 80.5493 250.535 81.1687 250.039C81.822 249.51 82.6329 248.89 83.6127 248.203C84.5813 247.516 85.6738 246.705 86.9352 245.894C89.4243 244.216 92.4877 242.38 95.9679 240.499C99.4706 238.652 103.424 236.782 107.681 235.104C111.95 233.448 116.105 232.13 119.935 231.105C123.775 230.114 127.267 229.382 130.229 228.92C131.704 228.65 133.056 228.503 134.227 228.357C135.41 228.188 136.423 228.098 137.257 228.042C138.045 227.985 138.676 227.94 139.183 227.895C139.622 227.873 139.858 227.861 139.858 227.895V227.884Z" fill="white"/>
<path d="M340.976 201.314C340.976 201.314 340.638 200.874 339.894 200.266C339.151 199.669 337.878 198.982 336.178 198.768C334.466 198.543 332.405 198.836 330.175 199.421C327.933 199.985 325.523 200.773 323.079 201.832C318.18 203.938 314.193 206.743 311.546 209.007C308.866 211.259 307.458 212.915 307.368 212.836C307.334 212.814 307.672 212.386 308.314 211.642C308.967 210.91 309.947 209.874 311.265 208.702C313.866 206.337 317.876 203.442 322.843 201.302C325.32 200.232 327.764 199.444 330.04 198.903C332.292 198.34 334.443 198.081 336.234 198.363C338.025 198.644 339.32 199.421 340.052 200.108C340.424 200.446 340.66 200.762 340.807 200.976C340.942 201.201 341.009 201.325 340.987 201.336L340.976 201.314Z" fill="white"/>
<path d="M161.708 173.11C157.214 148.466 154.185 144.682 151.628 136.2C149.116 127.82 145.039 122.211 140.005 120.274C136.604 118.967 119.665 112.851 113.752 114.878C107.185 117.131 101.453 120.409 97.387 123.101C93.4338 125.725 90.4379 129.555 88.8499 134.026L79.7834 159.448L95.6413 175.273L103.593 158.378L112.22 178.607L110.947 199.05L160.435 212.364C164.94 205.155 164.265 187.111 161.708 173.133V173.11Z" fill="#8672E7"/>
<g opacity="0.2">
<path d="M148.824 146.236C146.639 159.065 146.29 160.833 144.105 173.662C143.35 178.066 141.165 184.937 138.023 188.113C135.703 190.467 133.416 192.743 130.195 193.509C127.188 194.218 122.638 194.297 119.811 193.047C116.984 191.797 114.585 186.322 115.745 183.462C119.935 184.363 121.241 185.759 124.857 183.462C128.01 181.457 132.493 177.019 134.205 173.696C141.424 159.729 143.406 159.223 148.801 146.225" fill="black"/>
</g>
<path d="M113.008 171.083C112.941 171.128 112.119 169.81 110.823 167.67C109.438 165.406 107.67 162.534 105.721 159.358C103.728 156.204 101.915 153.366 100.496 151.124C99.1441 149.018 98.3332 147.712 98.4008 147.666C98.4346 147.644 98.6823 147.937 99.1103 148.5C99.5383 149.052 100.124 149.874 100.845 150.899C102.286 152.949 104.201 155.821 106.217 159.054C108.233 162.298 109.968 165.283 111.173 167.468C111.781 168.56 112.254 169.461 112.569 170.081C112.885 170.712 113.042 171.061 113.008 171.083Z" fill="#263238"/>
<path d="M147.54 194.094C147.54 194.094 147.134 194.286 146.38 194.533C145.997 194.657 145.535 194.804 144.972 194.928C144.42 195.052 143.789 195.22 143.08 195.322C141.672 195.581 139.971 195.739 138.068 195.772C136.176 195.772 134.081 195.626 131.93 195.243C129.778 194.838 127.774 194.241 125.994 193.565C124.237 192.866 122.694 192.112 121.467 191.368C120.836 191.03 120.307 190.648 119.834 190.332C119.36 190.028 118.966 189.724 118.662 189.476C118.032 188.981 117.705 188.688 117.727 188.654C117.795 188.564 119.18 189.656 121.669 191.008C122.908 191.695 124.44 192.393 126.186 193.058C127.943 193.689 129.914 194.263 132.031 194.657C134.148 195.029 136.198 195.187 138.068 195.22C139.937 195.22 141.615 195.108 143.012 194.894C145.816 194.5 147.495 193.97 147.528 194.083L147.54 194.094Z" fill="#263238"/>
<path d="M127.684 155.697C127.594 156.136 122.278 166.724 122.278 166.724L97.1845 153.501L94.6279 142.688C94.2224 140.998 93.1863 139.534 91.7334 138.588C90.1904 137.585 88.2983 137.27 86.5075 137.698L79.1079 140.728C78.4885 140.976 78.0155 141.505 77.8916 142.158C77.7902 142.71 77.9254 143.24 78.8714 143.161C80.7072 143.014 84.5365 142.609 84.5365 142.609L82.7908 148.77C82.3291 150.381 82.5093 152.115 83.2864 153.602L84.4014 155.731L86.8454 159.684L86.8003 159.718C86.8003 159.718 111.195 184.779 124.891 186.401C133.124 187.381 142.449 164.302 142.449 164.302L127.706 155.674L127.684 155.697Z" fill="#FFC7B1"/>
<path d="M84.3113 143.036C84.3113 143.036 84.5027 142.777 84.9195 142.496C85.3362 142.225 86.0007 141.876 86.8228 141.91C87.6675 141.955 88.287 142.507 88.501 142.991C88.7262 143.498 88.5798 143.836 88.546 143.825C88.4785 143.825 88.5235 143.498 88.2757 143.115C88.0392 142.743 87.4873 142.315 86.8003 142.282C86.102 142.248 85.4826 142.518 85.0433 142.732C84.6041 142.946 84.3338 143.093 84.3113 143.048V143.036Z" fill="#AA6550"/>
<path d="M87.4759 146.877C87.4759 146.877 87.3182 146.675 87.0704 146.371C86.8339 146.078 86.4397 145.706 85.9104 145.503C85.381 145.289 84.8404 145.289 84.4687 145.346C84.0858 145.402 83.8606 145.481 83.8268 145.436C83.8042 145.402 84.007 145.222 84.4124 145.087C84.8066 144.963 85.4261 144.918 86.0455 145.154C86.6649 145.402 87.0817 145.853 87.2844 146.224C87.4984 146.596 87.5209 146.855 87.4759 146.877Z" fill="#AA6550"/>
<path d="M132.887 122.278L126.096 154.48L144.105 165.304L151.02 145.515C151.02 145.515 148.159 121.49 132.887 122.278Z" fill="#8672E7"/>
<path d="M142.595 122.854C142.595 122.854 142.449 122.966 142.134 123.146C141.818 123.315 141.368 123.563 140.76 123.867C139.566 124.475 137.82 125.331 135.624 126.311C131.243 128.249 124.992 130.727 117.716 131.954C110.441 133.193 103.638 132.619 98.9978 131.324C96.6664 130.693 94.8418 129.983 93.6255 129.398C93.006 129.127 92.5555 128.857 92.2402 128.699C91.9248 128.53 91.7671 128.429 91.7784 128.418C91.8009 128.373 92.4767 128.688 93.7156 129.195C94.9545 129.713 96.779 130.355 99.0991 130.929C103.717 132.101 110.418 132.608 117.615 131.38C124.812 130.164 131.04 127.776 135.455 125.94C137.662 125.016 139.442 124.216 140.658 123.676C141.886 123.124 142.562 122.831 142.584 122.876L142.595 122.854Z" fill="#EBEBEB"/>
<path d="M147.337 126.401C147.337 126.401 147.179 126.548 146.841 126.773C146.447 127.032 145.952 127.347 145.344 127.73C144.69 128.147 143.891 128.643 142.911 129.138C141.942 129.645 140.861 130.276 139.588 130.828C138.958 131.121 138.304 131.414 137.617 131.729C136.93 132.044 136.187 132.303 135.432 132.596C133.934 133.227 132.268 133.734 130.533 134.297C127.03 135.322 123.1 136.201 118.91 136.719C114.72 137.192 110.688 137.259 107.039 137.079C105.215 136.933 103.48 136.831 101.881 136.572C101.081 136.448 100.293 136.369 99.5608 136.234C98.8287 136.088 98.1192 135.953 97.4322 135.818C96.0694 135.581 94.8756 135.221 93.8169 134.95C92.7469 134.691 91.8572 134.398 91.1251 134.139C90.4493 133.903 89.8975 133.711 89.447 133.554C89.064 133.418 88.8726 133.328 88.8726 133.317C88.8726 133.306 89.0866 133.34 89.4807 133.441C89.9312 133.565 90.4944 133.723 91.1814 133.914C91.9135 134.139 92.8145 134.398 93.8844 134.624C94.9431 134.86 96.1482 135.198 97.4998 135.401C98.1755 135.525 98.8851 135.649 99.6171 135.784C100.349 135.908 101.126 135.975 101.926 136.088C103.525 136.324 105.248 136.415 107.05 136.538C110.666 136.685 114.664 136.606 118.82 136.133C122.976 135.615 126.873 134.759 130.353 133.779C132.076 133.227 133.732 132.743 135.23 132.146C135.984 131.853 136.716 131.605 137.403 131.312C138.09 131.008 138.744 130.727 139.374 130.445C140.647 129.927 141.728 129.319 142.708 128.846C143.688 128.372 144.51 127.911 145.175 127.528C145.805 127.179 146.312 126.897 146.718 126.672C147.078 126.48 147.269 126.39 147.281 126.401H147.337Z" fill="#EBEBEB"/>
<path d="M144.105 165.305C144.105 165.305 143.575 165.068 142.64 164.561C141.638 163.998 140.309 163.255 138.676 162.331C135.241 160.349 130.544 157.646 125.127 154.526L124.958 154.424L124.992 154.233C125.476 151.822 125.994 149.243 126.524 146.585C127.346 142.575 128.123 138.768 128.832 135.288C129.204 133.553 129.508 131.897 129.846 130.354C130.206 128.811 130.657 127.381 131.288 126.164C132.527 123.698 134.509 122.357 135.939 121.895C136.671 121.659 137.268 121.603 137.662 121.614C138.056 121.614 138.27 121.659 138.27 121.681C138.27 121.76 137.415 121.603 136.018 122.121C134.655 122.628 132.797 123.968 131.659 126.356C131.074 127.538 130.646 128.935 130.319 130.456C130.015 132.01 129.7 133.655 129.362 135.389C128.663 138.87 127.898 142.688 127.098 146.698C126.557 149.356 126.028 151.935 125.544 154.345L125.409 154.053C130.781 157.24 135.444 160.011 138.845 162.038C140.444 163.018 141.751 163.807 142.73 164.404C143.631 164.967 144.116 165.282 144.093 165.316L144.105 165.305Z" fill="#263238"/>
<path d="M149.623 144.568C149.691 144.568 149.713 145.717 149.533 147.576C149.353 149.423 148.959 151.969 148.238 154.706C147.517 157.454 146.605 159.853 145.85 161.554C145.096 163.255 144.521 164.246 144.454 164.212C144.375 164.178 144.814 163.119 145.467 161.396C146.12 159.673 146.954 157.274 147.675 154.559C148.384 151.845 148.846 149.344 149.128 147.519C149.409 145.695 149.544 144.557 149.634 144.568H149.623Z" fill="#263238"/>
<path d="M51.909 323.679L51.7063 340.879C51.7063 340.879 34.159 346.454 33.8212 349.63L67.1474 351.219L68.5552 324.434L51.909 323.691V323.679Z" fill="#455A64"/>
<path d="M62.0787 339.921C62.7206 340.124 63.1261 340.879 62.9459 341.521C62.7657 342.163 62.0111 342.591 61.3691 342.399C60.7271 342.208 60.2091 341.318 60.4568 340.699C60.7046 340.079 61.6282 339.629 62.2025 339.966" fill="#E0E0E0"/>
<path d="M67.1469 351.208L67.1807 348.504L35.2173 347.998C35.2173 347.998 33.7081 348.572 33.8207 349.631L67.1469 351.219V351.208Z" fill="#E0E0E0"/>
<path d="M51.1766 340.676C51.1766 340.834 51.9876 340.946 52.7647 341.51C53.5531 342.05 53.936 342.771 54.0824 342.715C54.2288 342.692 54.0374 341.701 53.0913 341.048C52.1452 340.372 51.1541 340.518 51.1766 340.676Z" fill="#263238"/>
<path d="M47.6175 341.96C47.5724 342.118 48.2594 342.422 48.7888 343.143C49.3294 343.841 49.4307 344.596 49.5997 344.596C49.7461 344.63 49.9038 343.684 49.2505 342.805C48.5973 341.926 47.64 341.814 47.6287 341.96H47.6175Z" fill="#263238"/>
<path d="M45.4326 346.049C45.579 346.094 45.8493 345.283 45.4664 344.382C45.0947 343.47 44.3514 343.076 44.2725 343.211C44.1712 343.335 44.6442 343.842 44.937 344.596C45.2524 345.34 45.2636 346.027 45.4213 346.049H45.4326Z" fill="#263238"/>
<path d="M51.6608 336.767C51.7171 336.914 52.483 336.733 53.3953 336.835C54.3188 336.925 55.0171 337.263 55.1072 337.128C55.2086 337.015 54.5328 336.384 53.4516 336.272C52.3704 336.159 51.582 336.632 51.6608 336.767Z" fill="#263238"/>
<g opacity="0.3">
<path d="M51.8748 327.082L51.8297 330.146L68.2169 330.776L68.3745 328.028L51.8748 327.082Z" fill="black"/>
</g>
<path d="M51.762 333.299C51.762 333.367 52.3927 333.502 53.4289 333.367C53.947 333.299 54.5552 333.164 55.1971 332.916C55.5238 332.792 55.8504 332.634 56.177 332.454C56.3347 332.364 56.5261 332.274 56.6951 332.083C56.8865 331.925 57.0104 331.497 56.8077 331.215C56.65 330.956 56.3572 330.821 56.1094 330.81C55.8616 330.787 55.6589 330.832 55.4787 330.866C55.107 330.934 54.7466 331.046 54.42 331.17C53.7668 331.429 53.2374 331.767 52.832 332.105C52.0211 332.781 51.7282 333.378 51.7845 333.412C51.8521 333.468 52.2576 332.972 53.0685 332.42C53.4739 332.15 53.992 331.869 54.6002 331.655C54.9043 331.553 55.2309 331.463 55.5688 331.407C55.9292 331.328 56.222 331.339 56.3121 331.508C56.3459 331.564 56.3459 331.598 56.2671 331.688C56.1882 331.778 56.0418 331.869 55.8842 331.959C55.5801 332.139 55.276 332.285 54.9831 332.42C54.3862 332.679 53.8231 332.848 53.3388 332.961C52.3702 333.186 51.7395 333.198 51.7395 333.288L51.762 333.299Z" fill="#263238"/>
<path d="M51.965 333.547C52.0213 333.569 52.3704 333.006 52.4831 331.959C52.5394 331.44 52.5168 330.798 52.3366 330.123C52.2465 329.785 52.1226 329.436 51.965 329.086C51.7848 328.748 51.5708 328.298 50.9401 328.197C50.6135 328.174 50.3206 328.411 50.2193 328.625C50.0954 328.85 50.0728 329.041 50.0165 329.233C49.9377 329.616 49.9264 329.999 49.9602 330.359C50.0278 331.069 50.2981 331.677 50.5909 332.116C51.1991 333.006 51.8749 333.243 51.8861 333.186C51.9424 333.107 51.3906 332.77 50.9288 331.914C50.7036 331.497 50.5121 330.945 50.4783 330.325C50.4558 330.01 50.4783 329.683 50.5571 329.368C50.6247 329.019 50.7711 328.737 50.9063 328.782C51.0752 328.782 51.3455 329.064 51.4694 329.357C51.6271 329.661 51.751 329.976 51.8411 330.28C52.0213 330.889 52.0889 331.474 52.0889 331.959C52.0889 332.938 51.8861 333.535 51.9762 333.569L51.965 333.547Z" fill="#263238"/>
<path d="M119.822 199.208C119.822 199.208 67.7775 177.379 51.6606 176.444C41.558 175.859 33.9107 182.346 35.2847 192.81C35.9718 198.036 50.3542 259.276 50.3542 259.276L72.2938 249.251L61.752 206.912L104.505 227.693L119.822 199.196V199.208Z" fill="#263238"/>
<path d="M55.1859 196.201C55.017 196.348 56.7402 198.567 58.5535 201.506C60.378 204.446 61.5944 206.98 61.7971 206.89C61.9886 206.823 61.065 204.097 59.2067 201.101C57.3596 198.093 55.3323 196.055 55.1859 196.19V196.201Z" fill="#455A64"/>
<path d="M50.9285 198.633C50.8159 198.825 53.4514 200.492 56.5261 202.767C59.612 205.031 61.9885 207.036 62.1349 206.878C62.27 206.732 60.1076 204.445 56.9766 202.147C53.8568 199.85 51.0186 198.453 50.9285 198.633Z" fill="#455A64"/>
<path d="M160.436 212.341C160.436 212.341 153.892 220.777 147.641 223.086C139.802 225.981 81.7997 253.351 81.7997 253.351C81.7997 253.351 71.2804 331.497 72.1138 328.242L47.8428 327.656L50.4782 255.671C50.7936 246.446 58.1819 235.87 66.1108 231.162L119.811 199.208L160.424 212.341H160.436Z" fill="#263238"/>
<path d="M50.0164 268.838C50.0164 268.838 50.0727 268.5 50.1177 267.847C50.1515 267.126 50.2078 266.18 50.2641 265.02C50.3993 262.564 50.5344 258.994 51.2215 254.669C51.9423 250.377 53.2487 245.196 56.4699 240.398C58.0692 238.01 60.2091 235.848 62.7094 233.955C65.2097 232.063 68.0253 230.396 70.9424 228.74C82.6217 222.05 92.7018 215.224 100.158 210.55C103.874 208.185 106.893 206.304 108.988 205.019C109.979 204.411 110.778 203.916 111.398 203.533C111.95 203.184 112.231 202.992 112.22 202.97C112.209 202.947 111.905 203.093 111.33 203.398C110.756 203.702 109.911 204.152 108.841 204.76C106.69 205.966 103.627 207.779 99.8761 210.088C92.3414 214.65 82.2163 221.408 70.5707 228.076C67.6537 229.731 64.8042 231.41 62.2589 233.358C59.7135 235.296 57.5173 237.537 55.8842 240.004C52.618 244.96 51.3454 250.242 50.6921 254.579C50.0727 258.96 50.0164 262.542 49.9713 264.997C49.9713 266.169 49.9713 267.104 49.9713 267.836C49.9713 268.489 50.0051 268.827 50.0276 268.827L50.0164 268.838Z" fill="#455A64"/>
<path d="M139.014 220.586C139.104 220.484 138.394 219.831 137.527 218.581C136.66 217.342 135.691 215.45 135.23 213.197C134.779 210.933 134.926 208.815 135.252 207.34C135.568 205.853 135.962 204.975 135.849 204.918C135.782 204.873 135.207 205.684 134.734 207.205C134.261 208.714 134.002 210.955 134.486 213.355C134.971 215.742 136.074 217.714 137.099 218.919C138.124 220.135 138.969 220.653 139.014 220.586Z" fill="#455A64"/>
<path d="M56.7626 327.656C56.7626 327.656 56.7964 327.521 56.8414 327.262C56.8752 326.958 56.9315 326.564 56.9878 326.079C57.1005 324.987 57.2694 323.455 57.4721 321.529C57.8663 317.519 58.4294 311.808 59.1165 304.78C59.4543 301.232 59.826 297.369 60.2202 293.212C60.6257 289.056 61.0424 284.607 61.369 279.922C61.7294 275.247 62.1799 270.336 63.0246 265.313C63.9031 260.312 65.2096 255.165 67.4846 250.287C69.7146 245.388 72.8794 241.108 76.292 237.368C79.7609 233.651 83.5114 230.464 87.2844 227.682C94.8303 222.129 102.275 218.074 108.413 214.492C114.574 210.955 119.484 207.937 122.75 205.662C124.395 204.535 125.634 203.623 126.467 202.981C126.85 202.677 127.154 202.44 127.402 202.249C127.605 202.08 127.717 201.99 127.706 201.979C127.706 201.979 127.582 202.035 127.357 202.193C127.098 202.373 126.782 202.587 126.377 202.868C125.521 203.465 124.248 204.344 122.593 205.425C119.282 207.622 114.349 210.55 108.154 214.03C101.993 217.545 94.5037 221.554 86.8789 227.119C83.0721 229.901 79.2766 233.099 75.7514 236.861C72.2825 240.646 69.0727 244.982 66.7976 249.972C64.4888 254.939 63.171 260.143 62.2925 265.189C61.4478 270.246 61.0086 275.18 60.6707 279.865C60.3666 284.551 59.9724 289 59.6008 293.156C59.2404 297.312 58.9025 301.187 58.5984 304.735C58.0127 311.775 57.5284 317.485 57.1906 321.506C57.0441 323.444 56.9315 324.964 56.8527 326.068C56.8189 326.552 56.7964 326.946 56.7851 327.262C56.7738 327.532 56.7851 327.667 56.7851 327.667L56.7626 327.656Z" fill="#455A64"/>
<path d="M113.909 75.2419C112.412 70.9956 107.433 68.3149 103.064 69.4075C102.061 69.6553 101.07 70.0833 100.045 70.0608C98.7725 70.0382 97.6237 69.3399 96.3735 69.0921C93.693 68.5515 90.7647 70.455 90.1565 73.1244C88.0279 72.6851 85.6627 72.9893 83.9621 74.3521C82.2727 75.715 81.4843 78.2718 82.5204 80.1866C82.9597 81.0088 83.6805 81.6621 84.086 82.5069C84.7505 83.8923 84.4464 85.5593 84.9081 87.0235C85.5952 89.1974 87.8927 90.5377 90.1565 90.7968C92.4203 91.0558 94.6841 90.4363 96.8803 89.8281" fill="#263238"/>
<path d="M103.469 119.789C103.187 117.615 102.996 116.083 102.996 116.083C102.996 116.083 95.7428 116.038 92.8145 107.039C91.3616 102.567 90.393 95.0095 89.8074 88.8034C89.278 83.2167 93.5015 78.3058 99.1103 78.013L118.392 76.9993L118.809 79.9841L123.888 117.063C124.665 122.718 120.69 127.921 115.024 128.665C109.382 129.408 104.224 125.421 103.48 119.789H103.469Z" fill="#FFC7B1"/>
<path d="M92.5216 94.1193C92.6005 94.75 93.1974 95.2006 93.8506 95.133C94.5039 95.0654 94.9769 94.5022 94.8981 93.8715C94.8192 93.2407 94.2223 92.7902 93.5691 92.8578C92.9158 92.9254 92.4428 93.4885 92.5216 94.1193Z" fill="#263238"/>
<path d="M92.0488 92.4525C92.2177 92.5876 93.0061 91.7767 94.2788 91.5739C95.5514 91.3599 96.5876 91.8668 96.7002 91.6866C96.7566 91.6077 96.5651 91.3487 96.1146 91.1234C95.6641 90.8869 94.9433 90.7179 94.1436 90.8418C93.3552 90.977 92.7358 91.3712 92.3979 91.7316C92.0488 92.0921 91.9699 92.3962 92.0488 92.4525Z" fill="#263238"/>
<path d="M104.618 92.0702C104.697 92.701 105.294 93.1515 105.947 93.0839C106.6 93.0163 107.073 92.4532 106.994 91.8224C106.915 91.1917 106.319 90.7411 105.665 90.8087C105.012 90.8763 104.539 91.4395 104.618 92.0702Z" fill="#263238"/>
<path d="M104.595 90.7064C104.764 90.8415 105.564 90.0306 106.825 89.8278C108.098 89.6138 109.134 90.1207 109.247 89.9405C109.303 89.8616 109.112 89.6026 108.661 89.3773C108.211 89.1408 107.49 88.9718 106.69 89.0957C105.902 89.2309 105.282 89.6251 104.944 89.9855C104.607 90.346 104.516 90.6501 104.595 90.7064Z" fill="#263238"/>
<path d="M101.476 100.878C101.476 100.799 100.654 100.799 99.347 100.833C99.0204 100.855 98.6938 100.833 98.6037 100.619C98.4911 100.393 98.5699 100.022 98.6713 99.6161C98.8515 98.7826 99.0429 97.904 99.2344 96.9917C100.012 93.2522 100.518 90.1998 100.361 90.1773C100.214 90.1435 99.4597 93.1508 98.6825 96.8903C98.5023 97.8139 98.3221 98.6925 98.1532 99.526C98.0856 99.9202 97.9392 100.371 98.187 100.833C98.3109 101.058 98.5812 101.204 98.7952 101.227C99.0091 101.261 99.2006 101.227 99.3583 101.227C100.665 101.092 101.464 100.968 101.453 100.9L101.476 100.878Z" fill="#263238"/>
<path d="M102.996 116.083C102.996 116.083 109.269 115.497 114.822 110.823C114.822 110.823 112.828 117.637 103.469 118.245L102.996 116.083Z" fill="#AA6550"/>
<path d="M105.361 101.16C105.147 101.182 105.361 102.568 104.347 103.728C103.322 104.899 101.825 104.978 101.847 105.17C101.847 105.26 102.219 105.384 102.838 105.305C103.446 105.226 104.314 104.888 104.944 104.178C105.575 103.458 105.755 102.613 105.71 102.038C105.676 101.453 105.462 101.137 105.372 101.16H105.361Z" fill="#263238"/>
<path d="M103.469 85.7624C103.649 86.089 104.899 85.7173 106.42 85.661C107.94 85.5709 109.213 85.8187 109.359 85.4808C109.427 85.3231 109.168 85.0303 108.627 84.7712C108.087 84.5121 107.276 84.3207 106.364 84.3657C105.451 84.4108 104.652 84.6811 104.145 84.9852C103.627 85.2893 103.401 85.6047 103.48 85.7624H103.469Z" fill="#263238"/>
<path d="M91.9248 88.6905C92.1951 88.9383 93.0285 88.499 94.076 88.3188C95.1234 88.1048 96.0582 88.2062 96.2159 87.8683C96.2834 87.7106 96.092 87.4403 95.664 87.2262C95.236 87.0122 94.5603 86.8996 93.8394 87.0348C93.1186 87.1699 92.533 87.5304 92.2176 87.8908C91.891 88.2512 91.8122 88.5666 91.9361 88.6905H91.9248Z" fill="#263238"/>
<path d="M88.8389 84.7596C88.8389 84.7596 93.9409 86.483 99.7975 82.5633C103.638 79.9952 108.301 78.3845 109.461 79.0829C110.621 79.7699 111.376 83.9825 115.599 84.6921C115.599 84.6921 116.342 92.8018 119.518 92.1034C121.782 91.6078 120.464 82.6646 119.518 77.5623C119.135 75.5236 117.39 74.0143 115.306 73.9355L109.371 73.7102L101.96 75.7827L94.0085 77.9453L87.9604 80.457L88.8277 84.7596H88.8389Z" fill="#263238"/>
<path d="M118.82 88.8256C118.944 88.7355 123.866 86.1562 124.778 91.5288C125.69 96.9015 120.104 96.71 120.07 96.5523C120.036 96.3946 118.82 88.8256 118.82 88.8256Z" fill="#FFC7B1"/>
<path d="M121.365 94.2327C121.365 94.2327 121.467 94.2778 121.636 94.3228C121.805 94.3679 122.075 94.3679 122.334 94.2215C122.863 93.9174 123.19 92.9374 123.055 91.9575C122.987 91.4619 122.807 91.0227 122.57 90.6622C122.345 90.3018 122.041 90.0653 121.748 90.0653C121.455 90.0427 121.275 90.2567 121.241 90.4144C121.196 90.5721 121.241 90.6735 121.219 90.696C121.208 90.7073 121.084 90.6284 121.095 90.3919C121.095 90.2793 121.14 90.1441 121.253 90.0202C121.365 89.8963 121.546 89.8062 121.748 89.7949C122.165 89.7499 122.604 90.0765 122.863 90.4595C123.145 90.8537 123.359 91.3493 123.438 91.9012C123.584 92.9938 123.201 94.0976 122.469 94.4467C122.109 94.6044 121.771 94.5481 121.591 94.4467C121.399 94.3454 121.354 94.2215 121.365 94.2102V94.2327Z" fill="#AA6550"/>
<path d="M91.4179 71.1423C91.4179 71.1423 91.6094 71.4239 91.981 71.8632C92.3527 72.3025 93.0285 72.8318 94.0083 73.1697C94.9882 73.5189 96.2383 73.609 97.5898 73.3274C98.9414 73.0684 100.372 72.4939 101.926 71.9533C103.469 71.4126 105.057 71.0297 106.532 71.1311C108.008 71.1986 109.292 71.8744 110.024 72.7079C110.79 73.5302 111.094 74.4425 111.094 75.062C111.116 75.6815 110.959 76.0081 110.936 75.9969C110.88 75.9969 110.959 75.659 110.869 75.0845C110.79 74.5214 110.463 73.7104 109.731 73.0008C109.01 72.2687 107.873 71.7168 106.499 71.683C105.136 71.6154 103.638 71.9871 102.117 72.5165C100.597 73.0458 99.1216 73.6315 97.6912 73.8681C96.2721 74.1384 94.8981 73.992 93.8732 73.564C92.837 73.1585 92.15 72.5277 91.8008 72.0096C91.4517 71.5027 91.3841 71.1536 91.4179 71.1423Z" fill="#455A64"/>
<path d="M109.562 76.2894C109.562 76.2894 109.292 76.0078 108.729 75.6136C108.177 75.2194 107.242 74.8477 106.026 74.8139C104.809 74.7576 103.39 75.1068 101.926 75.8164C100.451 76.4922 98.9076 77.4946 97.038 78.1029C93.265 79.3193 89.5596 78.3281 87.4197 77.0553C86.316 76.4246 85.5388 75.7488 85.0546 75.2419C84.5703 74.7238 84.345 74.4084 84.3788 74.3859C84.4689 74.2958 85.4375 75.5573 87.6224 76.6949C89.7511 77.8325 93.2875 78.7111 96.8691 77.5509C98.6373 76.9765 100.18 76.0078 101.712 75.332C103.221 74.6337 104.775 74.2845 106.059 74.4084C107.343 74.4985 108.346 74.9716 108.875 75.4447C109.427 75.9177 109.596 76.2894 109.573 76.3007L109.562 76.2894Z" fill="#455A64"/>
<path d="M92.8821 167.816L66.7302 145.525L58.103 147.474C58.103 147.474 67.192 166.374 73.7694 173.301C73.7694 173.301 80.2679 182.007 90.99 178.245C101.712 174.483 92.8821 167.827 92.8821 167.827V167.816Z" fill="#FFC7B1"/>
<path d="M64.7592 120.971H53.643C51.9649 120.971 50.4557 122.92 51.0638 124.519L62.2477 146.291C62.6756 147.136 63.5541 147.665 64.5002 147.665L78.0492 147.632C79.6034 147.418 80.1665 145.694 79.5246 144.759L68.7349 123.438C67.9916 121.917 66.4486 120.96 64.7592 120.96V120.971Z" fill="#455A64"/>
<path d="M64.0046 122.278H52.8884C51.4918 122.278 50.5908 123.742 51.2328 124.981L62.1463 146.28C62.5743 147.125 63.4527 147.654 64.3988 147.654H77.8014C78.6235 147.654 79.1529 146.798 78.7812 146.066L67.9916 124.744C67.2483 123.224 65.7053 122.266 64.0159 122.266L64.0046 122.278Z" fill="#263238"/>
<path d="M63.0587 131.198L56.2898 133.902L54.8369 139.353L58.0918 147.463L70.0415 149.197L66.5388 145.616L66.9893 142.496C66.9893 142.496 70.3231 141.448 70.4019 140.941C70.4807 140.434 69.9852 138.722 69.4784 138.632C68.9715 138.553 65.4689 139.849 65.4689 139.849C65.4689 139.849 69.6135 136.571 69.4896 136.042C69.377 135.512 68.9265 134.172 68.1043 134.014C67.2821 133.868 60.5921 137.01 60.5921 137.01L59.5109 139.488L58.5648 135.535C58.5648 135.535 64.5003 133.868 63.0361 131.176L63.0587 131.198Z" fill="#FFC7B1"/>
<path d="M63.9146 143.982C63.9146 143.982 63.7456 143.746 63.6893 143.307C63.6217 142.867 63.6555 142.236 63.892 141.594C64.1286 140.952 64.5228 140.457 64.8494 140.164C65.1873 139.871 65.435 139.77 65.4576 139.804C65.5251 139.882 64.6466 140.513 64.2187 141.718C63.7682 142.901 64.0159 143.96 63.9146 143.982Z" fill="#AA6550"/>
<path d="M60.6936 142.8C60.6936 142.8 60.8963 142.135 60.9639 141.031C61.0202 140.479 61.0427 139.792 61.3018 139.071C61.4369 138.711 61.6171 138.339 61.9212 138.024C62.2253 137.708 62.6195 137.494 63.025 137.326C64.6468 136.74 66.0997 136.267 67.1696 135.918C68.2396 135.58 68.9041 135.388 68.9153 135.433C68.9266 135.478 68.2959 135.749 67.2485 136.143C66.2123 136.548 64.7482 137.066 63.1601 137.641C62.7772 137.799 62.4281 137.99 62.169 138.249C61.91 138.508 61.7298 138.846 61.6059 139.173C61.3468 139.837 61.2905 140.502 61.2117 141.054C61.0765 142.18 60.7387 142.822 60.6936 142.8Z" fill="#AA6550"/>
<path d="M59.1393 141.572C59.0492 141.561 59.0605 140.964 59.1844 140.243C59.3083 139.522 59.4772 138.948 59.5673 138.97C59.6574 138.981 59.6461 139.578 59.5222 140.299C59.3984 141.02 59.2294 141.595 59.1393 141.572Z" fill="#AA6550"/>
<path d="M58.9591 126.389C58.9591 127.166 59.5898 127.808 60.3782 127.808C61.1666 127.808 61.7973 127.178 61.7973 126.389C61.7973 125.601 61.1666 124.97 60.3782 124.97C59.5898 124.97 58.9591 125.601 58.9591 126.389Z" fill="#FAFAFA"/>
<path d="M111.248 44.7679C111.969 39.4729 104.512 35.133 98.8979 34.6806C96.2167 34.4628 93.4516 34.8817 90.9044 33.9936C85.4079 32.0834 83.2126 24.9787 77.8668 22.7333C73.8617 21.041 69.2533 22.549 65.3655 24.5095C61.4777 26.47 57.6401 28.9164 53.2999 29.2013C49.5294 29.4359 45.4237 28.0451 42.1224 29.8883C39.659 31.2623 38.3687 34.0941 36.1064 35.7697C33.8943 37.4119 30.9952 37.747 28.2469 37.8978C25.4986 38.0486 22.6498 38.0821 20.1361 39.2215C17.6225 40.361 15.5613 43.0252 16.0807 45.723L111.248 44.7846V44.7679Z" fill="#EBEBEB"/>
</g>
<defs>
<clipPath id="clip0_2_1418">
<rect width="375" height="428" fill="white"/>
</clipPath>
</defs>
</svg>
